<?xml version="1.0" encoding="utf-8"?>
<!-- Generator: Adobe Illustrator 23.0.1, SVG Export Plug-In . SVG Version: 6.00 Build 0)  -->
<svg version="1.1" id="Layer_1" xmlns="http://www.w3.org/2000/svg" xmlns:xlink="http://www.w3.org/1999/xlink" x="0px" y="0px"
	 viewBox="0 0 151.8 63.9" style="enable-background:new 0 0 151.8 63.9;" xml:space="preserve">
<style type="text/css">
	.st0{fill:#F3EFE9;}
</style>
<title>Contours Logo</title>
<path class="st0" d="M11,13.2h0.6c0,0.1,0,0.2,0,0.3s0,0.2,0,0.4H11l-0.1-0.5c-0.9,1.5-1.5,3.3-1.6,5.1c0.5,0,0.4,0.4,0.4,0.8
	c-0.5-0.1-0.5,0.3-0.4,0.5c0.1,1.2,0.3,2.5,0.4,3.7c0,0.3,0.1,0.3,0.7,0.4c0,0.1,0,0.2,0,0.3s0,0.2,0,0.3l-0.4,0.1
	c0,0.1,0,0.2,0.1,0.2c1.2,3.1,3.9,5.2,7.2,5.6c2.5,0.4,5.1,0.1,7.4-0.8l0.2-0.1c0.2,0.8,0.4,1.7,0.6,2.5c0,0.1-0.2,0.3-0.3,0.4
	c-1,0.3-1.9,0.6-2.9,0.8c-2.3,0.4-4.7,0.4-7,0c-2.5-0.5-4.8-1.8-6.5-3.7l-0.9,0.1c0-0.3-0.2-0.7,0.3-0.8c-0.4-0.6-0.8-1.3-1.1-2
	c-0.4-1-0.7-2.1-1-3.1C6,23.1,5.9,22.9,5.5,23v-0.7l0.3-0.1v-4.1L5.1,18v-0.7l0.8,0.1c0.3-2.1,1.1-4.1,2.3-5.8
	c2-2.9,5.1-4.7,8.6-5.2c2.6-0.4,5.2-0.3,7.7,0.4c0.4,0.1,0.8,0.3,1.2,0.5L24.9,10l0.5,0.1c0.2,0.6,0.1,0.7-0.5,0.6
	c-0.2-0.8-0.2-0.8-1-1c-3.1-1.1-6.5-0.9-9.4,0.5c-1.2,0.6-2.3,1.5-3.1,2.7C11.2,13,11.1,13.1,11,13.2"/>
<path class="st0" d="M74.5,16.4h-0.7v-0.7l0.8,0.1c0.1-0.3,0.2-0.7,0.4-1.1c1.2-3,4.1-4.9,7.3-5c1.3-0.1,2.6,0.2,3.8,0.6
	c2,0.9,3.6,2.5,4.3,4.6c0.1,0.2,0.3,0.4,0.4,0.6c0.1,0.2,0.1,0.4,0.1,0.6c0,0.2,0,0.4,0,0.5c0,1.1,0,2.3,0,3.4c0,1.7,0,0.1,0,0.1
	c-0.1,1.2-0.5,2.3-1.1,3.2c-0.6,1-1.4,1.9-2.4,2.5c-0.2,0.1-0.2,0.5-0.3,0.9c-0.2,0-0.6,0.2-0.7-0.4c-2,0.9-4.2,1.1-6.3,0.5
	c0,0.2,0,0.4,0,0.6h-0.3h-0.4l0.1-0.9c-2-0.7-3.5-2.3-4.3-4.2C74.2,20.6,74,18.5,74.5,16.4 M78.2,21.9h-0.2c0.6,1.8,2.2,3,4.1,3.2
	c2,0.2,3.8-0.9,4.6-2.7c1.4-2.6,1.3-5.7-0.2-8.2c-1.4-2.2-4.3-2.9-6.5-1.5c-0.6,0.4-1.1,0.8-1.4,1.4c-1.2,1.9-1.5,4.1-1.1,6.2
	c0.1,0.4,0.1,0.9,0.8,0.8L78.2,21.9"/>
<path class="st0" d="M39.6,33.1H40v0.7h-0.7c0-0.2,0-0.4-0.1-0.5c-0.7,0.3-1.3,0.5-2,0.8c-0.1,0-0.2,0.3-0.3,0.5
	c-0.2-0.1-0.4-0.2-0.7-0.2c-0.1,0-0.3,0-0.4,0c-4.4,0.7-8.5-2.3-9.2-6.6c0-0.3-0.1-0.6-0.1-0.9c-0.2-1.7,0-3.5,0.7-5.1
	c0.5-1.2,1.3-2.3,2.3-3.1l-0.3-0.9H30V18c1-0.4,2-0.8,3.1-1.1c3.6-0.7,7,0.5,8.8,3.6c1,1.7,1.4,3.7,1.2,5.7c0,1.7-0.5,3.4-1.5,4.8
	C40.9,31.8,40.3,32.5,39.6,33.1 M31.5,20.4c-0.2,0.3-0.4,0.5-0.6,0.7c-0.7,1.1-1.2,2.4-1.2,3.7c-0.2,1.7,0.2,3.5,1.1,5
	c1.3,2.2,4.1,3,6.3,1.7c0.7-0.4,1.2-0.9,1.6-1.6c1.7-2.7,1.7-6.2,0-8.9c-0.3-0.4-0.5-0.8-1-0.6c-0.1-0.6-0.1-0.6-0.6-0.9
	c-1.6-0.9-3.6-0.7-5.1,0.4C32,20,31.8,20,31.7,20l0.2,0.2l0.4,0.1V21h-0.6L31.5,20.4"/>
<path class="st0" d="M94.4,7.8c0.6,0,1.1,0,1.7,0c0.2,0,0.3-0.1,0.5-0.2s0.5-0.1,0.6,0c0.2,0.1,0.3,0.4,0.3,0.6c0,1.4,0,2.8,0,4.2
	c0,2,0,4,0.1,6c0,0.2,0,0.3,0.1,0.5h0.7v0.7h-0.4c0.2,1.5,1.3,2.7,2.8,2.9c2.4,0.3,4.6-1.3,5-3.7c0-0.2,0-0.3,0-0.5
	c0-1.6,0-3.3,0-4.9c0-0.2-0.2-0.3-0.3-0.5h-0.1v-0.6c0.3,0,0.4-0.2,0.4-0.5c0-1.2,0-2.3,0-3.5V7.8h1.5l0.1-0.5h0.8
	c0,0.2,0,0.3,0.1,0.5l0.8,0.1v16.9h-2.6l-0.2-2.6l-0.2-0.1c0,0.1-0.1,0.2-0.1,0.3c-1.3,1.9-3.4,3-5.7,2.8c-0.3,0-0.6-0.2-0.6,0.4
	h-0.7c0.1-0.5-0.2-0.6-0.5-0.7c-1.8-0.6-3.1-2.2-3.4-4c-0.2-0.9-0.3-1.9-0.4-2.9c-0.1-1.1,0-2.3,0-3.4l-0.7-0.1v-0.7h0.7L94.4,7.8z"
	/>
<path class="st0" d="M49,33.3h-3c0-0.1,0-0.1,0-0.2c0-5.6,0-11.1-0.1-16.7h2.6c0.1,0.9,0.1,1.8,0.2,2.8l0.4-0.5c2-2.9,6-3.5,8.8-1.5
	c0.3,0.2,0.5,0.4,0.7,0.6c1,1.1,1.6,2.4,1.7,3.9c0.1,0.6,0.1,1.2,0.1,1.9c0,3.1,0,6.2,0,9.3v0.5h-3v-0.6c0-3.2,0-6.4,0-9.6
	c0-0.6-0.1-1.3-0.3-1.9c-0.5-2-2.6-3.2-4.6-2.7c-0.4,0.1-0.8,0.3-1.2,0.5c-1.6,0.9-2.5,2.6-2.3,4.4c0,3.1,0,6.2,0,9.2V33.3z"/>
<path class="st0" d="M124.3,11.9v-0.5h0.1c0.1-0.2,0.2-0.4,0.3-0.6c0.4-1.8,1.7-3.3,3.5-3.8c0.4-0.1,0.7-0.2,0.6-0.7h0.7
	c0,0.5,0.4,0.4,0.7,0.4c1.4-0.1,2.7,0.2,4,0.7c0.4,0.2,0.5,0.4,0.3,0.8c-0.1,0.2-0.1,0.3-0.2,0.5l0.7,0.1v0.7h-0.7V9h-0.1L134,9.9
	c-0.3-0.1-0.6-0.3-1-0.4c-1.1-0.5-2.3-0.6-3.4-0.4c-1.2,0.2-2.1,1.3-1.9,2.6c0,0.1,0.1,0.3,0.1,0.4c0.2,0.6,0.6,1,1.2,1.3
	c0.7,0.3,1.4,0.6,2,0.9s1.2,0.5,1.8,0.9c1.4,0.7,2.3,2,2.5,3.5h0.6v0.7l-0.6,0.1c0,0.3-0.1,0.6-0.1,0.9c-0.4,2-2.1,3.6-4.2,3.9
	c-1.3,0.2-2.6,0.2-3.9,0h-0.3l-0.1,0.4h-0.7c0.2-0.6-0.2-0.7-0.7-0.9s-0.8-0.3-1.2-0.5l0.7-2.2c0.9,0.3,1.7,0.6,2.6,0.9
	c0.9,0.2,1.8,0.3,2.7,0.1v-0.6l0.8,0.1c1.1-0.5,1.6-1.8,1.1-2.9c-0.1-0.3-0.3-0.5-0.5-0.7c-0.6-0.5-1.3-0.9-2.1-1.3
	c-0.7-0.4-1.6-0.6-2.3-1c-1.4-0.6-2.3-1.9-2.6-3.3C124.7,12.2,124.5,12.1,124.3,11.9"/>
<path class="st0" d="M67.7,13.8h3.2c1.2,0,1.2,0,1.2,1.3v1.1h-4.4c0,0.1,0,0.2-0.1,0.3c0,3.1,0,6.2,0,9.3c0,0.5,0.1,1,0.2,1.4
	c0.2,1,1.2,1.6,2.2,1.5c0.5,0,1.1-0.1,1.7-0.1c0,0.7,0.1,1.4,0.1,2.1c0,0.1-0.1,0.2-0.2,0.2c-1.5,0.5-3.2,0.5-4.7-0.1
	c-1.2-0.5-2-1.7-2.2-3c-0.1-0.7-0.2-1.3-0.2-2c0-3,0-6,0-9v-0.6h-2.6v-2.4h2.6c0-0.9,0-1.8,0-2.7c-0.1-0.3,0.1-0.5,0.4-0.6
	c0,0,0,0,0,0c0.8-0.2,1.7-0.5,2.6-0.8L67.7,13.8z"/>
<path class="st0" d="M117.1,9.4c0.5-0.5,0.9-1,1.5-1.5c1-0.8,2.3-1,3.5-0.8v1.7c0,0.2,0,0.5,0,0.7c0,0.2,0.1,0.4,0.2,0.5h0.1v0.6
	h-0.7l-0.1-0.6c-1.4-0.3-2.8,0.3-3.7,1.4c-0.4,0.7-0.7,1.3-1,2.1c0,0,0,0.1,0,0.1c-0.1,0.8-0.2,1.5-0.2,2.2s0,1.5,0,2.3
	c0,0.1,0.2,0.3,0.4,0.4v0.6l-0.4,0.1v5.1h-3v-5.8l-0.5-0.1v-0.6l0.4-0.1V7.5h2.6c0,0.4,0,0.8,0.1,1.2h0.6L117.1,9.4l-0.8,0v1.3h0.1
	L117.1,9.4"/>
<path class="st0" d="M20.3,40.2l-1.9,6.9l0.6,0v0.7l-2.4,0.3l-1.3-6L14,48.1h-0.1c-1.4,0.1-1.4,0.1-1.8-1.3c-0.5-2.1-1-4.2-1.5-6.2
	c0-0.1,0-0.2-0.1-0.3c0.4,0,0.8,0,1.1,0s0.4,0.1,0.4,0.4c0.4,1.9,0.8,3.8,1.2,5.7c0.2-0.9,0.4-1.8,0.7-2.7c0-0.1-0.1-0.2-0.1-0.3
	s-0.1-0.4-0.2-0.7c0.5,0.1,0.6-0.2,0.7-0.5c0.2-0.6,0.4-1.2,0.6-1.8c0-0.2,0-0.3,0-0.5h0.7l0.1,0.5c0.6,0.2,0.6,0.2,0.8,0.9
	s0.4,1.5,0.5,2.3c0.1,0.4,0.2,0.6,0.7,0.5v0.7l-0.4,0.1l0.3,1.6h0.1l0.4-1.9c0.1-0.6,0.3-1.3,0.4-1.9c0.1-0.3,0-0.6,0.1-0.9
	s0-0.4,0.1-0.5c0.3-0.3,0.3-1,1-0.7C19.8,40.3,20.1,40.3,20.3,40.2"/>
<path class="st0" d="M52.6,46.7c0-1.8,0-3.5,0-5.3c0-0.4,0.1-0.5,0.5-0.4s0.5,0,0.8,0v7.9c-0.5,0-0.9,0-1.3,0
	c-0.1,0-0.2-0.2-0.3-0.3l-3.2-5.6c0-0.1-0.1-0.1-0.1-0.2v6.1h-1.2v-7.8c0.5,0,1,0,1.5,0c0.1,0,0.2,0.2,0.3,0.3L52.6,46.7L52.6,46.7"
	/>
<path class="st0" d="M102.3,39v-3.1l-0.6-0.1v-0.7l0.6-0.1v-4c1.6-0.3,3.2-0.2,4.7,0.3c1.3,0.5,2.1,1.7,2,3.1c0,0.8-0.1,1.5-0.2,2.3
	h0.4v0.7l-0.8-0.2c-1.5,2-3.8,1.7-6,1.6 M104.4,37.8c1.6,0.2,3-1,3.1-2.5c0-0.2,0-0.3,0-0.5c0.2-1.2-0.6-2.4-1.8-2.7
	c-0.6-0.1-1.1-0.1-1.7-0.1c-0.3,0-0.4,0.1-0.4,0.4c0,1,0,2,0,3c0,0.1,0,0.2,0,0.3c0,0.3,0,0.5,0,0.8c0,0.4,0,0.8,0,1.2
	C103.7,37.8,104.1,37.8,104.4,37.8"/>
<path class="st0" d="M86.4,33.4l0.1-0.5h0.7v0.8c2.5,1.3,2.4,5,1.1,6.6c-1,1.2-2.6,1.6-4,1.1c-1.4-0.4-2.4-1.6-2.4-3.1
	c-0.1-0.9,0-1.9,0.3-2.7c0.6-1.5,2.2-2.4,3.9-2.2L86.4,33.4 M87.3,39c0.4-0.9,0.4-1.9,0.1-2.8c-0.2-0.5-0.3-1.1-1.1-1
	c-0.1-0.5-0.1-0.6-0.6-0.7c-0.9-0.1-1.8,0.4-2.1,1.2c-0.5,1-0.5,2.2-0.1,3.3c0.2,0.8,0.9,1.3,1.7,1.4c0.7,0.1,1.4-0.2,1.7-0.8h-0.4
	v-0.8L87.3,39"/>
<path class="st0" d="M74.9,39.6V43h-1.4v-7.8h1.3v3.1h3l-0.2-0.7l0.6-0.1v-2.3h1.4V43h-1.4c0-0.2,0-0.3,0-0.5c0-0.2-0.2-0.3-0.2-0.5
	s-0.1-0.5,0-0.6c0.4-0.3,0.2-0.7,0.2-1.1c0-0.2,0-0.5,0-0.7L74.9,39.6z"/>
<path class="st0" d="M62.4,39.3l-0.3,1c-0.6-0.1-1.3-0.2-1.9-0.2c-2.1,0-3.1,1.7-2.7,3.6c0.4,1.8,1.9,2.3,3.5,2
	c0.1,0,0.3-0.2,0.3-0.3c0-0.6,0-1.2,0-1.8h-1.4c0-0.3,0-0.6,0-0.9c0-0.1,0.2-0.2,0.3-0.2c0.7,0,1.4,0,2.2,0c0.1,0,0.3,0.2,0.3,0.3
	c0,1.1,0,2.3,0,3.4c0,0.2-0.1,0.3-0.3,0.3c-1.1,0.4-2.4,0.5-3.6,0.2c-1.4-0.3-2.5-1.4-2.8-2.8c-0.4-1.6,0.2-3.4,1.6-4.4
	C59,38.8,60.8,38.7,62.4,39.3"/>
<path class="st0" d="M27.2,50.4h-0.1c-1.4,0.1-1.4,0.1-1.8-1.3c0-0.1-0.1-0.3-0.1-0.4c-0.2-0.6-0.2-0.6-0.9-0.5c0,0.2,0,0.4-0.1,0.6
	h-0.7c0-0.2,0-0.4,0-0.6c-0.3,0-0.6,0-0.8,0c-0.1,0-0.2,0.1-0.3,0.3c-0.2,0.5-0.3,1.1-0.5,1.7c-0.1,0.1-0.2,0.3-0.4,0.3
	c-0.4,0-0.8,0-1.2,0l0.6-2c0.6-1.8,1.2-3.7,1.8-5.5c0.1-0.3,0.2-0.4,0.5-0.4s1-0.1,1.4,0.1s0.4,0.8,0.5,1.3s0.3,1,0.4,1.3l0.8-0.2
	v0.7l-0.6,0.1L27.2,50.4 M23.8,43.8h-0.1L22.7,47h2c-0.4-0.5-0.1-1.5-1.1-1.3v-0.7l0.4-0.1L23.8,43.8"/>
<path class="st0" d="M37.4,47.8l1-1.4l0.7-1c0.9-1.2,0.9-1.2,2.5-1.1c-0.4,1-1.7,1.5-1.6,2.6l-1,0.6l2.9,4.6c-0.6,0-1,0-1.5,0
	c-0.1,0-0.3-0.2-0.3-0.3c-0.6-0.9-1.2-1.9-1.8-2.8L38,48.6c-0.5,0.3-0.8,0.9-0.8,1.5c0,0.7,0,1.3,0,2h-1.3v-8.4h0.6l0,0.5l0.7,0.1
	v3.4L37.4,47.8"/>
<path class="st0" d="M110.2,39.7l0.5-1.6l-0.5,0v-0.6c0,0,0.1,0,0.1,0c0.5,0.1,0.7-0.2,0.8-0.7c0.4-1.5,0.9-2.9,1.4-4.4
	c0.1-0.3,0.2-0.4,0.6-0.4s1.1-0.1,1.4,0.1c0.3,0.2,0.3,0.8,0.5,1.3c0.4,1.2,0.8,2.4,1.2,3.6l0.8,2.6c0,0.1,0.1,0.2,0.1,0.4h-1.5
	l-0.6-1.8c-0.1-0.4-0.1-0.4-0.6-0.4c0,0.1,0,0.2,0,0.3s0,0.2,0,0.3h-0.7c0-0.2,0-0.3-0.1-0.5h-0.8c0,0.2,0,0.3-0.1,0.4
	c-0.4-0.1-0.6,0.1-0.6,0.5c0,0,0,0.1,0,0.1C111.7,39.8,111.7,39.8,110.2,39.7 M113.5,33l-1,3.3h2L113.5,33"/>
<path class="st0" d="M129.7,36.5c-0.7-0.1-1.4-0.2-2-0.2c-0.5,0-0.9,0.3-0.9,0.8c-0.1,0.5,0.2,0.8,0.6,1c0.2,0.1,0.3,0.2,0.5,0.2
	c0.2-0.4,0.2-0.4,0.8-0.3c-0.2,0.6,0.2,0.8,0.6,1c1,0.7,1.3,2,0.6,3c-0.2,0.2-0.4,0.4-0.6,0.6c-1.3,0.7-2.9,0.7-4.2,0l0.3-1
	c0.6,0.1,1.2,0.3,1.8,0.3c0.3,0,0.6,0,0.8-0.1c0.4-0.1,0.7-0.4,0.7-0.8c0.1-0.4-0.1-0.8-0.5-1c-0.4-0.4-1-0.6-1.6-0.5
	c-0.1,0-0.2,0-0.3-0.1c-0.2-0.3-0.4-0.6-0.6-0.8c-0.8-0.9-0.7-2.2,0.2-2.9c0.1-0.1,0.3-0.2,0.5-0.3c1-0.5,2.2-0.5,3.3-0.1
	c0.1,0.1,0.2,0.2,0.2,0.4C129.8,35.9,129.7,36.2,129.7,36.5"/>
<path class="st0" d="M122.8,35.8h0.5v0.7c-0.3,0-0.6,0.2-0.8-0.3c-0.7,1.2-1.6,2.3-1.1,3.8h0.6v0.7h-0.7c0,0.3-0.1,0.5-0.1,0.8H120
	c0-0.2,0-0.3,0-0.5l-0.4-0.1v-0.6l0.4-0.1c0.1-1,0-2-0.4-2.8c-0.7-1-1.2-2.2-1.8-3.2c-0.1-0.1-0.1-0.3-0.2-0.5c0.5,0,1,0,1.4,0
	c0.1,0,0.3,0.2,0.4,0.3c0.4,0.9,0.8,1.8,1.3,2.8c0.1,0.1,0.1,0.2,0.2,0.4c0.1-0.1,0.1-0.2,0.2-0.3c0.2-1.1,1-1.9,1.4-2.9
	c0.1-0.1,0.2-0.2,0.3-0.2c0.4,0,0.9,0,1.4,0l-1.2,2"/>
<path class="st0" d="M29.4,49l-0.5,0v-0.7l0.5-0.1v-4.4h1.4c0,0.3,0,0.7,0,1.1l0.5,0.1v0.7l-0.5,0.1v2.6l0.5,0.1v0.7L30.8,49v1.4H34
	v1.2h-4.6V49z"/>
<path class="st0" d="M143.1,61h-0.9l-0.1-0.6c-0.1,0-0.1,0-0.1,0c-0.7,0.8-1.8,0.9-2.6,0.2c-0.3-0.3-0.5-0.7-0.6-1.1
	c-0.2-0.7-0.1-1.5,0.3-2.2c0.5-0.9,1.6-1.3,2.5-0.8c0.1,0,0.2,0.1,0.3,0.2c0.1,0,0.1,0.1,0.2,0.1v-2.3h1.1L143.1,61z M142,58.7
	L142,58.7c0-0.1,0-0.3,0-0.4c0-0.5-0.3-1-0.8-1c-0.5-0.1-1,0.2-1.2,0.6c-0.3,0.5-0.3,1.2,0,1.8c0.2,0.5,0.9,0.8,1.4,0.5
	c0.3-0.2,0.6-0.5,0.6-0.9C142,59.2,142,58.9,142,58.7"/>
<path class="st0" d="M112.6,56.5c0,0.2,0.1,0.4,0.1,0.7c0.2-0.2,0.3-0.3,0.5-0.4c0.8-0.6,2-0.4,2.6,0.5c0.1,0.1,0.1,0.2,0.2,0.3
	c0.5,1.1,0.3,2.4-0.7,3.2c-0.8,0.5-1.8,0.5-2.5-0.2V62c0,1,0,1-1.1,0.8c0-0.1,0-0.3,0-0.4c0-1.8,0-3.7,0-5.5c0-0.3,0.1-0.4,0.4-0.4
	C112.4,56.5,112.5,56.5,112.6,56.5 M114,57.2c-0.3,0.1-0.5,0.3-0.7,0.4c-0.5,0.7-0.5,1.6-0.1,2.3c0.2,0.2,0.5,0.3,0.8,0.4
	c0.7,0.1,1.2-0.6,1.2-1.5C115.3,58,114.8,57.3,114,57.2C114,57.2,114,57.2,114,57.2"/>
<polygon class="st0" points="91.1,31.6 92.4,31.6 92.4,38.3 95.7,38.3 95.7,39.5 91.1,39.5 "/>
<path class="st0" d="M125,54.5v2.6l0.5-0.3c0.6-0.5,1.6-0.4,2.1,0.2c0.2,0.2,0.3,0.5,0.3,0.8c0.1,1.1,0.1,2.2,0.1,3.3h-1
	c0-0.4,0-0.8,0-1.2c0-0.6,0-1.1-0.1-1.7c0-0.5-0.4-0.8-0.8-0.8c0,0-0.1,0-0.1,0c-0.5,0-0.9,0.5-0.9,1c0,0.9,0,1.8,0,2.7H124v-6.5
	H125z"/>
<path class="st0" d="M99.2,31.7l0.4,0.1v0.6l-0.4,0.1c0,0.3-0.2,0.6,0.2,0.8c0.1,0.1,0,0.4,0,0.6s-0.2,0.4-0.2,0.5
	c0,1.3,0,2.6,0,3.9h-1.4v-7.8h1.3L99.2,31.7z"/>
<path class="st0" d="M96.6,61h-0.9l-0.1-0.3c-0.4,0.2-0.8,0.3-1.3,0.5c-0.6,0.1-1.2-0.3-1.5-0.8c-0.2-0.6,0-1.3,0.6-1.7
	c0.4-0.2,0.8-0.3,1.2-0.4c0.3,0,0.5-0.1,0.8-0.1c0.1-0.9-0.5-1.1-2.1-0.6l-0.2-0.7c0.8-0.5,1.8-0.5,2.6-0.2c0.5,0.2,0.9,0.8,0.8,1.4
	C96.6,59,96.6,60,96.6,61 M95.6,59.3c0-0.5-0.1-0.6-0.6-0.5c-0.3,0-0.5,0.1-0.7,0.2c-0.3,0.2-0.4,0.5-0.3,0.8
	c0.1,0.3,0.4,0.5,0.7,0.4C95.2,60.3,95.6,59.9,95.6,59.3C95.6,59.3,95.6,59.3,95.6,59.3"/>
<path class="st0" d="M136.5,58c0-0.8-0.7-1-2.1-0.5l-0.2-0.7c0.8-0.4,1.7-0.5,2.6-0.2c0.6,0.2,0.9,0.8,0.9,1.4c0,1,0,2,0,3h-0.9
	l-0.1-0.4c-0.3,0.2-0.7,0.3-1,0.4c-0.7,0.2-1.5-0.2-1.8-0.9c-0.2-0.7,0.1-1.5,0.9-1.7C135.3,58.2,135.9,58.1,136.5,58 M136.5,58.7
	c-0.4,0.1-0.8,0.2-1.2,0.3c-0.3,0.1-0.5,0.5-0.4,0.8c0,0,0,0,0,0.1c0.1,0.4,0.4,0.4,0.8,0.4C136.4,60.2,136.7,59.7,136.5,58.7"/>
<path class="st0" d="M122.6,61h-0.9l-0.1-0.3c-0.4,0.2-0.8,0.3-1.3,0.5c-0.6,0.1-1.2-0.3-1.5-0.8c-0.2-0.6,0-1.3,0.6-1.7
	c0.6-0.3,1.3-0.5,2-0.5c0.1-0.9-0.5-1.1-2.1-0.6l-0.2-0.7c0.8-0.5,1.8-0.5,2.6-0.2c0.5,0.2,0.9,0.8,0.8,1.4
	C122.6,59,122.6,60,122.6,61 M121.5,58.7c-0.4,0.1-0.8,0.2-1.1,0.3c-0.4,0.1-0.6,0.5-0.4,0.9c0,0,0,0.1,0.1,0.1
	c0.2,0.4,0.5,0.4,0.8,0.4C121.4,60.3,121.7,59.8,121.5,58.7"/>
<path class="st0" d="M133.1,59.1h-3c0,1.1,0.7,1.4,2.6,1.1c0.3,0.7,0.2,0.8-0.5,0.9c-0.3,0-0.5,0.1-0.8,0.1c-1.2,0.1-2.3-0.7-2.5-2
	c0-0.4,0-0.7,0.1-1.1c0.2-1.1,1.4-1.9,2.5-1.6c0,0,0,0,0,0c0.8,0.2,1.4,0.9,1.4,1.7C133.2,58.5,133.2,58.8,133.1,59.1 M132.1,58.3
	c0-0.8-0.3-1.1-0.9-1.1c-0.6,0-1,0.4-1,1c0,0,0,0.1,0,0.1H132.1z"/>
<path class="st0" d="M110.7,59.1h-3c0,1.1,0.7,1.4,2.6,1.1c0.3,0.7,0.2,0.8-0.5,0.9c-0.3,0-0.5,0.1-0.8,0.1c-1.2,0.1-2.3-0.7-2.5-2
	c0-0.4,0-0.7,0.1-1.1c0.2-1.1,1.4-1.9,2.5-1.6c0,0,0,0,0,0c0.8,0.2,1.4,0.9,1.4,1.7C110.7,58.5,110.7,58.8,110.7,59.1 M107.7,58.3h2
	c0-0.7-0.3-1.1-0.8-1.1S107.8,57.5,107.7,58.3"/>
<rect x="44.2" y="43" class="st0" width="1.3" height="7.8"/>
<path class="st0" d="M105,55.3v1.1h1v0.8c-0.1,0-0.1,0-0.2,0c-0.9,0-0.9,0-0.9,0.9v0.9c0,1,0,1,1,1.1V61c-0.3,0-0.6,0.1-0.9,0.1
	c-0.6,0-1.2-0.5-1.2-1.1c0,0,0-0.1,0-0.1c0-0.6,0-1.3,0-1.9s0-0.6-0.6-0.8v-0.7l0.6-0.1c0-0.3,0-0.7,0.2-0.8
	C104.3,55.4,104.6,55.3,105,55.3"/>
<path class="st0" d="M99.5,60.8l0.2-0.7c0.4,0.1,0.7,0.2,1.1,0.2c0.3,0,0.7,0,0.8-0.4s-0.2-0.5-0.5-0.7s-0.5-0.2-0.8-0.3
	c-0.4-0.2-0.7-0.6-0.7-1.1c0-0.5,0.3-0.9,0.8-1.1c0.7-0.3,1.5-0.3,2.1,0.1l-0.2,0.6c-0.3-0.1-0.7-0.1-1-0.1c-0.2,0-0.4,0.2-0.5,0.4
	c0,0.2,0.2,0.4,0.3,0.6c0.3,0.1,0.5,0.3,0.8,0.4c0.5,0.2,0.9,0.8,0.8,1.3c-0.1,0.6-0.5,1-1,1.2C100.9,61.2,100.2,61.2,99.5,60.8"/>
<path class="st0" d="M144.3,54.8h1.2c-0.1,1.4-0.1,2.8-0.2,4.3h-0.8L144.3,54.8"/>
<path class="st0" d="M87.6,60.4c0,0.4-0.3,0.7-0.7,0.7c0,0,0,0,0,0c-0.4,0-0.7-0.3-0.7-0.7c0,0,0,0,0,0c0-0.4,0.3-0.7,0.7-0.7
	C87.3,59.7,87.6,60,87.6,60.4C87.6,60.4,87.6,60.4,87.6,60.4"/>
<path class="st0" d="M89.9,60.4c0,0.4-0.3,0.7-0.7,0.7c0,0,0,0,0,0c-0.4,0-0.7-0.3-0.7-0.7c0,0,0,0,0,0c0-0.4,0.3-0.7,0.7-0.7
	C89.6,59.7,89.9,60,89.9,60.4C89.9,60.4,89.9,60.4,89.9,60.4"/>
<path class="st0" d="M91.3,59.7c0.4,0,0.7,0.3,0.7,0.7c0,0,0,0,0,0.1c0,0.4-0.3,0.7-0.7,0.7c0,0,0,0,0,0c-0.4,0-0.7-0.3-0.7-0.7
	C90.7,60.1,91,59.7,91.3,59.7"/>
<path class="st0" d="M145.6,60.4c0,0.4-0.3,0.7-0.7,0.7c-0.4,0-0.7-0.3-0.7-0.7c0-0.4,0.2-0.7,0.6-0.7c0,0,0,0,0.1,0
	C145.2,59.7,145.5,60,145.6,60.4C145.6,60.4,145.6,60.4,145.6,60.4"/>
<rect x="100.9" y="1.1" class="st0" width="0.7" height="0.7"/>
<rect x="92.2" y="1.2" class="st0" width="0.6" height="0.7"/>
<rect x="93.9" y="1.2" class="st0" width="0.7" height="0.7"/>
<rect x="104.9" y="1.2" class="st0" width="0.7" height="0.7"/>
<rect x="90.6" y="1.4" class="st0" width="0.7" height="0.7"/>
<rect x="106.4" y="1.5" class="st0" width="0.7" height="0.7"/>
<rect x="88.8" y="1.6" class="st0" width="0.7" height="0.6"/>
<rect x="108.2" y="1.6" class="st0" width="0.7" height="0.6"/>
<rect x="110" y="1.7" class="st0" width="0.7" height="0.6"/>
<rect x="87.1" y="1.8" class="st0" width="0.7" height="0.7"/>
<rect x="85.3" y="2.1" class="st0" width="0.7" height="0.7"/>
<rect x="111.8" y="2.1" class="st0" width="0.7" height="0.7"/>
<rect x="113.4" y="2.3" class="st0" width="0.7" height="0.7"/>
<rect x="83.6" y="2.5" class="st0" width="0.7" height="0.7"/>
<rect x="115.4" y="2.7" class="st0" width="0.7" height="0.7"/>
<rect x="81.6" y="2.9" class="st0" width="0.6" height="0.7"/>
<rect x="117.1" y="3" class="st0" width="0.7" height="0.7"/>
<rect x="118.7" y="3.2" class="st0" width="0.7" height="0.7"/>
<rect x="80" y="3.5" class="st0" width="0.7" height="0.7"/>
<rect x="120.5" y="3.8" class="st0" width="0.7" height="0.7"/>
<rect x="78.4" y="3.9" class="st0" width="0.7" height="0.7"/>
<rect x="122.1" y="4.3" class="st0" width="0.7" height="0.7"/>
<rect x="76.8" y="4.7" class="st0" width="0.7" height="0.7"/>
<rect x="123.8" y="4.7" class="st0" width="0.7" height="0.7"/>
<rect x="125.5" y="5.2" class="st0" width="0.7" height="0.7"/>
<rect x="75.2" y="5.4" class="st0" width="0.7" height="0.7"/>
<rect x="127.2" y="5.7" class="st0" width="0.7" height="0.7"/>
<rect x="73.6" y="6.2" class="st0" width="0.7" height="0.7"/>
<rect x="105.3" y="7" class="st0" width="0.7" height="0.7"/>
<rect x="101.9" y="7.1" class="st0" width="0.7" height="0.7"/>
<rect x="103.6" y="7.1" class="st0" width="0.6" height="0.7"/>
<rect x="72.1" y="7.2" class="st0" width="0.6" height="0.7"/>
<rect x="100.3" y="7.3" class="st0" width="0.7" height="0.7"/>
<rect x="98.5" y="7.4" class="st0" width="0.7" height="0.6"/>
<rect x="109" y="7.5" class="st0" width="0.7" height="0.7"/>
<rect x="93" y="7.9" class="st0" width="0.7" height="0.6"/>
<rect x="110.8" y="7.8" class="st0" width="0.7" height="0.7"/>
<rect x="91.5" y="8" class="st0" width="0.7" height="0.7"/>
<rect x="112.6" y="8.2" class="st0" width="0.7" height="0.6"/>
<rect x="70.9" y="8.3" class="st0" width="0.7" height="0.6"/>
<rect x="89.7" y="8.3" class="st0" width="0.7" height="0.6"/>
<rect x="88.2" y="8.9" class="st0" width="0.7" height="0.7"/>
<rect x="86.3" y="9.6" class="st0" width="0.6" height="0.7"/>
<rect x="70.5" y="9.7" class="st0" width="0.7" height="0.6"/>
<rect x="135.8" y="9.7" class="st0" width="0.7" height="0.6"/>
<rect x="30" y="9.9" class="st0" width="0.6" height="0.7"/>
<rect x="31.8" y="9.9" class="st0" width="0.7" height="0.6"/>
<rect x="33.6" y="9.9" class="st0" width="0.7" height="0.7"/>
<rect x="35.3" y="9.9" class="st0" width="0.7" height="0.7"/>
<rect x="26.5" y="10" class="st0" width="0.7" height="0.7"/>
<rect x="28.4" y="10" class="st0" width="0.7" height="0.7"/>
<rect x="22.9" y="10.4" class="st0" width="0.7" height="0.7"/>
<rect x="123" y="10.6" class="st0" width="0.7" height="0.7"/>
<rect x="137" y="10.6" class="st0" width="0.7" height="0.6"/>
<rect x="138.1" y="11.3" class="st0" width="0.7" height="0.7"/>
<rect x="71.2" y="11.5" class="st0" width="0.7" height="0.7"/>
<rect x="16" y="11.6" class="st0" width="0.7" height="0.7"/>
<rect x="103.6" y="12.4" class="st0" width="0.7" height="0.7"/>
<rect x="139.6" y="12.4" class="st0" width="0.7" height="0.7"/>
<rect x="109.3" y="12.4" class="st0" width="0.6" height="0.7"/>
<rect x="102.1" y="12.5" class="st0" width="0.7" height="0.7"/>
<rect x="111.1" y="12.5" class="st0" width="0.7" height="0.7"/>
<rect x="100.4" y="12.7" class="st0" width="0.7" height="0.6"/>
<rect x="71.8" y="12.9" class="st0" width="0.7" height="0.7"/>
<rect x="98.7" y="12.9" class="st0" width="0.7" height="0.7"/>
<rect x="112.7" y="13" class="st0" width="0.7" height="0.7"/>
<rect x="27.7" y="13.5" class="st0" width="0.6" height="0.7"/>
<rect x="29.5" y="13.5" class="st0" width="0.7" height="0.6"/>
<rect x="31.3" y="13.5" class="st0" width="0.7" height="0.7"/>
<rect x="141.1" y="13.5" class="st0" width="0.7" height="0.7"/>
<rect x="26" y="13.6" class="st0" width="0.7" height="0.6"/>
<rect x="20.7" y="14.1" class="st0" width="0.7" height="0.7"/>
<rect x="118" y="14.2" class="st0" width="0.7" height="0.7"/>
<rect x="17.1" y="14.5" class="st0" width="0.7" height="0.7"/>
<rect x="19" y="14.5" class="st0" width="0.6" height="0.7"/>
<rect x="72.7" y="14.5" class="st0" width="0.7" height="0.6"/>
<rect x="91.8" y="14.6" class="st0" width="0.7" height="0.7"/>
<rect x="142.3" y="14.7" class="st0" width="0.7" height="0.7"/>
<rect x="119.7" y="15" class="st0" width="0.7" height="0.7"/>
<rect x="15.4" y="15.1" class="st0" width="0.7" height="0.7"/>
<rect x="121.4" y="15.6" class="st0" width="0.6" height="0.7"/>
<rect x="13.9" y="15.8" class="st0" width="0.7" height="0.7"/>
<rect x="143.7" y="15.8" class="st0" width="0.6" height="0.7"/>
<rect x="122.8" y="16.4" class="st0" width="0.7" height="0.7"/>
<rect x="12" y="16.6" class="st0" width="0.7" height="0.7"/>
<rect x="124.5" y="17" class="st0" width="0.7" height="0.7"/>
<rect x="144.6" y="17.1" class="st0" width="0.7" height="0.7"/>
<rect x="104.8" y="17.3" class="st0" width="0.7" height="0.6"/>
<rect x="109.2" y="17.3" class="st0" width="0.7" height="0.6"/>
<rect x="111.2" y="17.3" class="st0" width="0.7" height="0.7"/>
<rect x="10.6" y="17.4" class="st0" width="0.7" height="0.6"/>
<rect x="102.9" y="17.5" class="st0" width="0.7" height="0.7"/>
<rect x="100.9" y="17.8" class="st0" width="0.7" height="0.6"/>
<rect x="24.1" y="17.9" class="st0" width="0.6" height="0.6"/>
<rect x="126" y="17.9" class="st0" width="0.7" height="0.6"/>
<rect x="20.4" y="18.1" class="st0" width="0.6" height="0.7"/>
<rect x="22.1" y="18.1" class="st0" width="0.7" height="0.7"/>
<rect x="99.3" y="18.4" class="st0" width="0.7" height="0.7"/>
<rect x="18.7" y="18.6" class="st0" width="0.6" height="0.7"/>
<rect x="145.8" y="18.6" class="st0" width="0.7" height="0.6"/>
<rect x="127.4" y="18.7" class="st0" width="0.6" height="0.7"/>
<rect x="118.4" y="18.9" class="st0" width="0.7" height="0.7"/>
<rect x="17" y="19.1" class="st0" width="0.7" height="0.7"/>
<rect x="15.3" y="19.6" class="st0" width="0.6" height="0.7"/>
<rect x="120.1" y="19.6" class="st0" width="0.7" height="0.7"/>
<rect x="136.3" y="19.7" class="st0" width="0.6" height="0.7"/>
<rect x="128.8" y="20" class="st0" width="0.7" height="0.7"/>
<rect x="146.8" y="20.2" class="st0" width="0.7" height="0.7"/>
<rect x="13.6" y="20.3" class="st0" width="0.7" height="0.7"/>
<rect x="121.5" y="20.5" class="st0" width="0.6" height="0.7"/>
<rect x="137.5" y="20.5" class="st0" width="0.7" height="0.7"/>
<rect x="12.5" y="21.1" class="st0" width="0.7" height="0.7"/>
<rect x="25.9" y="21.3" class="st0" width="0.7" height="0.7"/>
<rect x="123.2" y="21.5" class="st0" width="0.7" height="0.7"/>
<rect x="147.5" y="21.9" class="st0" width="0.7" height="0.7"/>
<rect x="18.8" y="22.1" class="st0" width="0.7" height="0.7"/>
<rect x="138.6" y="22.1" class="st0" width="0.7" height="0.7"/>
<rect x="11.1" y="22.2" class="st0" width="0.6" height="0.7"/>
<rect x="91.2" y="22.2" class="st0" width="0.7" height="0.7"/>
<rect x="17.1" y="22.7" class="st0" width="0.6" height="0.7"/>
<rect x="139.5" y="23.3" class="st0" width="0.7" height="0.7"/>
<rect x="15.4" y="23.5" class="st0" width="0.7" height="0.7"/>
<rect x="148" y="23.5" class="st0" width="0.7" height="0.6"/>
<rect x="92" y="23.7" class="st0" width="0.7" height="0.7"/>
<rect x="4.5" y="23.8" class="st0" width="0.7" height="0.7"/>
<rect x="132.2" y="24.2" class="st0" width="0.7" height="0.7"/>
<rect x="14" y="24.5" class="st0" width="0.6" height="0.7"/>
<rect x="139.8" y="24.9" class="st0" width="0.7" height="0.7"/>
<rect x="148.6" y="25.2" class="st0" width="0.7" height="0.7"/>
<rect x="92.8" y="25.3" class="st0" width="0.7" height="0.7"/>
<rect x="3.8" y="25.4" class="st0" width="0.7" height="0.7"/>
<rect x="126.6" y="25.5" class="st0" width="0.7" height="0.7"/>
<rect x="12.6" y="25.6" class="st0" width="0.7" height="0.7"/>
<rect x="132.6" y="25.9" class="st0" width="0.7" height="0.6"/>
<rect x="98.9" y="26.5" class="st0" width="0.7" height="0.7"/>
<rect x="140.3" y="26.6" class="st0" width="0.7" height="0.7"/>
<rect x="12" y="26.7" class="st0" width="0.6" height="0.7"/>
<rect x="93.4" y="27" class="st0" width="0.7" height="0.7"/>
<rect x="148.9" y="27" class="st0" width="0.7" height="0.6"/>
<rect x="3.4" y="27.1" class="st0" width="0.7" height="0.7"/>
<rect x="127.1" y="27.2" class="st0" width="0.7" height="0.7"/>
<rect x="86.7" y="27.5" class="st0" width="0.6" height="0.7"/>
<rect x="133.1" y="27.7" class="st0" width="0.7" height="0.7"/>
<rect x="99.3" y="28.3" class="st0" width="0.6" height="0.7"/>
<rect x="140.7" y="28.4" class="st0" width="0.7" height="0.7"/>
<rect x="93.6" y="28.6" class="st0" width="0.6" height="0.7"/>
<rect x="79.4" y="28.9" class="st0" width="0.7" height="0.7"/>
<rect x="149" y="28.9" class="st0" width="0.7" height="0.7"/>
<rect x="3.4" y="29" class="st0" width="0.7" height="0.7"/>
<rect x="127.2" y="29" class="st0" width="0.7" height="0.7"/>
<rect x="86.8" y="29.4" class="st0" width="0.7" height="0.7"/>
<rect x="133.1" y="29.4" class="st0" width="0.7" height="0.6"/>
<rect x="99.3" y="30.1" class="st0" width="0.7" height="0.7"/>
<rect x="140.6" y="30.3" class="st0" width="0.7" height="0.7"/>
<rect x="93.6" y="30.4" class="st0" width="0.7" height="0.7"/>
<rect x="149.1" y="30.5" class="st0" width="0.7" height="0.7"/>
<rect x="3.7" y="30.6" class="st0" width="0.7" height="0.7"/>
<rect x="7.7" y="30.5" class="st0" width="0.7" height="0.7"/>
<rect x="79.4" y="30.5" class="st0" width="0.7" height="0.7"/>
<rect x="127.2" y="30.6" class="st0" width="0.7" height="0.7"/>
<rect x="86.7" y="31.1" class="st0" width="0.7" height="0.7"/>
<rect x="132.8" y="31.2" class="st0" width="0.7" height="0.7"/>
<rect x="0.6" y="31.6" class="st0" width="0.7" height="0.7"/>
<rect x="140.5" y="32" class="st0" width="0.7" height="0.7"/>
<rect x="8.1" y="32.1" class="st0" width="0.7" height="0.7"/>
<rect x="93.2" y="32.1" class="st0" width="0.7" height="0.7"/>
<rect x="4.1" y="32.2" class="st0" width="0.7" height="0.7"/>
<rect x="148.9" y="32.2" class="st0" width="0.6" height="0.7"/>
<rect x="11.6" y="32.3" class="st0" width="0.7" height="0.7"/>
<rect x="79.4" y="32.4" class="st0" width="0.7" height="0.7"/>
<rect x="126.8" y="32.4" class="st0" width="0.7" height="0.7"/>
<rect x="132.6" y="33" class="st0" width="0.6" height="0.7"/>
<rect x="140.3" y="33.5" class="st0" width="0.7" height="0.7"/>
<rect x="125.5" y="33.6" class="st0" width="0.7" height="0.7"/>
<rect x="8.8" y="33.7" class="st0" width="0.7" height="0.7"/>
<rect x="29.9" y="33.7" class="st0" width="0.7" height="0.7"/>
<rect x="92.8" y="33.7" class="st0" width="0.7" height="0.7"/>
<rect x="12.8" y="33.8" class="st0" width="0.7" height="0.7"/>
<rect x="4.9" y="34" class="st0" width="0.7" height="0.7"/>
<rect x="148.9" y="34" class="st0" width="0.6" height="0.7"/>
<rect x="79.2" y="34.1" class="st0" width="0.7" height="0.7"/>
<rect x="32.9" y="34.5" class="st0" width="0.7" height="0.7"/>
<rect x="100.3" y="34.5" class="st0" width="0.7" height="0.7"/>
<rect x="132.1" y="34.7" class="st0" width="0.7" height="0.7"/>
<rect x="124.2" y="34.8" class="st0" width="0.7" height="0.7"/>
<rect x="39.7" y="35" class="st0" width="0.7" height="0.7"/>
<rect x="1.9" y="35.1" class="st0" width="0.7" height="0.7"/>
<rect x="9.8" y="35.2" class="st0" width="0.7" height="0.7"/>
<rect x="92.7" y="35.2" class="st0" width="0.7" height="0.7"/>
<rect x="30.3" y="35.4" class="st0" width="0.7" height="0.6"/>
<rect x="5.6" y="35.5" class="st0" width="0.7" height="0.7"/>
<rect x="13.7" y="35.5" class="st0" width="0.7" height="0.7"/>
<rect x="36.6" y="35.6" class="st0" width="0.7" height="0.6"/>
<rect x="139.8" y="35.7" class="st0" width="0.7" height="0.7"/>
<rect x="148.4" y="35.8" class="st0" width="0.7" height="0.7"/>
<rect x="130.7" y="36.1" class="st0" width="0.7" height="0.6"/>
<rect x="33.3" y="36.3" class="st0" width="0.7" height="0.7"/>
<rect x="93.7" y="36.3" class="st0" width="0.7" height="0.7"/>
<rect x="15.2" y="36.5" class="st0" width="0.6" height="0.7"/>
<rect x="40.2" y="36.5" class="st0" width="0.7" height="0.7"/>
<rect x="11" y="36.7" class="st0" width="0.7" height="0.7"/>
<rect x="2.6" y="36.8" class="st0" width="0.7" height="0.7"/>
<rect x="6.6" y="36.9" class="st0" width="0.7" height="0.6"/>
<rect x="117.4" y="36.9" class="st0" width="0.7" height="0.7"/>
<rect x="129.5" y="37.1" class="st0" width="0.7" height="0.6"/>
<rect x="139.3" y="37.1" class="st0" width="0.7" height="0.7"/>
<rect x="95.3" y="37.2" class="st0" width="0.7" height="0.7"/>
<rect x="16.7" y="37.3" class="st0" width="0.7" height="0.7"/>
<rect x="147.9" y="37.5" class="st0" width="0.6" height="0.7"/>
<rect x="30.8" y="37.6" class="st0" width="0.7" height="0.7"/>
<rect x="37.1" y="37.6" class="st0" width="0.7" height="0.7"/>
<rect x="12.2" y="37.8" class="st0" width="0.7" height="0.7"/>
<rect x="18.5" y="38" class="st0" width="0.7" height="0.7"/>
<rect x="33.8" y="38" class="st0" width="0.7" height="0.7"/>
<rect x="96.8" y="37.9" class="st0" width="0.7" height="0.7"/>
<rect x="3.8" y="38" class="st0" width="0.7" height="0.7"/>
<rect x="7.7" y="38.1" class="st0" width="0.7" height="0.7"/>
<rect x="138.1" y="38.3" class="st0" width="0.7" height="0.7"/>
<rect x="28.9" y="38.4" class="st0" width="0.7" height="0.7"/>
<rect x="40.6" y="38.4" class="st0" width="0.7" height="0.7"/>
<rect x="21.9" y="38.7" class="st0" width="0.7" height="0.7"/>
<rect x="27" y="38.7" class="st0" width="0.6" height="0.7"/>
<rect x="98.5" y="38.7" class="st0" width="0.7" height="0.7"/>
<rect x="20.2" y="38.8" class="st0" width="0.6" height="0.7"/>
<rect x="13.7" y="38.9" class="st0" width="0.7" height="0.7"/>
<rect x="23.6" y="39" class="st0" width="0.7" height="0.7"/>
<rect x="25.1" y="39" class="st0" width="0.6" height="0.7"/>
<rect x="147.5" y="39" class="st0" width="0.7" height="0.6"/>
<rect x="37.5" y="39.2" class="st0" width="0.7" height="0.7"/>
<rect x="124.6" y="39.3" class="st0" width="0.7" height="0.7"/>
<rect x="100.3" y="39.4" class="st0" width="0.6" height="0.7"/>
<rect x="4.7" y="39.5" class="st0" width="0.7" height="0.7"/>
<rect x="9" y="39.5" class="st0" width="0.7" height="0.6"/>
<rect x="123" y="39.7" class="st0" width="0.7" height="0.7"/>
<rect x="136.7" y="39.7" class="st0" width="0.7" height="0.7"/>
<rect x="34.4" y="39.9" class="st0" width="0.7" height="0.7"/>
<rect x="101.9" y="39.9" class="st0" width="0.7" height="0.7"/>
<rect x="41.1" y="40" class="st0" width="0.7" height="0.7"/>
<rect x="16.8" y="40.3" class="st0" width="0.7" height="0.7"/>
<rect x="77.2" y="40.3" class="st0" width="0.7" height="0.6"/>
<rect x="103.8" y="40.3" class="st0" width="0.7" height="0.7"/>
<rect x="88.3" y="40.4" class="st0" width="0.7" height="0.7"/>
<rect x="146.5" y="40.5" class="st0" width="0.7" height="0.7"/>
<rect x="6.1" y="40.7" class="st0" width="0.7" height="0.7"/>
<rect x="32.5" y="40.7" class="st0" width="0.7" height="0.6"/>
<rect x="105.5" y="40.8" class="st0" width="0.7" height="0.7"/>
<rect x="117.7" y="40.8" class="st0" width="0.7" height="0.7"/>
<rect x="135.5" y="40.8" class="st0" width="0.6" height="0.7"/>
<rect x="38" y="40.9" class="st0" width="0.7" height="0.7"/>
<rect x="107.2" y="40.9" class="st0" width="0.7" height="0.6"/>
<rect x="109" y="41" class="st0" width="0.7" height="0.7"/>
<rect x="114.3" y="41" class="st0" width="0.7" height="0.6"/>
<rect x="116.1" y="41" class="st0" width="0.7" height="0.7"/>
<rect x="110.7" y="41" class="st0" width="0.7" height="0.7"/>
<rect x="112.6" y="41" class="st0" width="0.7" height="0.7"/>
<rect x="31" y="41.1" class="st0" width="0.7" height="0.7"/>
<rect x="89.5" y="41.2" class="st0" width="0.7" height="0.7"/>
<rect x="29.3" y="41.3" class="st0" width="0.6" height="0.7"/>
<rect x="20.3" y="41.4" class="st0" width="0.7" height="0.7"/>
<rect x="22.1" y="41.5" class="st0" width="0.7" height="0.7"/>
<rect x="133.8" y="41.5" class="st0" width="0.7" height="0.7"/>
<rect x="27.5" y="41.6" class="st0" width="0.7" height="0.7"/>
<rect x="41.5" y="41.6" class="st0" width="0.7" height="0.6"/>
<rect x="7.2" y="41.7" class="st0" width="0.6" height="0.7"/>
<rect x="25.6" y="41.8" class="st0" width="0.7" height="0.7"/>
<rect x="145.3" y="41.8" class="st0" width="0.7" height="0.7"/>
<rect x="91" y="42" class="st0" width="0.7" height="0.6"/>
<rect x="92.5" y="42.3" class="st0" width="0.7" height="0.7"/>
<rect x="132.2" y="42.3" class="st0" width="0.7" height="0.7"/>
<rect x="8.7" y="42.7" class="st0" width="0.7" height="0.7"/>
<rect x="79.9" y="42.7" class="st0" width="0.7" height="0.7"/>
<rect x="39" y="42.8" class="st0" width="0.7" height="0.7"/>
<rect x="130.5" y="42.9" class="st0" width="0.7" height="0.7"/>
<rect x="143.9" y="42.9" class="st0" width="0.7" height="0.7"/>
<rect x="94" y="43" class="st0" width="0.7" height="0.7"/>
<rect x="37.6" y="43.5" class="st0" width="0.7" height="0.7"/>
<rect x="42" y="43.5" class="st0" width="0.7" height="0.7"/>
<rect x="95.8" y="43.6" class="st0" width="0.7" height="0.7"/>
<rect x="128.9" y="43.6" class="st0" width="0.7" height="0.7"/>
<rect x="81.5" y="43.8" class="st0" width="0.7" height="0.6"/>
<rect x="10.2" y="44" class="st0" width="0.6" height="0.7"/>
<rect x="127.2" y="44" class="st0" width="0.7" height="0.7"/>
<rect x="97.4" y="44.2" class="st0" width="0.7" height="0.7"/>
<rect x="142.4" y="44.1" class="st0" width="0.7" height="0.7"/>
<rect x="34.2" y="44.3" class="st0" width="0.7" height="0.7"/>
<rect x="99.2" y="44.4" class="st0" width="0.7" height="0.6"/>
<rect x="32.5" y="44.6" class="st0" width="0.6" height="0.7"/>
<rect x="125.5" y="44.6" class="st0" width="0.7" height="0.6"/>
<rect x="83" y="44.7" class="st0" width="0.7" height="0.7"/>
<rect x="20.4" y="44.8" class="st0" width="0.6" height="0.7"/>
<rect x="123.7" y="44.8" class="st0" width="0.7" height="0.6"/>
<rect x="100.9" y="44.9" class="st0" width="0.7" height="0.7"/>
<rect x="141" y="45" class="st0" width="0.6" height="0.7"/>
<rect x="27.5" y="45.1" class="st0" width="0.7" height="0.7"/>
<rect x="102.6" y="45.2" class="st0" width="0.7" height="0.7"/>
<rect x="122" y="45.2" class="st0" width="0.7" height="0.7"/>
<rect x="42.5" y="45.3" class="st0" width="0.7" height="0.6"/>
<rect x="104.3" y="45.4" class="st0" width="0.7" height="0.7"/>
<rect x="84.5" y="45.5" class="st0" width="0.7" height="0.7"/>
<rect x="118.5" y="45.5" class="st0" width="0.7" height="0.7"/>
<rect x="120.2" y="45.5" class="st0" width="0.7" height="0.7"/>
<rect x="106.2" y="45.6" class="st0" width="0.7" height="0.7"/>
<rect x="107.8" y="45.8" class="st0" width="0.7" height="0.6"/>
<rect x="41.1" y="45.8" class="st0" width="0.7" height="0.7"/>
<rect x="116.7" y="45.8" class="st0" width="0.7" height="0.7"/>
<rect x="139.3" y="45.8" class="st0" width="0.6" height="0.7"/>
<rect x="109.7" y="45.9" class="st0" width="0.7" height="0.7"/>
<rect x="111.4" y="45.9" class="st0" width="0.7" height="0.7"/>
<rect x="113.2" y="45.9" class="st0" width="0.7" height="0.7"/>
<rect x="114.9" y="45.9" class="st0" width="0.7" height="0.7"/>
<rect x="14.9" y="46.3" class="st0" width="0.7" height="0.7"/>
<rect x="24" y="41.6" class="st0" width="0.7" height="0.6"/>
<rect x="137.8" y="46.6" class="st0" width="0.7" height="0.7"/>
<rect x="87.8" y="46.9" class="st0" width="0.7" height="0.6"/>
<rect x="136.2" y="47" class="st0" width="0.7" height="0.7"/>
<rect x="20" y="47.5" class="st0" width="0.7" height="0.7"/>
<rect x="89.5" y="47.5" class="st0" width="0.6" height="0.7"/>
<rect x="34.2" y="47.6" class="st0" width="0.7" height="0.7"/>
<rect x="134.6" y="47.8" class="st0" width="0.6" height="0.7"/>
<rect x="32.5" y="48.1" class="st0" width="0.6" height="0.7"/>
<rect x="27.1" y="48.3" class="st0" width="0.7" height="0.6"/>
<rect x="91.1" y="48.3" class="st0" width="0.7" height="0.7"/>
<rect x="132.9" y="48.3" class="st0" width="0.6" height="0.7"/>
<rect x="92.9" y="48.6" class="st0" width="0.7" height="0.7"/>
<rect x="131.3" y="48.8" class="st0" width="0.6" height="0.7"/>
<rect x="94.6" y="49.1" class="st0" width="0.7" height="0.7"/>
<rect x="129.6" y="49.3" class="st0" width="0.7" height="0.7"/>
<rect x="96.1" y="49.4" class="st0" width="0.7" height="0.7"/>
<rect x="127.9" y="49.6" class="st0" width="0.7" height="0.7"/>
<rect x="98.1" y="49.9" class="st0" width="0.7" height="0.7"/>
<rect x="126.1" y="49.9" class="st0" width="0.7" height="0.7"/>
<rect x="99.7" y="50.1" class="st0" width="0.7" height="0.7"/>
<rect x="122.6" y="50.3" class="st0" width="0.7" height="0.7"/>
<rect x="124.3" y="50.3" class="st0" width="0.7" height="0.7"/>
<rect x="101.3" y="50.4" class="st0" width="0.7" height="0.6"/>
<rect x="103.2" y="50.6" class="st0" width="0.7" height="0.7"/>
<rect x="104.9" y="50.6" class="st0" width="0.7" height="0.7"/>
<rect x="120.9" y="50.7" class="st0" width="0.7" height="0.7"/>
<rect x="119.2" y="50.8" class="st0" width="0.7" height="0.7"/>
<rect x="115.5" y="50.9" class="st0" width="0.7" height="0.7"/>
<rect x="106.6" y="51" class="st0" width="0.7" height="0.7"/>
<rect x="108.4" y="51" class="st0" width="0.7" height="0.6"/>
<rect x="117.4" y="51" class="st0" width="0.7" height="0.7"/>
<rect x="110.2" y="51.1" class="st0" width="0.7" height="0.7"/>
<rect x="112.1" y="51.1" class="st0" width="0.7" height="0.7"/>
<rect x="113.8" y="51.2" class="st0" width="0.7" height="0.7"/>
<rect x="95.8" y="1" class="st0" width="0.7" height="0.7"/>
<rect x="97.6" y="1" class="st0" width="0.7" height="0.6"/>
<rect x="102.9" y="1" class="st0" width="0.7" height="0.7"/>
<rect x="99.2" y="1.1" class="st0" width="0.6" height="0.7"/>
<rect x="86.2" y="46.4" class="st0" width="0.7" height="0.6"/>
<rect x="22.2" y="21.4" class="st0" width="0.7" height="0.6"/>
<rect x="17.7" y="11.2" class="st0" width="0.7" height="0.6"/>
<path class="st0" d="M21.2,10.5h0.7v0.7h-0.7V10.5z"/>
<rect x="27.5" y="17.8" class="st0" width="0.7" height="0.6"/>
<rect y="28.1" class="st0" width="0.7" height="0.6"/>
<path class="st0" d="M24.2,13.7h0.6c0.1,0.7,0.1,0.7-0.6,0.6V13.7z"/>
<rect x="14.3" y="12.1" class="st0" width="0.7" height="0.6"/>
<rect x="24.1" y="21.3" class="st0" width="0.7" height="0.6"/>
<rect x="0.4" y="24.5" class="st0" width="0.6" height="0.7"/>
<path class="st0" d="M1,23h0.6v0.6C1,23.8,0.9,23.7,1,23"/>
<path class="st0" d="M1,33.4h0.6V34C0.9,34.2,0.9,34.1,1,33.4"/>
<rect x="1.8" y="21.5" class="st0" width="0.6" height="0.6"/>
<path class="st0" d="M3.3,19.8v0.8c-0.2,0-0.4,0-0.6-0.1c-0.1-0.1-0.1-0.3,0-0.5C2.8,19.9,3.1,19.9,3.3,19.8"/>
<rect x="0.2" y="29.9" class="st0" width="0.6" height="0.7"/>
<path class="st0" d="M20.5,21.7c0.7-0.1,0.7,0,0.6,0.6h-0.3h-0.3L20.5,21.7z"/>
<path class="st0" d="M4.4,18.5v0.7c-0.2,0-0.5,0-0.6-0.1c-0.1-0.2-0.1-0.3,0-0.5C4,18.5,4.2,18.5,4.4,18.5"/>
<path class="st0" d="M25.8,18.5v-0.6c0.6-0.2,0.7-0.1,0.6,0.6H25.8z"/>
<rect x="38" y="15.7" class="st0" width="0.6" height="0.7"/>
<path class="st0" d="M13.4,13.4h-0.6c0-0.2,0-0.4,0-0.7h0.7L13.4,13.4z"/>
<rect x="38.6" y="12.1" class="st0" width="0.6" height="0.7"/>
<path class="st0" d="M22.4,14.5v-0.6H23v0.6H22.4z"/>
<rect x="38.2" y="13.9" class="st0" width="0.6" height="0.7"/>
<rect x="19.5" y="10.8" class="st0" width="0.6" height="0.7"/>
<rect x="34.8" y="13.6" class="st0" width="0.6" height="0.7"/>
<rect x="38.7" y="10.2" class="st0" width="0.6" height="0.7"/>
<rect x="37.2" y="10.1" class="st0" width="0.6" height="0.7"/>
<rect x="0.2" y="26.4" class="st0" width="0.6" height="0.6"/>
<path class="st0" d="M33.7,13.6c0,0.7,0,0.8-0.7,0.6c0-0.1,0-0.2,0-0.3c0-0.1,0-0.2,0-0.3H33.7z"/>
<path class="st0" d="M35.4,15.5c0-0.1,0-0.2,0-0.3s0-0.2,0-0.3H36v0.6H35.4z"/>
<rect x="81.2" y="12.3" class="st0" width="0.7" height="0.7"/>
<rect x="80.4" y="13.8" class="st0" width="0.7" height="0.7"/>
<rect x="80.1" y="15" class="st0" width="0.7" height="0.7"/>
<rect x="80.8" y="16.6" class="st0" width="0.7" height="0.7"/>
<rect x="81.9" y="18.1" class="st0" width="0.7" height="0.7"/>
<rect x="82.7" y="19.5" class="st0" width="0.7" height="0.7"/>
<rect x="83.8" y="20.9" class="st0" width="0.6" height="0.7"/>
<rect x="84.7" y="22.6" class="st0" width="0.7" height="0.7"/>
<rect x="37.9" y="22.9" class="st0" width="0.6" height="0.7"/>
<rect x="34.8" y="23.4" class="st0" width="0.7" height="0.6"/>
<rect x="31.5" y="24.1" class="st0" width="0.6" height="0.7"/>
<rect x="38.1" y="26.2" class="st0" width="0.7" height="0.6"/>
<rect x="32" y="27.5" class="st0" width="0.7" height="0.7"/>
<rect x="38.2" y="28" class="st0" width="0.7" height="0.7"/>
<rect x="35.4" y="28.7" class="st0" width="0.6" height="0.7"/>
<rect x="32" y="29.5" class="st0" width="0.7" height="0.7"/>
<rect x="35.7" y="30.4" class="st0" width="0.7" height="0.6"/>
<rect x="37.8" y="21.3" class="st0" width="0.7" height="0.7"/>
<rect x="31.6" y="26" class="st0" width="0.7" height="0.6"/>
<rect x="35" y="25.2" class="st0" width="0.7" height="0.6"/>
<rect x="34.9" y="19.7" class="st0" width="0.7" height="0.7"/>
<path class="st0" d="M32.1,22.9c-0.7,0.1-0.8,0.1-0.6-0.6h0.6V22.9z"/>
<rect x="34.7" y="21.7" class="st0" width="0.6" height="0.7"/>
<path class="st0" d="M38,24.4h0.2h0.4v0.7C37.9,25.2,37.9,25.2,38,24.4"/>
<path class="st0" d="M35.7,27.7h-0.6v-0.6C35.7,26.9,35.8,27,35.7,27.7"/>
<rect x="105.1" y="36.5" class="st0" width="0.7" height="0.7"/>
<rect x="85.4" y="36.2" class="st0" width="0.7" height="0.7"/>
<rect x="85.1" y="37.5" class="st0" width="0.7" height="0.7"/>
</svg>
