<svg xmlns="http://www.w3.org/2000/svg" viewBox="0 0 243.97 51.47"><defs><style>.cls-1{fill:#f3efe9;}</style></defs><title>losehill</title><g id="Layer_2" data-name="Layer 2"><g id="Layer_1-2" data-name="Layer 1"><path class="cls-1" d="M150.45,27.38h-4.57l.59-1.14c0-7.8,0-15.74,0-23.69,0-.78-.49-1.35-.43-2.13h4.45a9.72,9.72,0,0,0-.58,4.9,3.39,3.39,0,0,0,.89.24c2.3,0,4.61,0,6.88,0l.35-.35a9.4,9.4,0,0,0-.49-4.82h4.56a6.27,6.27,0,0,0-.59,2.53q0,11,0,22a18.34,18.34,0,0,0,.48,2.43h-4.52a3.44,3.44,0,0,0,.35-.76,11.23,11.23,0,0,0,.34-2.18c0-3.38,0-6.75,0-10.26a4,4,0,0,0-1-.27c-2.3,0-4.61,0-6.88,0l-.46.46v9.08a12.35,12.35,0,0,0,0,1.38,11.17,11.17,0,0,0,.3,1.26C150.25,26.49,150.34,26.9,150.45,27.38Zm7.3-18.66h-7.5l-.37.37V10.4l.39.39h7.44l.39-.39V9.08Z"/><path class="cls-1" d="M89.52,13.92h-8v3.67c0,2.51,0,5,0,7.53a15.92,15.92,0,0,0,.5,2.25H77.43c.94-1.66.7-3.41.7-5.13,0-6.1,0-12.2,0-18.29A5.12,5.12,0,0,0,77.3.45a13,13,0,0,1,2.44-.1c.76,0,1.52,0,2.39,0-1,1.67-.51,3.42-.64,5.17h8c0-1.21,0-2.38,0-3.55A7,7,0,0,0,89,.41c1.5-.16,3.1,0,4.79-.08A8.19,8.19,0,0,0,92.9,4.1q0,9.92,0,19.83a5.27,5.27,0,0,0,.57,2.69,2.12,2.12,0,0,1,.08.76H88.95a5.33,5.33,0,0,0,.55-1.19,8.2,8.2,0,0,0,0-1.53Zm0-5.21h-8a16.75,16.75,0,0,0,.08,2.05h7.92Z"/><path class="cls-1" d="M187.1,13.76c0,.61,0,1.23,0,1.84a13.22,13.22,0,0,1-.47,3.19,12,12,0,0,1-2.07,4.51,21.45,21.45,0,0,1-2.41,2.29,7.54,7.54,0,0,1-3.23,1.48,8.4,8.4,0,0,1-3.54.31,9.89,9.89,0,0,1-4.28-1.16,10.41,10.41,0,0,1-1.55-1.08,10.68,10.68,0,0,1-3.15-4.39c-.15-.45-.42-.86-.53-1.31-.16-.66-.22-1.35-.32-2s-.25-1.45-.3-2.18a10.74,10.74,0,0,1,0-2.15c.33-2.53.47-5.1,1.83-7.39a9.6,9.6,0,0,1,4.23-4.19,7.48,7.48,0,0,1,3.33-.88,8.18,8.18,0,0,0,1.41-.28,27.33,27.33,0,0,1,4.17.67,11.87,11.87,0,0,1,4.05,2.83,13.48,13.48,0,0,1,2.21,4.31,15.55,15.55,0,0,1,.34,1.87,8,8,0,0,1,.27,1.73C187.09,12.43,187.1,13.09,187.1,13.76Zm-3.39-.36a21.06,21.06,0,0,0-.26-3.35,11.77,11.77,0,0,0-1.58-3.51A6.42,6.42,0,0,0,178.71,4a10.41,10.41,0,0,0-2.21-.61,5.4,5.4,0,0,0-2.59.45A6.64,6.64,0,0,0,170,7.38,12.38,12.38,0,0,0,168.68,12a14.21,14.21,0,0,0,.22,5.1,16.39,16.39,0,0,0,1.57,4,7.07,7.07,0,0,0,3.72,2.79,10.84,10.84,0,0,0,2.09.16,6,6,0,0,0,5.5-2.95,10.24,10.24,0,0,0,1.94-6.26C183.69,14.44,183.71,14,183.71,13.4Z"/><path class="cls-1" d="M37.81,13.87c0,.61,0,1.23,0,1.84a14.59,14.59,0,0,1-2.51,7.56,8.48,8.48,0,0,1-2.89,2.62,9.17,9.17,0,0,1-4.25,1.28c-.65,0-1.34.37-2,.24-1.69-.32-3.44-.48-4.9-1.53-.48-.35-.92-.76-1.37-1.16a9.53,9.53,0,0,1-3.3-6c-.69-.57-.12-1.41-.45-2.12A5.51,5.51,0,0,1,16,14.52a9.82,9.82,0,0,1,0-2.3,11.18,11.18,0,0,0,.29-1.88,8.19,8.19,0,0,1,.3-1.72,11.57,11.57,0,0,1,.61-1.74,7.48,7.48,0,0,1,1.79-3c.43-.36.81-.79,1.2-1.19A7.47,7.47,0,0,1,25,.66,3.77,3.77,0,0,0,26.29.41,1.85,1.85,0,0,1,28,.56a.9.9,0,0,0,.57.1C30.2.47,31.53,1.27,32.8,2A9.88,9.88,0,0,1,37.2,8.59c.13.85.48,1.67.58,2.52A24.69,24.69,0,0,1,37.81,13.87Zm-3.39-.24c0-1.77.15-3.57-.92-5.15,0-1.08-.79-1.75-1.35-2.51a5.51,5.51,0,0,0-2.32-1.78c-.59-.25-1.22-.32-1.77-.55-1.59-.66-3,0-4.36.57a5.92,5.92,0,0,0-2.82,2.92,13.1,13.1,0,0,0-1.54,5.66,15.22,15.22,0,0,0,.06,3.68,21.08,21.08,0,0,0,.82,2.72,8.09,8.09,0,0,0,1.55,2.59,8.18,8.18,0,0,0,2.71,2,7,7,0,0,0,2.5.29,6,6,0,0,0,5.5-2.94,10.28,10.28,0,0,0,1.94-6.25C34.4,14.45,34.42,14,34.42,13.63Z"/><path class="cls-1" d="M232.4,24.05c2.45,0,4.86.05,7.26,0a8,8,0,0,0,2.17-.68,4.33,4.33,0,0,0,.6-.34v4.4h-14a5.32,5.32,0,0,0,.55-1.19,8.21,8.21,0,0,0,0-1.53c0-7.38,0-14.76,0-22.15a3,3,0,0,0-.66-2.11h14.12V4.75c-.44-.2-.77-.37-1.12-.51a5.43,5.43,0,0,0-2.1-.52c-2.25,0-4.5,0-6.81,0V5.18l.44.42H244V9.69a10.12,10.12,0,0,0-5.21-1c-2,0-4,0-6,0l-.41.41Z"/><path class="cls-1" d="M74.41,5.53v4L72,8.81a2.55,2.55,0,0,0-.71-.14H63.2l-.43.43V23.62l.44.44c2.76-.17,5.64.33,8.63-.38l.77-.61c.14.12.28.18.28.24,0,1.33,0,2.66,0,4.06H58.8a7,7,0,0,0,.84-3.45q.06-10.08,0-20.15A6.61,6.61,0,0,0,58.77.41H72.82V4.77c-.45-.22-.78-.41-1.13-.54a5.52,5.52,0,0,0-2.1-.51c-2.15,0-4.29,0-6.38,0-.7.59-.58,1.16-.11,1.79Z"/><path class="cls-1" d="M206.33,27.54a7,7,0,0,1-1.85-.45,38.28,38.28,0,0,1-4.72-2.76,55.58,55.58,0,0,1-4.82-4.63,17.26,17.26,0,0,1-2-2.83,24.92,24.92,0,0,1-2.7-5.65,7.37,7.37,0,0,1-.32-1.4c-.09-.76,0-1.54,0-2.3a12.37,12.37,0,0,1,.81-5,2.45,2.45,0,0,0-.21-2H196c-.51.74-1,1.45-1.46,2.14a6.65,6.65,0,0,0-1.34,4.06,17.23,17.23,0,0,0,2.89,8.81,24,24,0,0,0,2.69,3.47,23.84,23.84,0,0,0,3.58,2.8c0-.45.09-.77.09-1.08q0-7.77,0-15.53a20.22,20.22,0,0,0,0-2.46A16.62,16.62,0,0,0,201.88.4h4.59a5.75,5.75,0,0,0-.6,3.33c0,6.25,0,12.51,0,18.76C205.89,24.14,205.61,25.82,206.33,27.54Z"/><path class="cls-1" d="M225.26,22.24c-.19.38-.34.63-.45.89-.93,2.12-3.43,4.2-5.7,4.31-.67.51-1.45.28-2.18.3a3.46,3.46,0,0,1-2.18-.3c-2-.07-3.71-1.16-5.48-2a2.28,2.28,0,0,1-.42-.38l2.66-3.79A6,6,0,0,0,215.62,24c.42.11.91-.09,1.25.32a11.59,11.59,0,0,0,2.78-.71,5.1,5.1,0,0,0,1.84-6.27,12.18,12.18,0,0,0-2.18-3.4,14.24,14.24,0,0,0-1.93-1.64c-.63-.49-1.09-1.12-1.79-1.59a5.33,5.33,0,0,1-2-2.19,1.28,1.28,0,0,0-.39-.45c-.72-.57-.75-1.43-1-2.21a4.5,4.5,0,0,1,0-2.29,4.4,4.4,0,0,1,1.25-2.42A4.35,4.35,0,0,1,216.25.06a11.47,11.47,0,0,1,2.3,0,6,6,0,0,1,3.73,1.46l-2.14,2.93c-1.37-1-2.76-1.93-4.41-.5V5.58a21.74,21.74,0,0,0,2.61,2.72,45.36,45.36,0,0,1,3.86,3.63,14.52,14.52,0,0,1,2.88,4.65c.24.56-.08,1.13.29,1.57s.18,1,.19,1.46a2.19,2.19,0,0,1-.26,1.59C225.1,21.44,225.26,22,225.26,22.24Z"/><path class="cls-1" d="M39.3,25l2.63-3.69a12.94,12.94,0,0,0,1.15,1.18,9.18,9.18,0,0,0,1.46.93A3.14,3.14,0,0,0,46,24c.64,0,1.2.57,1.7.31A4.71,4.71,0,0,1,49.3,24c.57-.32,1.09-.57,1.56-.89a3.45,3.45,0,0,0,1.37-2.49,6.64,6.64,0,0,0-1.55-5.5,10.59,10.59,0,0,0-1.91-2.09c-1.35-.88-2.19-2.34-3.64-3.08-.68-1.06-1.7-1.87-2.19-3.09a5.72,5.72,0,0,1,.58-5.31,4.3,4.3,0,0,1,3-1.54C47.38,0,48.2,0,49,0a9,9,0,0,1,3.14,1,7.57,7.57,0,0,1,.7.39L51.68,2.94,50.62,4.36,47.76,3,46.19,4c-.32,1.31.62,2,1.1,2.85a3.09,3.09,0,0,0,1,1,31.56,31.56,0,0,1,5.26,5,9.26,9.26,0,0,1,2.2,4.61c.14.74.17,1.46.27,2.19.18,1.28-.45,2.39-.65,3.58a1.23,1.23,0,0,1-.32.63c-1.57,1.56-3,3.26-5.45,3.58a15.59,15.59,0,0,1-4.52,0,18,18,0,0,1-5.44-2.11C39.48,25.31,39.41,25.16,39.3,25Z"/><path class="cls-1" d="M123.07.4h5c-.25.84-.66,1.53-.82,2.33A6.91,6.91,0,0,0,127.09,4c0,6.62,0,13.23,0,20,.38,0,.77.05,1.15.06,1.23,0,2.46,0,3.69,0,1.68,0,3.37.1,4.89-1.16a11.28,11.28,0,0,1,.11,2.32c0,.71,0,1.42,0,2.18H123.12a5.33,5.33,0,0,0,.55-1.19,8.22,8.22,0,0,0,0-1.53c0-7.28,0-14.56,0-21.85A5.62,5.62,0,0,0,123.07.4Z"/><path class="cls-1" d="M4.61,24.05c2.24,0,4.44.08,6.63,0a13.34,13.34,0,0,0,2.81-.78,11.9,11.9,0,0,1,0,2c0,.71,0,1.42,0,2.18H.28A8.08,8.08,0,0,0,1.18,24q0-10.15,0-20.29A9.1,9.1,0,0,0,.27.41H5.46L4.61,2.07Z"/><path class="cls-1" d="M106.56.39h5.11l-.87,1.68c-.65,3.37-.28,6.83-.34,10.27s0,6.86,0,10.29c0,.48-.23,1.06.64,1.41,2,0,4.16.08,6.35,0a13.12,13.12,0,0,0,2.8-.79,12.31,12.31,0,0,1,0,2c0,.71,0,1.42,0,2.18H106.47l.55-1.06c.66-3.68.28-7.44.34-11.19s0-7.58,0-11.37a4.7,4.7,0,0,0-.09-1.19C107.08,1.86,106.81,1.16,106.56.39Z"/><path class="cls-1" d="M34.17,33.9c1,.64,2.12.89,2.82,1.78a9.27,9.27,0,0,1,1.79,3.57A16.88,16.88,0,0,1,39,44.5,6.31,6.31,0,0,1,37.8,48a13.52,13.52,0,0,1-1.92,2.11,10.54,10.54,0,0,1-2.09,1H31.26A5.55,5.55,0,0,1,26.1,48a8.46,8.46,0,0,1-1.22-4.57,21.05,21.05,0,0,1,0-2.61c.35-2,.72-4,2.37-5.46A5.1,5.1,0,0,1,31,33.89C32,34,33.11,33.9,34.17,33.9ZM31,49.29h.76a4.5,4.5,0,0,0,4.13-2.55,9.52,9.52,0,0,0,1-4.65,9.2,9.2,0,0,0-1.29-4.55A3.52,3.52,0,0,0,33.73,36a6.52,6.52,0,0,0-2.33-.29,3.06,3.06,0,0,0-2.46,1.07A7.25,7.25,0,0,0,27,41.39a16.58,16.58,0,0,0,0,2.45,6.24,6.24,0,0,0,1.65,3.92A9.23,9.23,0,0,0,31,49.29Z"/><path class="cls-1" d="M7.52,51.06A14.61,14.61,0,0,0,8,47c-.05-1.33,0-2.66,0-4l-.42-.42H2.48c-.22,4-.14,7.65.2,8.51H.06c.07-.73.18-1.4.18-2.07q0-6.61,0-13.22A15.57,15.57,0,0,0,0,33.92c.83,0,1.72,0,2.63,0-.43,1-.11,2-.27,3H8l-.41-3h2.5c-.1,1.08-.24,2.19-.29,3.3s0,2.36,0,3.54v3.38c0,1.18.05,2.36,0,3.54a12.26,12.26,0,0,0,.41,3.36Zm.4-11.88H2.4l.06,1.14H7.92Z"/><path class="cls-1" d="M97.67.39h4.85l-.66,1.5V26l.67,1.29c-.51.32-1,.14-1.5.17s-1.13,0-1.69,0H97.67a7.18,7.18,0,0,0,.78-4.16q0-9.53,0-19.05A6.41,6.41,0,0,0,97.67.39Z"/><path class="cls-1" d="M241.27,51.1h-2.74c.53-1.71.17-3.4.29-5.14h-5.1a12.06,12.06,0,0,0,.21,5.12c-.92.12-1.82,0-2.76.07.08-.6.2-1.15.23-1.7s0-1.23,0-1.84a13.77,13.77,0,0,1,0-1.84,16,16,0,0,1,.68-3.71,13.72,13.72,0,0,1,2.16-4.32c1.16-1.29,2.25-2.72,4-3.4a3.83,3.83,0,0,1,1.52-.45,6.69,6.69,0,0,0,1.52-.36c0,.34.1.69,0,.8-.38.33-.29.73-.29,1.12,0,4.72,0,9.43,0,14.15A8.52,8.52,0,0,0,241.27,51.1Zm-2.46-7.38c0-1.36,0-2.59,0-3.81a28.75,28.75,0,0,0-.09-3.72c-2.73,1.94-4,4.58-4.86,7.53Z"/><path class="cls-1" d="M86.39,51.11H77.3c.44-1.39.15-2.79.2-4.16s0-3,0-4.46,0-2.87,0-4.3A18.79,18.79,0,0,0,77.33,34h9.08v2.46c-2.07-.93-4.2-.61-6.42-.68l-.48,1.2h7.81V39.7a5.87,5.87,0,0,0-1.2-.55,6.7,6.7,0,0,0-1.38,0h-5v9.8H85.9l.49-.49Z"/><path class="cls-1" d="M143.4,47.13l1.32,1.52c2,1.18,3.38.4,4.75-.42,0-1.66,0-3.34,0-5,0-.07-.14-.15-.33-.34,1-.09,1.88,0,2.86-.05.13,1.09-.44,2.06-.32,3.12a26.47,26.47,0,0,1,0,3.17c-.85,1.08-2.13,1.38-3.35,2-.88,0-1.9,0-2.93,0-1.18-.06-3-1-3.41-2.12a14.59,14.59,0,0,0-.78-1.54c0-.71,0-1.58,0-2.45a4.17,4.17,0,0,1,1.27-3c.54-.52,1.05-1.07,1.59-1.62-1.78-1.24-2-1.61-1.93-4.1a4.88,4.88,0,0,1,2.41-2.39,16.75,16.75,0,0,0,2.15,0,8.11,8.11,0,0,1,2.14.42c.31.84-.61,1.27-.56,2a2.69,2.69,0,0,1-1.8-.61l-1.82.33-.46,1.85c.8,1.21,2,1.31,3,1.64l-.24,1.7C144.79,41.81,143.05,43.13,143.4,47.13Z"/><path class="cls-1" d="M186.77,36.36a2.47,2.47,0,0,0,.89,1.65c1,.95,2.15,1.83,3.12,2.84a8,8,0,0,1,2.3,3.81,5.38,5.38,0,0,1-1.16,5.23,5.14,5.14,0,0,1-3.82,1.58,8.79,8.79,0,0,1-5.61-1.67l1.64-2.46a4.81,4.81,0,0,0,4.63,1.94,3.73,3.73,0,0,0,2-2.15c0-.33,0-.84,0-1.35a3.33,3.33,0,0,0-1.09-2.62,18.41,18.41,0,0,0-3-2.76,5.83,5.83,0,0,1-1.76-2.18,1.76,1.76,0,0,1-.33-1.1,16.75,16.75,0,0,0,0-1.81c.12-.14.28-.24.3-.37a1.55,1.55,0,0,1,1.33-1.22,7.56,7.56,0,0,1,4.53.37c.13.06.21.21.36.38l-1.42,1.9c-.52-.67-1.32-.69-2-1Z"/><path class="cls-1" d="M207.7,33.9c2.29,0,4.44,0,6.59,0a2,2,0,0,1,2.34,1.71v1.82c-.6.52-.72,1.54-1.68,1.72h-4.61c-.28,1.69-.22,11.13.09,12h-2.7a10.63,10.63,0,0,0,.29-3.81c0-1.33,0-2.67,0-4v-4c0-1.33,0-2.67,0-4A7.79,7.79,0,0,0,207.7,33.9Zm2.51,3h4l.3-1.13h-4.35Z"/><path class="cls-1" d="M63.36,33.54v.83l-.76.76a2,2,0,0,1-1.59.63c-.71,0-1.43,0-2.27,0V37.1q0,5.22,0,10.45a7.79,7.79,0,0,0,.43,3.52c-.54,0-1,.06-1.41.07s-.91,0-1.36,0a24.48,24.48,0,0,0,.18-4.93c0-1.74,0-3.48,0-5.22V35.8c-1.3,0-2.64-.39-3.95.61-.1-.83,0-1.61-.06-2.51h4.92c1,0,2.05,0,3.07,0S62.42,33.66,63.36,33.54Z"/><path class="cls-1" d="M110.72,48.66V51.1h-8.9l.32-1c0-4.63,0-9.5,0-14.37a14.12,14.12,0,0,0-.24-1.79h2.9a5.59,5.59,0,0,0-.48,1.55c0,4.45,0,8.9,0,13.35A19.16,19.16,0,0,0,110.72,48.66Z"/><path class="cls-1" d="M206.21,27.41l.25.21-.1.1-.21-.25Z"/><path class="cls-1" d="M63.32,33.57l.21-.25.1.1-.25.21Z"/></g></g></svg>