<svg xmlns="http://www.w3.org/2000/svg" viewBox="0 0 193.45 229.62">
  <defs>
    <style>
      .cls-1 {
        fill: #f3efe9;
        fill-rule: evenodd;
      }
    </style>
  </defs>
  <title>htext</title>
  <g id="Layer_2" data-name="Layer 2">
    <g id="Layer_1-2" data-name="Layer 1">
      <g>
        <path class="cls-1" d="M76,71.11c-3.92,0-4.11-.28-7.44-2l-7.35,10a3.6,3.6,0,0,0,.76.67,17.12,17.12,0,0,1,2.18,2.16c.37.48.8,1.09,1.16,1.67a18.73,18.73,0,0,1,2.45,11.79c-.51,4.17-2.29,9.25-3.06,14.28-1.09,7.06-.72,13.62,4.53,19,.3.31.62.58.92.88a30.07,30.07,0,0,0,5.39,3.66,40.62,40.62,0,0,0,5,2.17c1.8.64,3.61,1.21,5.36,1.9a52.65,52.65,0,0,1,7.29,3.45c.39.22.75.45,1.1.69a10.26,10.26,0,0,0,1.15.76l3.2-2a54.82,54.82,0,0,1,7.17-3.21c4.34-1.66,7.44-2.3,11.73-5.05.28-.18.51-.32.79-.52.56-.4,1-.76,1.52-1.13a18,18,0,0,0,4.73-5.64c3.59-6.54,1.81-15,.11-21.91-.35-1.41-.68-2.73-1-4.13A19.61,19.61,0,0,1,125,84.48l1.45-2.23c.22-.28.41-.47.6-.71a19.62,19.62,0,0,1,2.53-2.46c-1.8-2.66-4.46-6-6.4-8.76-.18-.26-.28-.38-.44-.59a3.38,3.38,0,0,0-.5-.63,15.3,15.3,0,0,1-3.49,1.59,11.3,11.3,0,0,1-10-1.93c-.26-.21-.45-.4-.72-.6-.43-.31-.5-.52-.84-.52H83.72c-.56,0-.81.57-1.64,1.14a14,14,0,0,1-1.73,1.09A11.67,11.67,0,0,1,76,71.11m-.28-2.38a8.11,8.11,0,0,1-3.19-.39,10.21,10.21,0,0,1-1.67-.71A25.59,25.59,0,0,1,68,65.78l-10.32,14a16,16,0,0,1,3.05,2,14.64,14.64,0,0,1,4.76,10.54,21,21,0,0,1-.83,6.56c-1.06,4.09-2.85,11-2.85,15.21A23.56,23.56,0,0,0,62.93,123a20.44,20.44,0,0,0,7,9.58l2.93,2c.43.28.81.45,1.26.71,5.2,3,12.67,4.07,19,8.34a16.61,16.61,0,0,1,2.25,1.71c.36-.18,1.17-.95,1.56-1.22a42.42,42.42,0,0,1,9.3-4.67c1.35-.52,2.85-.91,4.22-1.42a42.82,42.82,0,0,0,7.67-3.54,24,24,0,0,0,7.34-6.61c.41-.62.72-1.1,1.08-1.76,2.38-4.28,2.78-9.16,2.32-14.17a68.28,68.28,0,0,0-1.76-9.46c-.72-3.17-1.78-6-1.78-9.58a15.58,15.58,0,0,1,2.29-8.13,13.47,13.47,0,0,1,3.8-3.93c.54-.35,1.15-.6,1.69-1a.52.52,0,0,0-.11-.27l-8.8-12c-.12-.17-.21-.25-.33-.41s-.15-.23-.31-.45l-.72-.91c-.24.18-.44.31-.66.49s-.48.36-.72.52a11.34,11.34,0,0,1-5.13,2,8.11,8.11,0,0,1-5-1.2c-.57-.33-1-.69-1.44-1a4.28,4.28,0,0,1-1.24-1.31l-26.22,0a15.75,15.75,0,0,0-1.31,1.28A9.67,9.67,0,0,1,75.7,68.73Z"/>
        <path class="cls-1" d="M77.56,84.36c-.89,3.35,3.79.6,3.78,4v27c0,1.73-.67,2.24-2.92,2.51-1,.13-1,.3-.89,1.83a24.13,24.13,0,0,0,3.68-.16,66.38,66.38,0,0,1,6.91,0,23.62,23.62,0,0,0,3.78.15c0-2.7-.15-1.22-2.85-2.32-.78-.32-.91-.67-1-1.64-.09-1.28-.1-12.17,0-13,1.48-.11,12.53-.06,14.68,0,.1.89,0,11,0,13.15a1.51,1.51,0,0,1-1.12,1.49,8.89,8.89,0,0,1-2.14.49c-.92.17-.64,1.73-.39,1.82s3.46-.18,3.7-.2a75.19,75.19,0,0,1,8.84.15l1.65,0c0-2.27,0-1.56-2-2.06a3.78,3.78,0,0,1-1.43-.65,2.11,2.11,0,0,1-.48-1.65v-27c0-1.41.69-1.73,2-2,1.88-.44,1.92.15,1.9-2.07-.58-.12-4.29.15-5,.15-1.88,0-4.22,0-6-.06L99,84.26c-.53,2.19.8,1.87,1.55,2,1,.25,2.2.48,2.2,1.73v12l-14.69,0c-.07-.74-.06-11.26,0-12.2.16-1.35,1.9-1.48,3.18-1.7.43-.08.56-.2.63-.6a8.93,8.93,0,0,0,0-1.27,26.16,26.16,0,0,0-3.85.16H81.45c-.62,0-3.38-.38-3.89-.1m-1.48-10.8a12.59,12.59,0,0,1-6.83-1.41l-4.84,6.56,2.77,3.34a19.18,19.18,0,0,1,2,4.23,19.78,19.78,0,0,1,1,5.15,25.57,25.57,0,0,1-.26,5.78c-.4,2.37-1.73,7.24-2.35,10-1.34,5.92-1.83,12.65,1.78,17.92a17.13,17.13,0,0,0,1.42,1.69l.35.41a23,23,0,0,0,3,2.4,35.15,35.15,0,0,0,8.37,4c.86.29,1.55.45,2.36.75s1.53.53,2.28.84a58.45,58.45,0,0,1,6.36,3c.32.18.63.35,1,.55,1.53.94.4.73,4.95-1.59,5.67-2.89,12.43-4,17.27-7.43a20.54,20.54,0,0,0,3.44-2.78,15,15,0,0,0,4-8.44,35.18,35.18,0,0,0-.79-11.19c-.68-3.39-1.73-6.63-2.32-10-1-5.93.12-12.43,4-17l1.45-1.62-4.72-6.48,0,0c-.59.19-1.21.56-2.41.91a13.13,13.13,0,0,1-10.82-1.7l-1.67-1.25c-.35-.28-.63-.19-1.22-.19H86.92c-.67,0-2.37-.16-2.78.13-.25.17-.48.47-.76.67C81.5,72.11,78.39,73.56,76.08,73.56Z"/>
        <path class="cls-1" d="M71.83,55c-1,.68-1,2.2.35,1.76a65.21,65.21,0,0,1,9.2-2.56c2.3-.4,4.38-.78,6.81-1a50.59,50.59,0,0,1,7.5-.44l2.17.06c4.59,0,11.89,1.38,16.36,2.56l4.85,1.53c.51,0,1.24-.86-.1-1.86a15.12,15.12,0,0,1,1.18-3.07c.14-.16.29-.19.41-.43.34-.67-.2-.8-.08-1.3.26-1.08,1.38-3.94,1.79-5.09.67-1.86,2.89-8.62,3.54-10.14-1.71-.06-3.33,2-4,3.45-1,2.07-1,3.77-1.19,6.35a8.8,8.8,0,0,0-2.15-2.27c-2.49-1.42-4.67,1.8-4,4a5.25,5.25,0,0,0,1.88,2.6c.08-.72.26-1.94,1.24-1.94,1.26,0,1.47,1.7,1.08,2.68-.18.46-.09.14-.42.43s-.13.72-.07,1.25a3.78,3.78,0,0,1-2.72,1c-1.38-.22-1.49-.87-2.4-1.49-2.58,1.52-4-.31-3.92-.92,0-.23.26-.39.28-.78s-.17-.42-.32-.75c.37-.41,1-.95,1.68-.64a.69.69,0,0,1,.39.8,3.21,3.21,0,0,1-.22.46l-.28.43c1.56,0,2.78-.71,2.73-2.38a1.38,1.38,0,0,0-1.18-1.31,3.89,3.89,0,0,0-2,.41c.54-1.44,1-1.43,1.39-4.22a12.07,12.07,0,0,0-.56-5,7.78,7.78,0,0,0-1.51,1.47A10.63,10.63,0,0,0,108,45.89c-.62-.65-.88-1.47-2-1.63s-1.85,1-1.85,2,.71,1.6,1,2.15c0-.87-.18-.78.25-1.46a1.41,1.41,0,0,1,1.71,1.48c-.18.18-.49.34-.56.7s.22.55.31.9c-2,1.59-2.59.82-4.12-.83-3.73,2.2-3.61-.8-4.24-1H92.25A2.11,2.11,0,0,1,90.69,50a3.86,3.86,0,0,1-2.57-.77,3,3,0,0,1-2.61,1.68c-.67,0-1.17-.56-1.55-.79.11-.44.42-.45.34-1s-.52-.49-.52-.95A1.33,1.33,0,0,1,85.45,47c.47.28.27.87.28,1.41a5,5,0,0,0,1-2.5,1.71,1.71,0,0,0-3-1c-.26.26-.62.8-.84,1,.26-3-.16-5.94-2.18-8.09a2.74,2.74,0,0,0-.87-.68,11.27,11.27,0,0,0-.6,4.88,11.44,11.44,0,0,0,.51,2.32,9.4,9.4,0,0,0,.39,1c.16.35.35.59.51,1a4.11,4.11,0,0,0-2-.42c-2.16.35-1.37,3.9,1.51,3.68-1.49-2.15.9-2.13,1.61-1-.19.35-.48.44-.28.94s.48.41.09,1c-1.2,2-3,.77-3.9.45a3.1,3.1,0,0,1-5,.4c.6-1.79-.69-.29-.7-2.64s2.62-2.11,2.5.32a3.5,3.5,0,0,0,1.37-1.38c1.67-2.45-.1-5.45-2.15-5.58a2.78,2.78,0,0,0-2.17,1c-.27.27-.5.48-.74.77s-.47.63-.63.89a15.88,15.88,0,0,0-1.3-6.62A6.91,6.91,0,0,0,67.38,36,4.45,4.45,0,0,0,65,34.9c.59,1.64,1.19,3.29,1.75,5S70,48.91,70.28,50c.18.68-.31.74,0,1.32s.43.23.69,1A24.89,24.89,0,0,1,71.83,55"/>
        <path class="cls-1" d="M43.05,70.39c-.16-.66-.26-2-.56-3.25-.44-1.84-2.61-7.51-3.58-8.06,0,0-2,4-2.42,5A24,24,0,0,0,34.92,70a14.53,14.53,0,0,0,.62,6.56,9.85,9.85,0,0,0,3,4.44,8.54,8.54,0,0,0,2.59-2.71,10.28,10.28,0,0,0,1.59-3.68,19.15,19.15,0,0,0,.33-3.26,2.32,2.32,0,0,1,.19.89,11.26,11.26,0,0,0,6.3-1.85c3.18-2.07,4.94-5.37,6.19-8.88a24.21,24.21,0,0,0,1.33-6.33,29,29,0,0,0-5.52,2.7,19.63,19.63,0,0,0-6.92,6.75,12.13,12.13,0,0,0-1.59,5.77"/>
        <path class="cls-1" d="M41.94,132.53l-1.27-1.83a11.75,11.75,0,0,0-3.51-2.9,20.84,20.84,0,0,0-7.36-2.26,24.67,24.67,0,0,0-6-.13,34.58,34.58,0,0,0,3.23,4.5c3.17,3.61,7.68,7.1,12.85,6.75a7.4,7.4,0,0,0,3.2-.74c.38.44.69,1.16,1.13,1.59A11.62,11.62,0,0,0,46.4,136c.36-.31.61-.6,1-.94a12.13,12.13,0,0,0,2.95-6.39,21.8,21.8,0,0,0-.22-7c-.22-1.19-1.14-5-1.72-5.72-.31.09-.4.31-.7.7-2.95,3.9-5.47,7.83-5.83,13-.07,1,.16,2,.11,2.83"/>
        <path class="cls-1" d="M34.19,101.61l.19,2.24c-1.68-2.62-1.84-3.29-4.61-5.61-1.28-1.08-4.73-3.62-6.34-4,.06,6.09,1.91,12.65,6.3,16.35.91.77,3.51,2.4,5.2,2.24a12.07,12.07,0,0,0,.48-5.77c-.1-.66-.34-1.19-.46-1.84,3.54-.33,7-3.13,8.6-6.3,2-4,2.54-7.91,2.49-12.5A23.87,23.87,0,0,0,41.9,89a30.71,30.71,0,0,0-3.55,3.24c-2.18,2.2-4.16,6.14-4.16,9.35"/>
        <path class="cls-1" d="M75.52,191.52c-3.58,1.16-3.86,11.13-.49,13.33a2.45,2.45,0,0,0,2.18.36,4.74,4.74,0,0,0,2.31-3,14.58,14.58,0,0,0,.52-4.77c0-2.61-1.5-6.93-4.52-5.95m-6.31,6.15v1.69A7.77,7.77,0,0,0,71,203.67a6.39,6.39,0,0,0,4.08,2.05c-3.25,1.36-1.5.54-3.45.54s-1.17,1-.84,1.12c1,.3,2-.36,2.5-.27,1.47.27,5.68,3.24,8.82,1.78,1.45-.67,1.65-1.9,2-3.59l-.46-.2c-.88,2-4,1.91-6,1.84l-3.28-.38,1.35-.55c1.41-.47,4.51.2,6.87-3.79a9,9,0,0,0,.89-4.84,6.77,6.77,0,0,0-3.69-5.81,7.9,7.9,0,0,0-3.84-.64A7,7,0,0,0,69.21,197.67Z"/>
        <path class="cls-1" d="M143.54,191.55c-1.28.45-1.88,1.64-2.31,3a15,15,0,0,0-.5,4.8,10.09,10.09,0,0,0,1.15,4.16c1.37,2.52,4.51,2.74,5.71-1.37a14.46,14.46,0,0,0,.5-4.77c0-2.52-1.54-6.91-4.55-5.83m-6.22,6c0,2.07-.06,3.81,1.33,5.68a6.51,6.51,0,0,0,3.12,2.16,7.64,7.64,0,0,0,7.95-1.8,8.93,8.93,0,0,0,1.49-8.2,6.52,6.52,0,0,0-6-4.48c-2.42,0-4,.11-5.91,2a2.36,2.36,0,0,0-.33.43c-.14.2-.22.27-.37.48A7.4,7.4,0,0,0,137.32,197.57Z"/>
        <path class="cls-1" d="M22.15,205.3c1.23,0,2.24-1.49,2.64-2.46a14,14,0,0,0,0-8.91c-.42-1-1.51-2.52-2.69-2.52h-.57c-1.36,0-2.26,1.55-2.69,2.62-.87,2.18-.9,6.78.26,9.09a3.32,3.32,0,0,0,3.09,2.18m-1.13.48h1.52a6.86,6.86,0,0,0,4.61-2.27,8.9,8.9,0,0,0,1.44-8.13,6,6,0,0,0-2.1-3.08c-2.46-2-8.33-2.29-10.71,1.91a7,7,0,0,0-1.07,4.12c0,3,1.06,5.48,3.56,6.71A7.53,7.53,0,0,0,21,205.78Z"/>
        <path class="cls-1" d="M93.16,42.05a1,1,0,0,1-.13-.17,5.68,5.68,0,0,0-2.25-2.29,3.17,3.17,0,0,0-2-.31,2.84,2.84,0,0,0-1.89,4.4c.17.27.34.46.52.71A8.11,8.11,0,0,0,89.48,46c-.09-.55-.46-1.1-.28-1.75.32-1.2,2.78-.59,3.25,1.8l3,0c-.3-2.46-.77-2.4-.77-6.08A21,21,0,0,1,95.47,34a24.32,24.32,0,0,1,.71,4.33,23.74,23.74,0,0,1-.27,5.6l-.46,2.09h3c.19-2.07,2.79-3.24,3.21-1.76a3.91,3.91,0,0,1-.27,1.68,6,6,0,0,0,1.71-1.26c3-3,.22-5.48-1.26-5.48-2.72,0-3.28,2-4,2.67.33-2.86,1.12-4.53.72-8.29a8,8,0,0,0-2.41-5.49c-.19-.18-.41-.32-.6-.51a6.07,6.07,0,0,0-2.22,2.44c-1.76,3.49-.89,8.57-.15,12"/>
        <path class="cls-1" d="M95.5,60.42a63.43,63.43,0,0,1,12.09,1.3,47.07,47.07,0,0,1,7.66,2.14c.74.27,1.78.86,2.55.29a1.38,1.38,0,0,0,0-2.19c-1.42-1.13-5.32-2.26-7.11-2.7a64.93,64.93,0,0,0-31.44.38,24.8,24.8,0,0,0-2.76.92,15.58,15.58,0,0,0-2.57,1.21,1.39,1.39,0,0,0-.25,2.37c.79.59,2-.06,2.82-.38a63.34,63.34,0,0,1,19-3.34"/>
        <path class="cls-1" d="M4.77,193.71v4.1c1.08,0,1.65.11,2.32-.51,1.1-1,1.14-5.12-.54-5.52s-1.78.45-1.78,1.93m0,4.58c0,1.66-.1,3.72.05,5.32.11,1.09.11,1.29,1.31,1.29,3.18,0,2.92-3.79,2.44-5.06S6.5,198.28,4.77,198.29ZM0,191.75c1.89,0,1.43.85,1.43,2.62v8.1c0,2.46.21,2.16-1.43,2.54v.55c2.27-.62,8.57,1,11.13-1.29a3.23,3.23,0,0,0,.62-4.4c-.92-1.19-2.25-1.69-4.17-2a4.78,4.78,0,0,0,3.3-2.09,2.88,2.88,0,0,0,.25-2.31c-.75-2.3-3.83-2.3-5.77-2.29L0,191.2Z"/>
        <path class="cls-1" d="M121.18,148.18a11.38,11.38,0,0,0,1.85,6.29c3.13-.92,5.83-4.61,6.79-7.8a25.86,25.86,0,0,0,.51-11.45,7.39,7.39,0,0,0-.33-1.58l-2.36,2-2.1,2.33c-2,2.34-4.37,6.61-4.36,10.22"/>
        <path class="cls-1" d="M141.82,126.78a12.2,12.2,0,0,0,3.75,8.76,9.14,9.14,0,0,0,2.53,1.7c1.14-1,2.07-3.74,2.26-5.37a15.42,15.42,0,0,0-.76-6.67,26.61,26.61,0,0,0-4-7.39,18.85,18.85,0,0,0-1.71-2.13,28,28,0,0,0-2,7.9,28.48,28.48,0,0,0-.06,3.2"/>
        <path class="cls-1" d="M38.9,121.64A11.32,11.32,0,0,0,44.44,117c2.33-4.13,2.37-8.09,1.72-12.64a17.84,17.84,0,0,0-.87-3.68.13.13,0,0,0,0-.07,29,29,0,0,0-3.67,4c-3,4-5.4,9.08-3.88,14.32a15.17,15.17,0,0,0,1.2,2.68"/>
        <path class="cls-1" d="M34.22,97.34a9.33,9.33,0,0,0,1.58-2.26c2.67-5,.61-10.61-2.13-15-.5-.8-1.1-1.5-1.62-2.25s-1-1.11-1.34-1.58c-.2-.3-.23-.4-.54-.48a28.56,28.56,0,0,0-1.6,12.61,13.3,13.3,0,0,0,2.64,6.41,9,9,0,0,0,3,2.52"/>
        <path class="cls-1" d="M101.29,163.64c.25,1.21,2.2,3,3.35,3.87,4.09,3,10.24,2.87,15,1.85,1.08-.23,2-.55,3-.73-.51-1-4.36-3.92-5.8-4.76-1.88-1.1-5.17-2.71-7.87-2.71A10.69,10.69,0,0,0,104,162a10.13,10.13,0,0,0-2.75,1.64"/>
        <path class="cls-1" d="M153.54,86a11.67,11.67,0,0,0-3.47-8.28c-.33-.33-.6-.63-.94-1a23.2,23.2,0,0,0-5.77-3.65l-4.12-1.55c-.39-.13-1.09-.3-1.39-.43A25,25,0,0,0,139.78,77a18.45,18.45,0,0,0,5,6.95,10.6,10.6,0,0,0,7.36,2.65c.25,0,.84,0,1.05,0,.46-.06.33-.16.33-.68"/>
        <path class="cls-1" d="M103.12,158.85a10.42,10.42,0,0,0,3.48,0c5.06-1,8.33-4.65,10.79-8.83a29.93,29.93,0,0,0,2.42-5.38,25.6,25.6,0,0,0-6.25,1.45,22,22,0,0,0-5.12,2.61,13.82,13.82,0,0,0-3.76,4,11.22,11.22,0,0,0-1.56,6.21"/>
        <path class="cls-1" d="M153.42,121.35a22.19,22.19,0,0,0,1.15-2.63c1.41-4.71-.66-10-3.5-13.75-.17-.21-.31-.36-.46-.58a24.46,24.46,0,0,0-3.64-4c-.52.56-1.1,5-1.19,6.2a20.62,20.62,0,0,0,.58,6.71A11.48,11.48,0,0,0,150.9,120a9.71,9.71,0,0,0,2.52,1.32"/>
        <path class="cls-1" d="M69.2,154.61c2.47-3.28,2.27-8.51.27-12.17a24.71,24.71,0,0,0-3.16-4.66l-.92-1.07a25.23,25.23,0,0,0-3.17-2.79c-.41.79-.71,5.31-.71,6.53,0,4.68,1.39,10.15,5.26,12.89a6.39,6.39,0,0,0,2.43,1.27"/>
        <path class="cls-1" d="M30.29,139.32a29.94,29.94,0,0,0,3.91,3.78l2.22,1.66c3.27,2.24,7.82,3.83,11.93,2.76a7.53,7.53,0,0,0,2.74-1.23c-.23-1.4-1.86-3.39-3-4.49a13.74,13.74,0,0,0-4.88-2.67,22.68,22.68,0,0,0-6.59-.79c-1.16,0-5.68.56-6.38,1"/>
        <path class="cls-1" d="M159,112.6c3.37,0,7.25-3.47,8.7-6.49a26.67,26.67,0,0,0,1.17-2.6c1.82-4.92,1.5-8.49,1.78-9.56-1.51.41-4.31,2.41-5.48,3.31-.21.16-.41.29-.59.45a22.6,22.6,0,0,0-3,2.94,14.16,14.16,0,0,0-2.77,5c-1.06,3.93,0,5.35.19,6.91"/>
        <path class="cls-1" d="M159.7,97.14a8.29,8.29,0,0,0,2.45-1.84,19.32,19.32,0,0,0,1.77-2.57c2.13-3.71,1.9-8.78,1.07-12.9-.15-.72-.32-1.4-.52-2.12s-.49-1.53-.59-2.15c-.67.33-2.95,3.36-3.53,4.28a24.73,24.73,0,0,0-2.58,5.23c-1.45,4.37-1.1,7.8,1.42,11.49a2.31,2.31,0,0,0,.51.58"/>
        <path class="cls-1" d="M154.83,124.49a10.82,10.82,0,0,0,6.6-.51,19.06,19.06,0,0,0,8.34-7.3c.46-.7,2.67-4.32,2.74-5.07-1.49-.22-5.27.67-6.59,1A21.3,21.3,0,0,0,160.6,115a15.28,15.28,0,0,0-3.07,2.58,11.19,11.19,0,0,0-2.7,6.95"/>
        <path class="cls-1" d="M157.47,104.9a10.67,10.67,0,0,0,.07-6.68A16.25,16.25,0,0,0,154,92.09a27.7,27.7,0,0,0-5.28-4.53,18.1,18.1,0,0,0-2.44-1.5c-.32,1.34.24,5.65.5,6.93.8,3.85,2.32,7.4,5.34,9.75a11.22,11.22,0,0,0,5.39,2.16"/>
        <path class="cls-1" d="M129.28,154.12c.21.51,1.52,1.3,2.12,1.62,2.91,1.56,6.54,1.52,9.59.78a28.8,28.8,0,0,0,9.47-4.67c.27-.19.39-.2.58-.47a24.18,24.18,0,0,0-4.62-1.8c-6.36-1.76-13.2-1.59-17.14,4.54"/>
        <path class="cls-1" d="M155.36,80.78a2,2,0,0,0,1-.83,12.44,12.44,0,0,0,.82-1.06,10.24,10.24,0,0,0,1.26-2.52c1.63-4.88.26-10.55-2.08-15L155,58.87c-.68.39-2.24,4.06-2.64,5.08-1.58,4-2.19,8.59-.42,12.59a12,12,0,0,0,1.65,2.59Z"/>
        <path class="cls-1" d="M137.36,146.93a7.82,7.82,0,0,0,1.79-1.87c3.62-5,2.07-12.51-.49-17.6a18.83,18.83,0,0,0-1.3-2.43,27.91,27.91,0,0,0-2.63,5,23.28,23.28,0,0,0-1.58,6.08,12,12,0,0,0,2.28,8.93,10.3,10.3,0,0,0,1.93,1.92"/>
        <path class="cls-1" d="M41.24,151.59a7.63,7.63,0,0,0,1,.78c.39.28.74.52,1.13.77,4.81,3.16,11.63,5.75,17.22,3a17.28,17.28,0,0,0,2.29-1.48,1.07,1.07,0,0,0-.3-.72c-.19-.25-.21-.33-.39-.56-3.88-4.86-9.67-5.2-15.49-3.78-1.17.28-4.88,1.46-5.5,2"/>
        <path class="cls-1" d="M115.94,159.11a2.61,2.61,0,0,0,.7,1.11,7.13,7.13,0,0,0,.84,1,17.42,17.42,0,0,0,2.12,1.54,13.64,13.64,0,0,0,5.69,1.71,23.67,23.67,0,0,0,6.64-.47,29.52,29.52,0,0,0,5.62-1.74c-.56-.89-4.27-3.15-5.55-3.88a19.7,19.7,0,0,0-7.28-2.29,11.19,11.19,0,0,0-5.8,1,9,9,0,0,0-2.26,1.42,2.75,2.75,0,0,0-.72.61"/>
        <path class="cls-1" d="M69.68,168.84c2,.33,2.94.91,6,1.22a22,22,0,0,0,6.7-.19,15.24,15.24,0,0,0,5.16-2.1l1-.78A9.36,9.36,0,0,0,91,163.83a11.65,11.65,0,0,0-12.08-1.45A24.17,24.17,0,0,0,72.74,166l-1.1.88a10.84,10.84,0,0,0-2,2"/>
        <path class="cls-1" d="M38.69,85.21l.05,1.62c3.53.22,6.48-.57,8.86-2.76,1-.91.24,0,1.47-1.45a11.62,11.62,0,0,0,.9-1.08,14.62,14.62,0,0,0,1.18-1.74c.46-.83.91-1.61,1.32-2.55a24.93,24.93,0,0,0,1.92-5.87c-2.12.8-2.75.78-5.4,1.93-4.17,1.79-7.78,4.61-9.59,8.88a12.44,12.44,0,0,0-.71,3"/>
        <path class="cls-1" d="M141.21,146c1,1,4.22,1.74,6,1.58a15.62,15.62,0,0,0,6.1-1.63A24.34,24.34,0,0,0,159,142a23.52,23.52,0,0,0,2.91-2.91c-.63-.46-5.18-1-6.29-1a21.39,21.39,0,0,0-6.67.74,11.78,11.78,0,0,0-6.49,4.63,9.23,9.23,0,0,0-1.28,2.5"/>
        <path class="cls-1" d="M149,71.92a14.09,14.09,0,0,0,0-3.67,13.2,13.2,0,0,0-3.25-6.46l-.92-1c-.54-.55-2.54-2.06-3.21-2.54a34.26,34.26,0,0,0-6.48-3.35,25.41,25.41,0,0,0,3.89,11.59A12.51,12.51,0,0,0,143,70.29,10.92,10.92,0,0,0,149,71.92"/>
        <path class="cls-1" d="M54.87,147.13a10.34,10.34,0,0,0,1.9-1.85,12.22,12.22,0,0,0,2.36-9,25.94,25.94,0,0,0-2.75-8.67,17.92,17.92,0,0,0-1.45-2.4,42.36,42.36,0,0,0-2.37,5,23.8,23.8,0,0,0-1.49,6.06,13.15,13.15,0,0,0,2,8.91,6,6,0,0,0,1.83,1.94"/>
        <path class="cls-1" d="M36,125a13.14,13.14,0,0,0,3.1-.27A11.58,11.58,0,0,0,38,120.18a12.56,12.56,0,0,0-4.7-5,23.92,23.92,0,0,0-8.5-3c-1.14-.19-2.35-.22-3.48-.38a11.7,11.7,0,0,0,.54,1.13,31.11,31.11,0,0,0,3.35,5.42,16,16,0,0,0,1.62,1.87,16.59,16.59,0,0,0,3.87,3.11A12.89,12.89,0,0,0,36,125"/>
        <path class="cls-1" d="M150.94,135.64c.09.21,0,.12.23.24a10.3,10.3,0,0,0,3.82.56,12.8,12.8,0,0,0,5.26-1.38,19.46,19.46,0,0,0,2.07-1.23l1.86-1.43a32,32,0,0,0,4.64-5.26,14.4,14.4,0,0,0,1.3-2,25.34,25.34,0,0,0-7.66.44,19.24,19.24,0,0,0-5.34,1.83,11.36,11.36,0,0,0-2.59,1.84,8.54,8.54,0,0,0-1.35,1.39,11.63,11.63,0,0,0-2.24,5"/>
        <path class="cls-1" d="M54.67,162.51a30.63,30.63,0,0,0,5,1.57,25.92,25.92,0,0,0,6.39.63c2.67,0,6.72-1.34,8.54-3.18.45-.45,1.63-1.59,1.71-2.23-3.15-3.09-7.65-3.58-11.84-2.43a25.31,25.31,0,0,0-7.7,3.9,13.06,13.06,0,0,0-2.13,1.74"/>
        <path class="cls-1" d="M89.17,159a11.44,11.44,0,0,0-5.34-10.11c-4.94-3.52-11.06-3.95-11.39-4.09.11,1.1,2.88,6.38,3.92,7.68,1.92,2.41,3.33,4.09,6.27,5.52a10.64,10.64,0,0,0,6.54,1"/>
        <path class="cls-1" d="M120.08,191.75c1.81,0,1.51.26,1.51,2.52l0,10.13c-.17.58-.93.5-1.45.63v.54a52.61,52.61,0,0,1,6.4,0c0-1.69-1.51.94-1.5-2.7a37.61,37.61,0,0,1,.06-4.29h5.09a50.78,50.78,0,0,1,0,5.79c-.22.62-.83.54-1.41.68v.55a47.34,47.34,0,0,1,6.3,0c.16-1.05-.48-.3-1.16-.85s-.37-5-.37-6-.07-5.44.12-6.25.69-.7,1.45-.7l0-.55h-6.29l0,.55c1.79,0,1.5.67,1.5,2.33a36.22,36.22,0,0,1,0,3.91L125,198a45.55,45.55,0,0,1,.08-5.71c.15-.63.72-.5,1.39-.58v-.55l-6.38,0Z"/>
        <path class="cls-1" d="M104.22,0H97.88V.53c1.9.17,1.49.48,1.49,2.39V6.81H94.21c0-1.32,0-2.61,0-3.89a11.74,11.74,0,0,1,.13-1.74C94.5.53,95,.55,95.68.55l0-.55H89.37V.55c.71,0,1.21,0,1.41.58s.08,8.83.08,10.09c0,2.59.09,2.21-1.5,2.6v.56a40.32,40.32,0,0,1,6.32,0v-.48c-.88-.51-1.49.5-1.49-2.45,0-1.34,0-2.69,0-4l5.17,0c0,1.4,0,2.83,0,4.23s.32,1.93-1,2.14c-.55.09-.51,0-.51.61a37,37,0,0,1,4.69,0l1.56-.05.08,0c0-1.41-1.45.93-1.49-2.64,0-1.44-.08-9.34.12-10.29.15-.75.56-.75,1.35-.75Z"/>
        <path class="cls-1" d="M168.38,191.74c1.71.08,1.57.21,1.57,2.44,0,1.17.09,9.65-.08,10.16-.39,1.13-1.52-.05-1.48,1.23a16.24,16.24,0,0,1,2.81-.06c1.44,0,7.58-.12,8.56.05a28,28,0,0,1-.08-5l-.6,0c-.35,1.23-.46,4.26-3.35,4.28s-2.43.69-2.44-6.32c1.93-.14,2.71,1,3,2.63h.61a45.19,45.19,0,0,1-.08-5.06c0-.09,0-.32,0-.38s0-.18,0-.18c-.05-.27,0-.06-.08-.24-.69,0-.38-.12-.7.85a4.14,4.14,0,0,1-.5,1c-.51.71-1,.83-2.16.78a49.22,49.22,0,0,1,.07-5.69c.25-1,3.43-.71,4.31.38a6.66,6.66,0,0,1,.94,2.7c.07.19,0,.11.11.23h.38l.1-.5a27,27,0,0,1,.13-3.93H168.42Z"/>
        <path class="cls-1" d="M100.67,191.35v.4c1.94,0,1.5.75,1.5,2.52,0,1,.07,9.82,0,10.13-.19.54-.95.51-1.44.63v.54c.62-.15,4.66-.13,5.57-.13,2,0,3.81,0,5.77.07a25.08,25.08,0,0,1,0-4.89h-.59c-.76,2.74-.76,4.66-5,4.28-.49,0-.55-.13-.66-.36a26.38,26.38,0,0,1-.1-5.95,2.4,2.4,0,0,1,2.76,1.88c.26.79,0,.76.8.76l-.16-5.16v-.38c-.06-.31,0-.2-.2-.32-.52-.09-.35.85-1.09,1.87-.53.72-1,.88-2.16.76a31.81,31.81,0,0,1,0-3.25c0-.78-.12-2.43.44-2.85a4.84,4.84,0,0,1,3.68.5,5,5,0,0,1,1.29,3.24h.61a25.47,25.47,0,0,1,.09-4.45c-1.23.15-10.43,0-10.73,0s0,0-.22.14"/>
        <path class="cls-1" d="M117.42,0h-11V.52C108,.69,108,.46,108,3.11c0,1.23.13,9.54-.1,10.1s-.89.4-1.4.65v.47c1.11,0,10.45-.16,11.38,0a19.27,19.27,0,0,1-.13-4.92l-.62-.06c-.6,2.53-.66,4.31-3.87,4.3-2.09,0-1.92,0-1.92-2.19,0-1.37,0-2.77,0-4.14a2.54,2.54,0,0,1,2.41,1,3.44,3.44,0,0,1,.51,1.65l.65,0c-.15-.69,0-2-.13-2.83a21.4,21.4,0,0,1,.09-3l-.62,0c-.75,1.92-.48,2.63-2.91,2.64,0-1.33,0-2.66,0-4,0-1.78-.13-2.35,1.74-2.35,2.41,0,3.23,1.34,3.59,3.37.1.57,0,.52.55.5.11-.3,0-2.86.24-4.35"/>
        <path class="cls-1" d="M46.13,196.16h.54a11.42,11.42,0,0,1,1.09-3.07c.66-1.08,1.24-1.2,2.76-1.35.1,1.1,0,9.94,0,11.86,0,1.5-.89,1.28-1.71,1.34-.5.05-.4.13-.39.63.44-.12,7.11-.15,7.62,0,0-1-.35-.44-1.26-.66-.54-.14-.77-.47-.84-1.11-.11-1-.16-11.19-.05-12,1.55,0,2.24.3,2.87,1.27a9.58,9.58,0,0,1,1.09,3.14l.61,0a33.2,33.2,0,0,1,.05-5H46.07Z"/>
        <path class="cls-1" d="M87.31,0H74.79c0,.84.14,1.5.14,2.36S74.87,4.2,75,5h.47c.15-.31.35-1.25.46-1.59a5.33,5.33,0,0,1,.65-1.52A2.94,2.94,0,0,1,79.35.5v8c0,1.33.05,2.74,0,4.06,0,.69-.24,1-.82,1.14-.76.21-1.59-.28-1.3.7.4-.2,6.54-.09,7.57-.07,0-1-.42-.36-1.28-.64-.59-.19-.73-.55-.77-1.23-.14-2.35-.13-9.72-.06-11.95,3.58-.09,3.51,3.57,4,4.48h.48a30.39,30.39,0,0,1,.09-5"/>
        <path class="cls-1" d="M154,196.17h.6c.06-1.74,1.22-4.71,3.86-4.4.17,2.46,0,8.47,0,11.55,0,2-1.24,1.47-2.16,1.69v.55a68.52,68.52,0,0,1,7.62,0l0-.51c-.56-.19-1.1,0-1.6-.3s-.44-.82-.51-1.47c-.12-1.23-.09-10.59,0-11.48,2.94-.22,3.45,2.06,4,4.4h.61a30.64,30.64,0,0,1,.05-5H153.9Z"/>
        <path class="cls-1" d="M31,191.26v.49c1.88,0,1.5.47,1.5,3.65,0,1.74.06,3.48.07,5.19,0,3.47,1.57,5.19,5.15,5.19s5-1.9,5-5.38a75.47,75.47,0,0,1,.16-7.58c.33-1.49,1.26-.67,1.34-1.28l0-.33h-4v.47c.89.33,2-.19,2,2.6,0,2.27.27,6.72-.47,8.6A2.86,2.86,0,0,1,39.13,205c-3.55.28-3.3-2.77-3.3-5.79,0-1.16-.07-5.7.11-6.67s.75-.56,1.53-.82v-.45c-.18,0-5.49-.11-6.24,0Z"/>
        <path class="cls-1" d="M85.55,191.69c1.6.43,1.5-.59,1.5,3.62,0,1.7.07,3.49.07,5.09,0,3.39,1.26,5.39,5,5.38a7.66,7.66,0,0,0,2.29-.26c2.07-.63,2.85-2.8,2.87-4.93,0-1.72,0-3.46,0-5.19,0-2.66-.18-3.4,1.5-3.69v-.5H94.68l0,.47c.9.33,2-.08,2,2v7.16c0,1.66-.89,4.09-3.14,4.09h-.66c-2.17,0-2.54-2.41-2.54-4.47,0-1.16-.16-7.65.24-8.33s.85-.31,1.4-.47v-.46l-6.4,0Z"/>
        <path class="cls-1" d="M193.45,205.56V200.4l-.63,0c-.7,3.23-1.54,4.74-5,4.47-.54,0-.67-.32-.74-.84-.13-1-.14-9.62,0-10.84.14-1.53.16-1.3,1.59-1.51l0-.51-6.44,0v.58c.72,0,1.37-.07,1.49.66v10.54c0,.6.15,1.53-.27,1.8-.78.51-1.26-.26-1.22.83.68-.15,10.77-.15,11.3,0"/>
        <path class="cls-1" d="M44.68,228.3v.37c1.7,0,3.51.38,4.05-1,.46-1.22-.09-2.58-2.17-2.58H44.68Zm0-4.13h1.89c1.08,0,1.83-.19,1.87-1.43s-.68-1.7-1.87-1.7H44.68Zm-1,5.45h4.18c.37-.23,2-.56,2.09-2.28a2.51,2.51,0,0,0-1.43-2.78,2.21,2.21,0,0,0,1-1.86c.15-3-3.36-2.77-5.88-2.6Z"/>
        <path class="cls-1" d="M60.55,191.71c.9.15,1.57,0,1.57,1v11c0,1.31-.7,1-1.5,1.24l-.07.52c2.75-.08,3.51-.12,6.31,0,.41-1.41-1.47.68-1.47-2.59,0-1.46-.15-9.95.2-10.76.23-.51.7-.34,1.3-.48v-.48l-6.33,0Z"/>
        <path class="cls-1" d="M94.48,159.12a25.2,25.2,0,0,0-3.46.51L93.44,162l-.5,3.48c.56-.2,2.69-1.5,3-1.51s2.49,1.32,3.13,1.51L98.54,162c.56-.74,2.11-1.88,2.45-2.45-.58-.15-3.27-.39-3.45-.57-.27-.47-.54-1-.78-1.54a15.9,15.9,0,0,0-.76-1.55c-.34.83-1.37,2.68-1.52,3.19"/>
        <path class="cls-1" d="M99,229.62h1.3l1-3.85a28.19,28.19,0,0,0,1-3.83l2,7.68h1.37c0-.56,2.3-8.7,2.52-9.54l-1.14,0L106,224c-.16.62-.91,3.74-1.05,4-.32-1.4-.68-2.61-1.06-4-.33-1.19-.78-2.68-1-3.94h-1c-.39,1.79-1.1,4.16-1.61,6a19.35,19.35,0,0,1-.55,2l-2-8-1.11,0Z"/>
        <path class="cls-1" d="M58.74,225.65l3,0-1.49-4.21c-.23.7-.46,1.42-.71,2.09s-.6,1.43-.81,2.1m-2.53,4h1.14a25.68,25.68,0,0,1,1.1-3H62.1c.19.53.34,1,.53,1.47a9.46,9.46,0,0,1,.51,1.53h1.15l-2.67-7.22c-1-2.7-.58-2.33-1.85-2.29-.24.34-1.51,4-1.81,4.78C57.34,226.48,56.84,228.05,56.21,229.62Z"/>
        <path class="cls-1" d="M71,229.62h1.09v-4.47l1.46,0,2.69,4.5H77.5a27.16,27.16,0,0,0-1.45-2.42c-.29-.48-.49-.8-.74-1.24-.14-.24-.22-.4-.35-.6-.52-.83-.59-.52.19-1.76.58-.94,1.77-2.69,2.16-3.52h-1a42.18,42.18,0,0,0-2.64,4.1l-1.56-.06v-4H71Z"/>
        <polygon class="cls-1" points="84.39 229.62 90.12 229.62 90.11 228.67 85.49 228.67 85.49 225.26 89.09 225.26 89.1 224.31 85.49 224.31 85.49 221.04 89.84 221.04 89.85 220.08 84.39 220.11 84.39 229.62"/>
        <polygon class="cls-1" points="115.25 229.62 120.91 229.62 120.91 228.67 116.28 228.63 116.28 225.27 119.87 225.26 119.89 224.31 116.28 224.28 116.27 221.04 120.64 221.01 120.64 220.09 115.25 220.08 115.25 229.62"/>
        <polygon class="cls-1" points="140.52 229.62 145.97 229.62 145.97 228.67 141.62 228.66 141.62 220.08 140.52 220.08 140.52 229.62"/>
        <polygon class="cls-1" points="128.26 229.62 133.65 229.62 133.65 228.67 129.29 228.63 129.28 220.08 128.26 220.08 128.26 229.62"/>
        <path class="cls-1" d="M105,54.24a1.85,1.85,0,0,0,1.42,3.42A1.85,1.85,0,0,0,105,54.24"/>
        <path class="cls-1" d="M95.2,53.49a1.83,1.83,0,0,0,1.25,3.45c2.15-.77,1.11-4.31-1.25-3.45"/>
        <path class="cls-1" d="M113.75,58.44c0,2.18,3.66,2.4,3.63-.09a1.82,1.82,0,1,0-3.63.09"/>
        <path class="cls-1" d="M75.52,56.44a1.82,1.82,0,1,0,1,3.52c2.13-.57,1.39-4.11-1-3.52"/>
        <path class="cls-1" d="M86,54.15a1.83,1.83,0,1,0-.47,3.62c2.64.18,2.42-3.62.47-3.62"/>
        <path class="cls-1" d="M98.81,55.21c1.26.72,1.47.88,1.82,2.06a2.88,2.88,0,0,1,2.06-1.84s0-.07-.06,0l-.11-.09-.06,0a6,6,0,0,1-1.2-1.06c-.21-.26-.16-.36-.29-.6-.27.06-.26.18-.44.45a4.14,4.14,0,0,1-1.72,1.17"/>
        <path class="cls-1" d="M108.87,56.48c.47.53,1.55.93,1.43,2.44.67-.78.7-1.56,2.38-1.57,0,0,0-.08-.05-.06l0-.07c-.62-.76-1.1-.6-1.43-2-.88.29.08.49-2.29,1.27"/>
        <path class="cls-1" d="M88.91,55.53c1,.39,1.77.61,2,1.85.74-2.14.83-1.56,1.78-2.24-.65-.47-1.61-.54-2-1.55-.51.29-.2.41-.8,1.07-.15.15-.31.33-.48.47s-.35.17-.54.4"/>
        <path class="cls-1" d="M79.08,57.31c.31.19.88.24,1.32.49.66.37.45.46.84,1,.34-1.15.52-2,1.57-2.4-2.46-.69-1.74-1-2.3-1.2-.59,1.08-.33,1.11-1.28,2-.12.1-.06,0-.15.14"/>
      </g>
    </g>
  </g>
</svg>
