<svg xmlns="http://www.w3.org/2000/svg" viewBox="0 0 137.5 93.33">
  <defs>
    <style>
      .cls-1 {
        fill: #f3efe9;
      }
    </style>
  </defs>
  <title>lcg-arise</title>
  <g id="Layer_2" data-name="Layer 2">
    <g id="Layer_1-2" data-name="Layer 1">
      <g id="Layer_1-2-2" data-name="Layer 1-2">
        <path class="cls-1" d="M6.85,72.68v.72a.24.24,0,0,1-.23.24H.24A.26.26,0,0,1,0,73.39V62.49a.24.24,0,0,1,.24-.26h1a.24.24,0,0,1,.23.25h0v9.94H6.62a.24.24,0,0,1,.23.25Z"/>
        <path class="cls-1" d="M14.47,70.35a.25.25,0,0,1-.24.24H9.08a2.35,2.35,0,0,0,2.22,2.1,3,3,0,0,0,2-.77.22.22,0,0,1,.34,0l.36.44c.11.16.1.23,0,.34a4.13,4.13,0,0,1-2.79,1,3.58,3.58,0,0,1,0-7.15C13.41,66.61,14.47,68.15,14.47,70.35ZM9.08,69.6h4a2,2,0,0,0-2-1.91A2.09,2.09,0,0,0,9.08,69.6Z"/>
        <path class="cls-1" d="M22.29,67V73.4a.24.24,0,0,1-.23.24h-.42a.53.53,0,0,1-.46-.31L21,72.86a2.57,2.57,0,0,1-2,.91c-2.07,0-3.21-1.56-3.21-3.57S16.9,66.61,19,66.61a2.5,2.5,0,0,1,1.89.81l.33-.42a.59.59,0,0,1,.39-.26h.52A.24.24,0,0,1,22.29,67ZM21,70.21c0-1.45-.34-2.49-2-2.49-1.25,0-2,1-2,2.48s.8,2.48,1.94,2.48C20.57,72.68,21,71.75,21,70.21Z"/>
        <path class="cls-1" d="M30.41,62.36v11a.24.24,0,0,1-.23.24h-.44a.43.43,0,0,1-.39-.31l-.24-.52a2.78,2.78,0,0,1-2.15,1c-1.92,0-3.11-1.55-3.11-3.55S25,66.61,27,66.61a2.84,2.84,0,0,1,2.1.85v-5.1a.24.24,0,0,1,.24-.26h.86A.24.24,0,0,1,30.41,62.36Zm-1.3,7.71c0-1-.23-2.35-1.87-2.35s-2,1-2,2.43.73,2.53,2.1,2.53C28.85,72.68,29.11,71.49,29.11,70.07Z"/>
        <path class="cls-1" d="M32.43,63.24a.82.82,0,1,1,.84.8h0A.82.82,0,0,1,32.43,63.24Zm.13,10.17V67a.27.27,0,0,1,.24-.28h.88a.24.24,0,0,1,.24.26v6.42a.23.23,0,0,1-.23.23H32.8A.24.24,0,0,1,32.56,73.41Z"/>
        <path class="cls-1" d="M42.62,69.68V73.4a.26.26,0,0,1-.26.24H41.5a.22.22,0,0,1-.24-.2V69.78c0-1.32-.39-2-1.86-2s-2,.77-2,1.48V73.4a.22.22,0,0,1-.2.24h-.94c-.16,0-.23-.08-.23-.24V67c0-.11.07-.28.23-.28H37a.34.34,0,0,1,.28.28l.16.52a3,3,0,0,1,2.28-.93C41.66,66.61,42.62,67.64,42.62,69.68Z"/>
        <path class="cls-1" d="M50.7,67v7.8A2.93,2.93,0,0,1,48,77.92a3.23,3.23,0,0,1-.44,0,3.35,3.35,0,0,1-3-1.66.2.2,0,0,1,0-.23l.52-.51a.21.21,0,0,1,.3,0h0a2.4,2.4,0,0,0,2.15,1.24,1.83,1.83,0,0,0,1.92-2.1V72.87a2.58,2.58,0,0,1-2,.86c-2.12,0-3.21-1.71-3.21-3.62s1.12-3.54,3.19-3.54a2.5,2.5,0,0,1,1.86.75l.28-.36a.59.59,0,0,1,.39-.26h.6a.24.24,0,0,1,.24.24A.17.17,0,0,1,50.7,67Zm-1.3,3.18c0-1.32-.18-2.46-2-2.46-1.27,0-1.94,1-1.94,2.41s.77,2.54,2,2.54c1.66,0,1.94-1,1.94-2.5Z"/>
        <path class="cls-1" d="M62.58,67.09,57,78.07a.23.23,0,0,1-.21.13H56a.24.24,0,0,1-.24-.22.24.24,0,0,1,0-.12l2.33-4.61-2.85-6.16a.24.24,0,0,1,.12-.32l.09,0h.88c.13,0,.21.08.28.24l2.17,4.89,2.53-5a.25.25,0,0,1,.23-.15h.8a.24.24,0,0,1,.24.24A.27.27,0,0,1,62.58,67.09Z"/>
        <path class="cls-1" d="M63.33,70.21A3.59,3.59,0,1,1,67,73.76h0a3.55,3.55,0,0,1-3.6-3.5Zm5.85,0a2.26,2.26,0,0,0-4.5-.43,3.08,3.08,0,0,0,0,.43,2.26,2.26,0,0,0,4.5.42A2.94,2.94,0,0,0,69.18,70.21Z"/>
        <path class="cls-1" d="M78.58,67v6.4a.24.24,0,0,1-.24.23h-.41a.41.41,0,0,1-.36-.23l-.37-.59a3,3,0,0,1-5.13-1.94V67a.25.25,0,0,1,.22-.28h.91a.26.26,0,0,1,.24.28h0v3.75a1.77,1.77,0,0,0,1.62,1.91,1.5,1.5,0,0,0,.3,0,1.64,1.64,0,0,0,1.85-1.4s0,0,0-.08V67c0-.2.1-.28.24-.28h.88a.26.26,0,0,1,.24.28Z"/>
        <path class="cls-1" d="M85.25,67.4l-.41.67a.21.21,0,0,1-.29.07h0a2,2,0,0,0-1.21-.42,1.47,1.47,0,0,0-1.55,1.39V73.4a.24.24,0,0,1-.24.24h-.88a.23.23,0,0,1-.24-.22V67a.25.25,0,0,1,.22-.28h.56c.16,0,.26.13.33.28l.1.26a2.48,2.48,0,0,1,1.81-.67,3,3,0,0,1,1.73.49.2.2,0,0,1,.1.26Z"/>
        <path class="cls-1" d="M89.47,67.93A5.84,5.84,0,0,1,95.3,62.1a5.39,5.39,0,0,1,4.29,2,.21.21,0,0,1,0,.31L99,65a.22.22,0,0,1-.31,0l0,0a4.28,4.28,0,0,0-3.36-1.7,4.55,4.55,0,0,0-4.4,4.63,4.63,4.63,0,0,0,4.4,4.63,4.28,4.28,0,0,0,3.44-1.81.24.24,0,0,1,.34,0l0,0,.55.54a.24.24,0,0,1,0,.33,5.46,5.46,0,0,1-4.38,2.18A5.86,5.86,0,0,1,89.47,67.93Z"/>
        <path class="cls-1" d="M107.58,69.79v3.6a.23.23,0,0,1-.22.24h-.91a.24.24,0,0,1-.24-.24V69.82c0-1.34-.62-2.1-1.69-2.1a1.58,1.58,0,0,0-1.75,1.41.15.15,0,0,0,0,.07v4.19a.23.23,0,0,1-.22.24h-.91a.24.24,0,0,1-.24-.24v-11a.24.24,0,0,1,.22-.26h.92a.23.23,0,0,1,.23.23v5.11a2.75,2.75,0,0,1,2.1-.83C106.3,66.61,107.58,67.54,107.58,69.79Z"/>
        <path class="cls-1" d="M116,67v6.4a.24.24,0,0,1-.24.23h-.41a.41.41,0,0,1-.36-.23l-.37-.59a3,3,0,0,1-5.13-1.94V67a.25.25,0,0,1,.22-.28h.91a.26.26,0,0,1,.24.28h0v3.75a1.77,1.77,0,0,0,1.62,1.91,1.5,1.5,0,0,0,.3,0,1.64,1.64,0,0,0,1.85-1.4s0,0,0-.08V67c0-.2.1-.28.24-.28h.88A.26.26,0,0,1,116,67Z"/>
        <path class="cls-1" d="M122.62,67.4l-.41.67a.21.21,0,0,1-.29.07h0a2,2,0,0,0-1.21-.42,1.47,1.47,0,0,0-1.55,1.39V73.4a.24.24,0,0,1-.24.24H118a.23.23,0,0,1-.24-.22V67a.25.25,0,0,1,.22-.28h.56c.16,0,.26.13.33.28l.1.26a2.48,2.48,0,0,1,1.81-.67,3,3,0,0,1,1.73.49.19.19,0,0,1,.14.24Z"/>
        <path class="cls-1" d="M123.22,70.21a3.65,3.65,0,0,1,3.65-3.6,3.55,3.55,0,0,1,2.77,1.22.26.26,0,0,1,0,.31l-.51.52a.2.2,0,0,1-.29,0l0,0a2.21,2.21,0,0,0-1.89-.93,2.5,2.5,0,0,0,0,5,2.42,2.42,0,0,0,2-1,.24.24,0,0,1,.33,0v0l.46.46a.23.23,0,0,1,0,.31,3.39,3.39,0,0,1-2.82,1.34,3.64,3.64,0,0,1-3.67-3.61Z"/>
        <path class="cls-1" d="M137.5,69.79v3.6a.23.23,0,0,1-.22.24h-.91a.24.24,0,0,1-.24-.24h0V69.82c0-1.34-.62-2.1-1.69-2.1a1.58,1.58,0,0,0-1.75,1.41.15.15,0,0,0,0,.07v4.19a.23.23,0,0,1-.22.24h-.91a.24.24,0,0,1-.24-.24h0v-11a.24.24,0,0,1,.22-.26h.92a.23.23,0,0,1,.23.23v5.11a2.75,2.75,0,0,1,2.1-.83C136.23,66.61,137.5,67.54,137.5,69.79Z"/>
        <path class="cls-1" d="M31.31,82.8a.82.82,0,1,1,.84.8h0A.82.82,0,0,1,31.31,82.8ZM31.44,93V86.58a.27.27,0,0,1,.24-.28h.88a.24.24,0,0,1,.24.26V93a.23.23,0,0,1-.23.23h-.89A.24.24,0,0,1,31.44,93Z"/>
        <path class="cls-1" d="M41.5,89.23V93a.26.26,0,0,1-.26.24h-.86a.22.22,0,0,1-.24-.2V89.33c0-1.32-.39-2-1.86-2s-2,.77-2,1.48V93a.22.22,0,0,1-.2.24h-.94c-.16,0-.23-.08-.23-.24V86.58c0-.11.07-.28.23-.28h.7a.34.34,0,0,1,.28.28l.16.52a3,3,0,0,1,2.28-.93C40.54,86.17,41.5,87.2,41.5,89.23Z"/>
        <path class="cls-1" d="M47.79,92.61a3.16,3.16,0,0,1-2,.72c-1.35,0-1.89-.77-1.91-2V87.41H43.1a.23.23,0,0,1-.23-.23v-.6a.25.25,0,0,1,.22-.28h.76V84.59a.22.22,0,0,1,.22-.24H45a.24.24,0,0,1,.24.24V86.3H47a.26.26,0,0,1,.24.28h0v.57a.24.24,0,0,1-.22.26h-1.8v3.67c0,.55.07,1.14.81,1.14a1.63,1.63,0,0,0,1.12-.51.23.23,0,0,1,.32,0l0,0,.33.57a.23.23,0,0,1,0,.32Z"/>
        <path class="cls-1" d="M48.75,89.77a3.59,3.59,0,1,1,3.63,3.55h0a3.55,3.55,0,0,1-3.6-3.5Zm5.85,0a2.26,2.26,0,0,0-4.5-.43,3.08,3.08,0,0,0,0,.43,2.26,2.26,0,1,0,4.5.42A2.94,2.94,0,0,0,54.6,89.77Z"/>
        <path class="cls-1" d="M70.67,87.91v3.8a.24.24,0,0,1-.07.16,7.24,7.24,0,0,1-4.48,1.45,5.84,5.84,0,1,1,4.48-9.84.22.22,0,0,1,0,.32h0l-.6.6a.19.19,0,0,1-.27,0l0,0a5,5,0,0,0-3.45-1.53,4.58,4.58,0,0,0-4.35,4.63,4.66,4.66,0,0,0,4.25,4.63,5,5,0,0,0,3.1-1v-2.4H67a.23.23,0,0,1-.24-.22h0v-.65a.23.23,0,0,1,.23-.23h3.43a.22.22,0,0,1,.25.19Z"/>
        <path class="cls-1" d="M77.6,87l-.41.67a.21.21,0,0,1-.29.07h0a2,2,0,0,0-1.21-.42,1.47,1.47,0,0,0-1.55,1.39V93a.24.24,0,0,1-.24.24H73a.23.23,0,0,1-.24-.22V86.58A.25.25,0,0,1,73,86.3h.56c.16,0,.26.13.33.28l.1.26a2.48,2.48,0,0,1,1.81-.67,3,3,0,0,1,1.73.49.19.19,0,0,1,.1.26A0,0,0,0,1,77.6,87Z"/>
        <path class="cls-1" d="M78.2,89.77a3.59,3.59,0,1,1,3.63,3.55h0a3.55,3.55,0,0,1-3.6-3.5Zm5.85,0a2.26,2.26,0,0,0-4.5-.43,3.08,3.08,0,0,0,0,.43,2.26,2.26,0,0,0,4.5.42A2.94,2.94,0,0,0,84.05,89.77Z"/>
        <path class="cls-1" d="M95.57,86.64,93.47,93a.24.24,0,0,1-.23.16h-.52a.26.26,0,0,1-.23-.16l-1.56-4.63L89.36,93a.22.22,0,0,1-.21.15h-.54a.25.25,0,0,1-.23-.15l-2.1-6.41a.24.24,0,0,1,.12-.32l.09,0h.85a.25.25,0,0,1,.24.16L88.89,91l1.69-4.53a.24.24,0,0,1,.2-.16h.31a.23.23,0,0,1,.21.16L93,90.94l1.29-4.47a.23.23,0,0,1,.24-.18h.85a.25.25,0,0,1,.21.28A.14.14,0,0,1,95.57,86.64Z"/>
        <path class="cls-1" d="M101.59,92.61a3.16,3.16,0,0,1-2,.72c-1.35,0-1.89-.77-1.91-2V87.41h-.75a.23.23,0,0,1-.23-.23v-.6a.25.25,0,0,1,.22-.28h.76V84.59a.22.22,0,0,1,.22-.24h.9a.24.24,0,0,1,.24.24V86.3h1.83a.26.26,0,0,1,.24.28h0v.57a.24.24,0,0,1-.22.26H99v3.67c0,.55.07,1.14.81,1.14a1.63,1.63,0,0,0,1.19-.51.23.23,0,0,1,.32,0l0,0,.33.57a.24.24,0,0,1-.07.32Z"/>
        <path class="cls-1" d="M109.28,89.35V93a.23.23,0,0,1-.22.24h-.91a.24.24,0,0,1-.24-.24V89.38c0-1.34-.62-2.1-1.69-2.1a1.58,1.58,0,0,0-1.75,1.41.15.15,0,0,0,0,.07V93a.23.23,0,0,1-.22.24h-.91a.24.24,0,0,1-.24-.24V82a.24.24,0,0,1,.22-.26h.92a.23.23,0,0,1,.23.23V87a2.75,2.75,0,0,1,2.1-.83C108,86.17,109.28,87.1,109.28,89.35Z"/>
        <path class="cls-1" d="M81.18,9.79a1.27,1.27,0,0,1-1.3-1.24,1.23,1.23,0,0,1,.35-.91L85.57,2a1.27,1.27,0,0,1,1.84,1.75l-5.34,5.6A1.28,1.28,0,0,1,81.18,9.79Z"/>
        <path class="cls-1" d="M84,7.41V7.29a.61.61,0,0,1,.43-.56,9.2,9.2,0,0,1,2.9-.4A8.57,8.57,0,0,1,92.47,8a5,5,0,0,1,2.15,4.06v.12a.61.61,0,0,1-.43.56,9.5,9.5,0,0,1-2.9.4,8.59,8.59,0,0,1-5.1-1.68A5,5,0,0,1,84,7.41Z"/>
        <path class="cls-1" d="M70.38,9.8a4.9,4.9,0,1,1,3.43-1.51A4.9,4.9,0,0,1,70.38,9.8Z"/>
        <path class="cls-1" d="M78,17.1a4.9,4.9,0,1,1,3.43-1.51A4.9,4.9,0,0,1,78,17.1Z"/>
        <path class="cls-1" d="M66.89,20.5A4.9,4.9,0,1,1,70.32,19,4.9,4.9,0,0,1,66.89,20.5Z"/>
        <path class="cls-1" d="M74.55,27.8A4.9,4.9,0,1,1,78,26.29,4.9,4.9,0,0,1,74.55,27.8Z"/>
        <path class="cls-1" d="M82.2,35.11a4.9,4.9,0,1,1,3.43-1.51A4.9,4.9,0,0,1,82.2,35.11Z"/>
        <path class="cls-1" d="M59.24,13.2a4.9,4.9,0,1,1,3.43-1.52h0A4.89,4.89,0,0,1,59.24,13.2Z"/>
        <path class="cls-1" d="M85.69,24.4a4.88,4.88,0,1,1,3.43-1.51h0A4.9,4.9,0,0,1,85.69,24.4Z"/>
        <path class="cls-1" d="M56.55,24A4.9,4.9,0,1,1,60,22.47,4.91,4.91,0,0,1,56.55,24Z"/>
        <path class="cls-1" d="M64.2,31.29a4.9,4.9,0,1,1,3.43-1.51A4.9,4.9,0,0,1,64.2,31.29Z"/>
        <path class="cls-1" d="M71.86,38.59a4.9,4.9,0,1,1,3.43-1.51A4.9,4.9,0,0,1,71.86,38.59Z"/>
        <path class="cls-1" d="M53.73,35.56A4.9,4.9,0,1,1,57.16,34,4.92,4.92,0,0,1,53.73,35.56Z"/>
        <path class="cls-1" d="M61.39,42.87a4.9,4.9,0,1,1,3.43-1.52A4.91,4.91,0,0,1,61.39,42.87Z"/>
        <path class="cls-1" d="M50.84,45.77a4.9,4.9,0,1,1,3.43-1.51A4.9,4.9,0,0,1,50.84,45.77Z"/>
      </g>
    </g>
  </g>
</svg>
