<svg xmlns="http://www.w3.org/2000/svg" viewBox="0 0 106.84 51.96">
    <defs></defs>
    <style>
        .cls-1{fill: #2a363b}
    </style>
    <title>Arise</title>
    <g id="Layer_2" data-name="Layer 2">
        <g id="Artwork">
            <path class="cls-1"
                  d="M13.2,46.79H5.43L3.37,51.72H0L9.45,29.87h.2L19.1,51.72H15.17Zm-1.14-2.88L9.39,37.28,6.63,43.91Z"/>
            <path class="cls-1"
                  d="M40.29,51.72l-4.81-7.29H32v7.29H28.61v-21h6a8.72,8.72,0,0,1,5.74,1.79,6.09,6.09,0,0,1,2.16,5,7.81,7.81,0,0,1-.84,3.59,5.64,5.64,0,0,1-2.62,2.55l5.19,8.1ZM32,41.2h3.05a3.66,3.66,0,0,0,3-1.11A3.78,3.78,0,0,0,39,37.6,4,4,0,0,0,38.64,36a3.29,3.29,0,0,0-1.2-1.42A3.87,3.87,0,0,0,35.21,34H32Z"/>
            <path class="cls-1" d="M57.57,30.73v21H54.14v-21Z"/>
            <path class="cls-1"
                  d="M75.62,33.59a4.09,4.09,0,0,0-2.51.69,2.24,2.24,0,0,0-.93,1.9,2.35,2.35,0,0,0,1.16,2,15.68,15.68,0,0,0,3.25,1.57A13.71,13.71,0,0,1,79.3,41a5.54,5.54,0,0,1,2.6,5,5.68,5.68,0,0,1-.85,3,6,6,0,0,1-2.47,2.16,8.42,8.42,0,0,1-3.81.81,12.45,12.45,0,0,1-3.82-.6,11.78,11.78,0,0,1-3.34-1.62l1.52-2.63a9.74,9.74,0,0,0,2.57,1.34,8.05,8.05,0,0,0,2.74.54,5,5,0,0,0,2.73-.74A2.66,2.66,0,0,0,77.36,44a9.62,9.62,0,0,0-2.74-1.47,23.31,23.31,0,0,1-3-1.31,6.29,6.29,0,0,1-2.07-1.82,4.76,4.76,0,0,1-.87-2.93,5.22,5.22,0,0,1,1.78-4.13,7.25,7.25,0,0,1,4.68-1.69,13.33,13.33,0,0,1,3.71.47,12.34,12.34,0,0,1,3,1.34L80.52,35A11.05,11.05,0,0,0,75.62,33.59Z"/>
            <path class="cls-1" d="M106.43,30.73V34H95.69v5.6h9.56v3.23H95.69V48.5h11.15v3.22H92.25v-21Z"/>
            <polygon class="cls-1"
                     points="55.82 0 40.59 20.1 43.05 20.1 48.94 12.25 54.65 20.11 57.18 20.13 50.15 10.63 55.66 3.09 68.46 20.1 71.07 20.1 55.82 0"/>
        </g>
    </g>
</svg>