<?xml version="1.0" encoding="utf-8"?>
<!-- Generator: Adobe Illustrator 23.0.1, SVG Export Plug-In . SVG Version: 6.00 Build 0)  -->
<svg version="1.1" id="Layer_1" xmlns="http://www.w3.org/2000/svg" xmlns:xlink="http://www.w3.org/1999/xlink" x="0px" y="0px"
	 viewBox="0 0 244 51.5" style="enable-background:new 0 0 244 51.5;" xml:space="preserve">
<style type="text/css">
	.st0{fill:#F3EFE9;}
</style>
<title>losehill</title>
<g>
	<g id="Layer_1-2">
		<path class="st0" d="M150.4,27.4h-4.6l0.6-1.1c0-7.8,0-15.7,0-23.7c0-0.8-0.5-1.4-0.4-2.1h4.4c-0.6,1.6-0.8,3.2-0.6,4.9
			c0.3,0.1,0.6,0.2,0.9,0.2c2.3,0,4.6,0,6.9,0l0.4-0.3c0.3-1.6,0.1-3.3-0.5-4.8h4.6c-0.4,0.8-0.6,1.7-0.6,2.5c0,7.3,0,14.7,0,22
			c0.1,0.8,0.3,1.6,0.5,2.4h-4.5c0.1-0.2,0.3-0.5,0.4-0.8c0.2-0.7,0.3-1.4,0.3-2.2c0-3.4,0-6.8,0-10.3c-0.3-0.1-0.7-0.2-1-0.3
			c-2.3,0-4.6,0-6.9,0l-0.5,0.5v9.1c0,0.5,0,0.9,0,1.4c0.1,0.4,0.2,0.8,0.3,1.3C150.3,26.5,150.3,26.9,150.4,27.4z M157.8,8.7h-7.5
			l-0.4,0.4v1.3l0.4,0.4h7.4l0.4-0.4V9.1L157.8,8.7z"/>
		<path class="st0" d="M89.5,13.9h-8v3.7c0,2.5,0,5,0,7.5c0.1,0.8,0.3,1.5,0.5,2.3h-4.6c0.9-1.7,0.7-3.4,0.7-5.1
			c0-6.1,0-12.2,0-18.3c0.2-1.2-0.1-2.5-0.8-3.5c0.8-0.1,1.6-0.1,2.4-0.1c0.8,0,1.5,0,2.4,0c-1,1.7-0.5,3.4-0.6,5.2h8
			c0-1.2,0-2.4,0-3.5c-0.1-0.5-0.3-1.1-0.5-1.6c1.5-0.2,3.1,0,4.8-0.1c-0.6,1.2-0.9,2.5-0.9,3.8c0,6.6,0,13.2,0,19.8
			c-0.1,0.9,0.1,1.9,0.6,2.7c0.1,0.2,0.1,0.5,0.1,0.8h-4.6c0.2-0.4,0.4-0.8,0.6-1.2c0-0.5,0-1,0-1.5L89.5,13.9z M89.5,8.7h-8
			c0,0.7,0,1.4,0.1,2.1h7.9V8.7z"/>
		<path class="st0" d="M187.1,13.8c0,0.6,0,1.2,0,1.8c0,1.1-0.2,2.1-0.5,3.2c-0.4,1.6-1.1,3.2-2.1,4.5c-0.7,0.8-1.5,1.6-2.4,2.3
			c-0.9,0.7-2.1,1.3-3.2,1.5c-1.1,0.4-2.4,0.5-3.5,0.3c-1.5-0.1-3-0.5-4.3-1.2c-0.5-0.3-1.1-0.7-1.6-1.1c-1.4-1.2-2.5-2.7-3.1-4.4
			c-0.1-0.5-0.4-0.9-0.5-1.3c-0.2-0.7-0.2-1.4-0.3-2s-0.3-1.4-0.3-2.2c-0.1-0.7-0.1-1.4,0-2.1c0.3-2.5,0.5-5.1,1.8-7.4
			c0.9-1.8,2.4-3.3,4.2-4.2c1-0.5,2.2-0.8,3.3-0.9c0.5-0.1,0.9-0.1,1.4-0.3c1.4,0.1,2.8,0.3,4.2,0.7c1.5,0.6,2.9,1.6,4.1,2.8
			c1,1.3,1.7,2.8,2.2,4.3c0.2,0.6,0.3,1.2,0.3,1.9c0.2,0.6,0.2,1.1,0.3,1.7C187.1,12.4,187.1,13.1,187.1,13.8z M183.7,13.4
			c0-1.1-0.1-2.2-0.3-3.3c-0.3-1.2-0.9-2.4-1.6-3.5c-0.8-1.2-1.9-2.1-3.2-2.5c-0.7-0.3-1.5-0.5-2.2-0.6c-0.9-0.1-1.8,0.1-2.6,0.5
			c-1.7,0.6-3.2,1.9-3.9,3.5c-0.7,1.4-1.2,3-1.3,4.6c-0.2,1.7-0.2,3.4,0.2,5.1c0.3,1.4,0.9,2.7,1.6,4c0.9,1.3,2.2,2.3,3.7,2.8
			c0.7,0.1,1.4,0.2,2.1,0.2c2.2,0.1,4.4-1,5.5-3c1.3-1.8,2-4,1.9-6.3C183.7,14.4,183.7,14,183.7,13.4z"/>
		<path class="st0" d="M37.8,13.9c0,0.6,0,1.2,0,1.8c-0.1,2.7-1,5.3-2.5,7.6c-0.7,1.1-1.7,2-2.9,2.6c-1.3,0.8-2.7,1.2-4.3,1.3
			c-0.6,0-1.3,0.4-2,0.2c-1.7-0.3-3.4-0.5-4.9-1.5c-0.5-0.4-0.9-0.8-1.4-1.2c-1.8-1.5-3-3.7-3.3-6c-0.7-0.6-0.1-1.4-0.5-2.1
			c-0.2-0.7-0.2-1.4-0.1-2.1c-0.1-0.8-0.1-1.5,0-2.3c0.1-0.6,0.2-1.2,0.3-1.9c0-0.6,0.1-1.2,0.3-1.7C16.7,8,17,7.4,17.2,6.9
			c0.4-1.1,1-2.2,1.8-3c0.4-0.4,0.8-0.8,1.2-1.2c1.3-1.2,3-2,4.8-2c0.4,0,0.9-0.1,1.3-0.3c0.6-0.2,1.2-0.2,1.7,0.2
			c0.2,0.1,0.4,0.1,0.6,0.1c1.6-0.2,3,0.6,4.2,1.3c2.3,1.5,3.9,3.9,4.4,6.6c0.1,0.9,0.5,1.7,0.6,2.5C37.8,12,37.9,13,37.8,13.9z
			 M34.4,13.6c0-1.8,0.2-3.6-0.9-5.2c0-1.1-0.8-1.8-1.3-2.5c-0.6-0.8-1.4-1.4-2.3-1.8c-0.6-0.3-1.2-0.3-1.8-0.5
			c-1.6-0.7-3,0-4.4,0.6c-1.3,0.6-2.3,1.6-2.8,2.9c-0.9,1.7-1.5,3.7-1.5,5.7c-0.1,1.2-0.1,2.5,0.1,3.7c0.2,0.9,0.5,1.8,0.8,2.7
			c0.3,1,0.9,1.8,1.5,2.6c0.8,0.8,1.7,1.5,2.7,2c0.8,0.2,1.7,0.3,2.5,0.3c2.2,0.1,4.4-1,5.5-2.9c1.3-1.8,2-4,1.9-6.3
			C34.4,14.4,34.4,14,34.4,13.6z"/>
		<path class="st0" d="M232.4,24c2.4,0,4.9,0,7.3,0c0.8-0.1,1.5-0.4,2.2-0.7c0.2-0.1,0.4-0.2,0.6-0.3v4.4h-14
			c0.2-0.4,0.4-0.8,0.6-1.2c0-0.5,0-1,0-1.5c0-7.4,0-14.8,0-22.1c0.1-0.8-0.2-1.5-0.7-2.1h14.1v4.3c-0.4-0.2-0.8-0.4-1.1-0.5
			c-0.7-0.3-1.4-0.5-2.1-0.5c-2.3,0-4.5,0-6.8,0v1.5l0.4,0.4H244v4.1c-1.6-0.8-3.4-1.1-5.2-1c-2,0-4,0-6,0l-0.4,0.4L232.4,24z"/>
		<path class="st0" d="M74.4,5.5v4L72,8.8c-0.2-0.1-0.5-0.1-0.7-0.1h-8.1l-0.4,0.4v14.5l0.4,0.4c2.8-0.2,5.6,0.3,8.6-0.4l0.8-0.6
			c0.1,0.1,0.3,0.2,0.3,0.2c0,1.3,0,2.7,0,4.1H58.8c0.6-1.1,0.9-2.2,0.8-3.5c0-6.7,0-13.4,0-20.1c0-1.2-0.3-2.3-0.9-3.4h14v4.4
			c-0.4-0.2-0.8-0.4-1.1-0.5c-0.7-0.3-1.4-0.5-2.1-0.5c-2.2,0-4.3,0-6.4,0c-0.7,0.6-0.6,1.2-0.1,1.8L74.4,5.5z"/>
		<path class="st0" d="M206.3,27.5c-0.6-0.1-1.3-0.2-1.9-0.5c-1.6-0.8-3.2-1.7-4.7-2.8c-1.7-1.4-3.3-3-4.8-4.6
			c-0.8-0.9-1.4-1.8-2-2.8c-1.1-1.8-2-3.7-2.7-5.6c-0.2-0.5-0.3-0.9-0.3-1.4c-0.1-0.8,0-1.5,0-2.3c-0.1-1.7,0.2-3.4,0.8-5
			c0.2-0.7,0.1-1.4-0.2-2h5.5c-0.5,0.7-1,1.5-1.5,2.1c-0.9,1.2-1.4,2.6-1.3,4.1c0.1,3.1,1.1,6.2,2.9,8.8c0.8,1.2,1.7,2.4,2.7,3.5
			c1.1,1,2.3,2,3.6,2.8c0-0.5,0.1-0.8,0.1-1.1c0-5.2,0-10.4,0-15.5c0-0.8,0-1.6,0-2.5c-0.1-0.8-0.3-1.6-0.6-2.3h4.6
			c-0.5,1-0.7,2.2-0.6,3.3c0,6.2,0,12.5,0,18.8C205.9,24.1,205.6,25.8,206.3,27.5z"/>
		<path class="st0" d="M225.3,22.2c-0.2,0.4-0.3,0.6-0.4,0.9c-0.9,2.1-3.4,4.2-5.7,4.3c-0.7,0.5-1.4,0.3-2.2,0.3
			c-0.7,0.1-1.5,0-2.2-0.3c-2-0.1-3.7-1.2-5.5-2c-0.2-0.1-0.3-0.2-0.4-0.4l2.7-3.8c0.9,1.5,2.4,2.5,4.1,2.7c0.4,0.1,0.9-0.1,1.3,0.3
			c1-0.1,1.9-0.4,2.8-0.7c2-1.4,2.8-4,1.8-6.3c-0.5-1.2-1.3-2.4-2.2-3.4c-0.6-0.6-1.2-1.2-1.9-1.6c-0.6-0.5-1.1-1.1-1.8-1.6
			c-0.9-0.5-1.6-1.3-2-2.2c-0.1-0.2-0.2-0.3-0.4-0.4c-0.7-0.6-0.8-1.4-1-2.2c-0.2-0.8-0.2-1.5,0-2.3c0.2-0.9,0.6-1.8,1.3-2.4
			c0.8-0.7,1.8-1.1,2.8-1.1c0.8-0.1,1.5-0.1,2.3,0c1.4,0,2.7,0.6,3.7,1.5l-2.1,2.9c-1.4-1-2.8-1.9-4.4-0.5v1.6
			c0.8,1,1.7,1.9,2.6,2.7c1.4,1.1,2.6,2.3,3.9,3.6c1.2,1.4,2.2,2.9,2.9,4.6c0.2,0.6-0.1,1.1,0.3,1.6s0.2,1,0.2,1.5
			c0.1,0.5,0,1.1-0.3,1.6C225.1,21.4,225.3,22,225.3,22.2z"/>
		<path class="st0" d="M39.3,25l2.6-3.7c0.4,0.4,0.7,0.8,1.2,1.2c0.5,0.4,0.9,0.7,1.5,0.9c0.4,0.3,0.9,0.5,1.5,0.6
			c0.6,0,1.2,0.6,1.7,0.3c0.5-0.2,1.1-0.3,1.6-0.3c0.6-0.3,1.1-0.6,1.6-0.9c0.8-0.6,1.3-1.5,1.4-2.5c0.3-2-0.2-4-1.5-5.5
			c-0.5-0.8-1.2-1.5-1.9-2.1c-1.3-0.9-2.2-2.3-3.6-3.1c-0.7-1.1-1.7-1.9-2.2-3.1c-0.7-1.8-0.5-3.7,0.6-5.3c0.7-0.9,1.8-1.5,3-1.5
			c0.9,0,1.7,0,2.5,0c1.1,0.1,2.2,0.5,3.1,1c0.2,0.1,0.5,0.2,0.7,0.4l-1.2,1.6l-1.1,1.4L47.8,3l-1.6,1c-0.3,1.3,0.6,2,1.1,2.8
			c0.3,0.4,0.6,0.7,1,1c1.9,1.5,3.7,3.1,5.3,5c1.2,1.3,1.9,2.9,2.2,4.6c0.1,0.7,0.2,1.5,0.3,2.2c0.2,1.3-0.5,2.4-0.7,3.6
			c0,0.2-0.2,0.5-0.3,0.6c-1.6,1.6-3,3.3-5.5,3.6c-1.5,0.2-3,0.2-4.5,0c-1.9-0.4-3.8-1.1-5.4-2.1C39.5,25.3,39.4,25.2,39.3,25z"/>
		<path class="st0" d="M123.1,0.4h5c-0.3,0.8-0.7,1.5-0.8,2.3c-0.1,0.4-0.1,0.8-0.2,1.3c0,6.6,0,13.2,0,20c0.4,0,0.8,0,1.1,0.1
			c1.2,0,2.5,0,3.7,0c1.7,0,3.4,0.1,4.9-1.2c0.1,0.8,0.2,1.5,0.1,2.3c0,0.7,0,1.4,0,2.2h-13.8c0.2-0.4,0.4-0.8,0.6-1.2
			c0-0.5,0-1,0-1.5c0-7.3,0-14.6,0-21.9C123.7,2,123.5,1.2,123.1,0.4z"/>
		<path class="st0" d="M4.6,24c2.2,0,4.4,0.1,6.6,0c1-0.2,1.9-0.4,2.8-0.8c0.1,0.7,0.1,1.3,0,2c0,0.7,0,1.4,0,2.2H0.3
			c0.6-1.1,0.9-2.2,0.9-3.4c0-6.8,0-13.5,0-20.3C1.1,2.6,0.8,1.4,0.3,0.4h5.2L4.6,2.1V24z"/>
		<path class="st0" d="M106.6,0.4h5.1l-0.9,1.7c-0.7,3.4-0.3,6.8-0.3,10.3s0,6.9,0,10.3c0,0.5-0.2,1.1,0.6,1.4c2,0,4.2,0.1,6.3,0
			c1-0.2,1.9-0.4,2.8-0.8c0.1,0.7,0.1,1.3,0,2c0,0.7,0,1.4,0,2.2h-13.8l0.6-1.1c0.7-3.7,0.3-7.4,0.3-11.2s0-7.6,0-11.4
			c0-0.4,0-0.8-0.1-1.2C107.1,1.9,106.8,1.2,106.6,0.4z"/>
		<path class="st0" d="M34.2,33.9c1,0.6,2.1,0.9,2.8,1.8c0.8,1,1.5,2.3,1.8,3.6c0.3,1.7,0.4,3.5,0.2,5.3c0,1.3-0.5,2.5-1.2,3.5
			c-0.6,0.8-1.2,1.5-1.9,2.1c-0.7,0.4-1.4,0.7-2.1,1h-2.5c-2.2,0.1-4.2-1.1-5.2-3.1c-0.8-1.4-1.3-3-1.2-4.6c-0.1-0.9-0.1-1.7,0-2.6
			c0.4-2,0.7-4,2.4-5.5c1-1,2.4-1.5,3.8-1.5C32,34,33.1,33.9,34.2,33.9z M31,49.3h0.8c1.8,0,3.4-1,4.1-2.5c0.7-1.4,1.1-3,1-4.7
			c0-1.6-0.5-3.2-1.3-4.5c-0.4-0.7-1.1-1.3-1.9-1.5c-0.8-0.2-1.5-0.3-2.3-0.3c-0.9,0-1.8,0.4-2.5,1.1c-1.2,1.3-1.9,2.9-1.9,4.6
			c-0.1,0.8-0.1,1.6,0,2.5c0.1,1.5,0.7,2.8,1.6,3.9C29.4,48.4,30.1,48.9,31,49.3z"/>
		<path class="st0" d="M7.5,51.1C7.9,49.7,8,48.4,8,47c-0.1-1.3,0-2.7,0-4l-0.4-0.4H2.5c-0.2,4-0.1,7.7,0.2,8.5H0.1
			c0.1-0.7,0.2-1.4,0.2-2.1c0-4.4,0-8.8,0-13.2c0-0.6-0.1-1.3-0.2-1.9c0.8,0,1.7,0,2.6,0c-0.4,1-0.1,2-0.3,3H8l-0.4-3h2.5
			C10,35,9.9,36.1,9.8,37.2s0,2.4,0,3.5v3.4c0,1.2,0.1,2.4,0,3.5c0,1.1,0.1,2.3,0.4,3.4L7.5,51.1z M7.9,39.2H2.4l0.1,1.1h5.5V39.2z"
			/>
		<path class="st0" d="M97.7,0.4h4.8l-0.7,1.5V26l0.7,1.3c-0.5,0.3-1,0.1-1.5,0.2s-1.1,0-1.7,0h-1.7c0.7-1.3,0.9-2.7,0.8-4.2
			c0-6.4,0-12.7,0-19C98.6,2.9,98.3,1.6,97.7,0.4z"/>
		<path class="st0" d="M241.3,51.1h-2.7c0.5-1.7,0.2-3.4,0.3-5.1h-5.1c-0.3,1.7-0.2,3.4,0.2,5.1c-0.9,0.1-1.8,0-2.8,0.1
			c0.1-0.6,0.2-1.2,0.2-1.7s0-1.2,0-1.8c0-0.6,0-1.2,0-1.8c0.1-1.3,0.3-2.5,0.7-3.7c0.5-1.6,1.2-3,2.2-4.3c1.2-1.3,2.3-2.7,4-3.4
			c0.5-0.3,1-0.4,1.5-0.5c0.5-0.1,1-0.2,1.5-0.4c0,0.3,0.1,0.7,0,0.8c-0.4,0.3-0.3,0.7-0.3,1.1c0,4.7,0,9.4,0,14.1
			C241,50.1,241.1,50.6,241.3,51.1z M238.8,43.7c0-1.4,0-2.6,0-3.8c0.1-1.2,0-2.5-0.1-3.7c-2.7,1.9-4,4.6-4.9,7.5L238.8,43.7z"/>
		<path class="st0" d="M86.4,51.1h-9.1c0.4-1.4,0.2-2.8,0.2-4.2s0-3,0-4.5s0-2.9,0-4.3c0.1-1.4,0-2.8-0.2-4.2h9.1v2.5
			c-2.1-0.9-4.2-0.6-6.4-0.7L79.5,37h7.8v2.7c-0.4-0.2-0.8-0.4-1.2-0.5c-0.5,0-0.9,0-1.4,0h-5V49h6.2l0.5-0.5V51.1z"/>
		<path class="st0" d="M143.4,47.1l1.3,1.5c2,1.2,3.4,0.4,4.8-0.4c0-1.7,0-3.3,0-5c0-0.1-0.1-0.2-0.3-0.3c1-0.1,1.9,0,2.9,0
			c0.1,1.1-0.4,2.1-0.3,3.1c0.1,1.1,0.1,2.1,0,3.2c-0.9,1.1-2.1,1.4-3.4,2c-0.9,0-1.9,0-2.9,0c-1.2-0.1-3-1-3.4-2.1
			c-0.2-0.5-0.5-1-0.8-1.5c0-0.7,0-1.6,0-2.5c0-1.1,0.5-2.2,1.3-3c0.5-0.5,1.1-1.1,1.6-1.6c-1.8-1.2-2-1.6-1.9-4.1
			c0.5-1.1,1.3-1.9,2.4-2.4c0.7,0,1.4,0,2.1,0c0.7,0,1.4,0.2,2.1,0.4c0.3,0.8-0.6,1.3-0.6,2c-0.7,0-1.3-0.2-1.8-0.6l-1.8,0.3
			l-0.5,1.8c0.8,1.2,2,1.3,3,1.6l-0.2,1.7C144.8,41.8,143.1,43.1,143.4,47.1z"/>
		<path class="st0" d="M186.8,36.4c0.1,0.6,0.4,1.2,0.9,1.7c1,1,2.1,1.8,3.1,2.8c1.1,1,1.9,2.3,2.3,3.8c0.6,1.8,0.1,3.8-1.2,5.2
			c-1,1-2.4,1.6-3.8,1.6c-2,0.1-4-0.5-5.6-1.7l1.6-2.5c1.1,1.5,2.8,2.2,4.6,1.9c0.9-0.4,1.7-1.2,2-2.2c0-0.3,0-0.8,0-1.3
			c0-1-0.4-2-1.1-2.6c-0.9-1-1.9-2-3-2.8c-0.8-0.6-1.4-1.3-1.8-2.2c-0.2-0.3-0.3-0.7-0.3-1.1c0-0.6,0-1.2,0-1.8
			c0.1-0.1,0.3-0.2,0.3-0.4c0.1-0.6,0.7-1.1,1.3-1.2c1.5-0.3,3.1-0.2,4.5,0.4c0.1,0.1,0.2,0.2,0.4,0.4l-1.4,1.9
			c-0.5-0.7-1.3-0.7-2-1L186.8,36.4z"/>
		<path class="st0" d="M207.7,33.9c2.3,0,4.4,0,6.6,0c1.1-0.2,2.1,0.5,2.3,1.6c0,0,0,0.1,0,0.1v1.8c-0.6,0.5-0.7,1.5-1.7,1.7h-4.6
			c-0.3,1.7-0.2,11.1,0.1,12h-2.7c0.3-1.2,0.4-2.5,0.3-3.8c0-1.3,0-2.7,0-4v-4c0-1.3,0-2.7,0-4C208,34.9,207.9,34.4,207.7,33.9z
			 M210.2,36.9h4l0.3-1.1h-4.4L210.2,36.9z"/>
		<path class="st0" d="M63.4,33.5v0.8l-0.8,0.8c-0.4,0.4-1,0.7-1.6,0.6c-0.7,0-1.4,0-2.3,0v1.3c0,3.5,0,7,0,10.5
			c-0.1,1.2,0,2.4,0.4,3.5c-0.5,0-1,0.1-1.4,0.1s-0.9,0-1.4,0c0.2-1.6,0.3-3.3,0.2-4.9c0-1.7,0-3.5,0-5.2v-5.2c-1.3,0-2.6-0.4-4,0.6
			c-0.1-0.8,0-1.6-0.1-2.5h4.9c1,0,2,0,3.1,0S62.4,33.7,63.4,33.5z"/>
		<path class="st0" d="M110.7,48.7v2.4h-8.9l0.3-1c0-4.6,0-9.5,0-14.4c0-0.6-0.1-1.2-0.2-1.8h2.9c-0.2,0.5-0.4,1-0.5,1.5
			c0,4.5,0,8.9,0,13.3C106.4,49.1,108.6,49.1,110.7,48.7z"/>
		<path class="st0" d="M206.2,27.4l0.3,0.2l-0.1,0.1L206.2,27.4L206.2,27.4z"/>
		<path class="st0" d="M63.3,33.6l0.2-0.3l0.1,0.1L63.3,33.6L63.3,33.6z"/>
	</g>
</g>
</svg>
