<svg xmlns="http://www.w3.org/2000/svg" viewBox="0 0 79 38.26">
  <defs>
    <style>
      .cls-1 {
        fill: #f3efe9;
      }
    </style>
  </defs>
  <title>my-fathers-heart-arise</title>
  <g id="Layer_2" data-name="Layer 2">
    <g id="Layer_1-2" data-name="Layer 1">
      <g id="Layer_1-2-2" data-name="Layer 1-2">
        <path class="cls-1" d="M8.54,35V31.07a5.77,5.77,0,0,0-.1-1.1,2.25,2.25,0,0,0-.31-.75,1.21,1.21,0,0,0-.56-.41,2.18,2.18,0,0,0-.8-.15,1.89,1.89,0,0,0-1.47.72,2.71,2.71,0,0,0-.6,1.79V35H4.35V31c0-1.57-.62-2.37-1.84-2.37a2.49,2.49,0,0,0-2,1.46V35H.12V28.53H.46V30c.71-1.06,1.44-1.59,2.21-1.59a1.7,1.7,0,0,1,.63.1,1.86,1.86,0,0,1,.53.3,2.59,2.59,0,0,1,.76,1.39,3.29,3.29,0,0,1,1-1.41,2.11,2.11,0,0,1,1.21-.38c1.38,0,2.07.86,2.07,2.59v4Z"/>
        <path class="cls-1" d="M4.82,35.1h-.6V31c0-1.51-.56-2.24-1.71-2.24A2.34,2.34,0,0,0,.59,30.15v5H0V28.4H.59v1.16a2.71,2.71,0,0,1,2.08-1.32,1.77,1.77,0,0,1,.68.11,1.85,1.85,0,0,1,.56.32,2.48,2.48,0,0,1,.71,1.14,3.09,3.09,0,0,1,.9-1.16,2.25,2.25,0,0,1,1.28-.4c1.46,0,2.2.91,2.2,2.71V35.1H8.54V35H8.41V31.07A5.46,5.46,0,0,0,8.31,30,2,2,0,0,0,8,29.3a1.13,1.13,0,0,0-.5-.36,2.12,2.12,0,0,0-.75-.14,1.78,1.78,0,0,0-1.37.68,2.58,2.58,0,0,0-.57,1.71Zm-.35-.25h.1V31.17a3.08,3.08,0,0,1,.16-1v.06l-.14.33-.09-.35a2.53,2.53,0,0,0-.72-1.33,1.83,1.83,0,0,0-.49-.28,1.49,1.49,0,0,0-.59-.09,1.66,1.66,0,0,0-.54.1l.37-.06h0c.91,0,2,.43,2,2.49Zm4.19,0h.09V31c0-1.66-.64-2.46-1.95-2.46a2,2,0,0,0-1.14.36,2,2,0,0,0-.37.35,2,2,0,0,1,1.48-.67,2.2,2.2,0,0,1,.84.16,1.43,1.43,0,0,1,.61.45,2.34,2.34,0,0,1,.33.8,6.1,6.1,0,0,1,.11,1.13Zm-8.41,0H.34V30.36h0V28.65H.25Z"/>
        <path class="cls-1" d="M11.86,36.42a6.53,6.53,0,0,1-.37.75,2.35,2.35,0,0,1-.41.53,1.43,1.43,0,0,1-.49.32,1.59,1.59,0,0,1-.57.1.61.61,0,0,1-.19,0H9.65L9.71,38v-.15H10c.59,0,1.06-.4,1.39-1.19L12,35.08l-1.23-3.27c-.41-1.09-.83-2.18-1.25-3.27H10l2.28,6.27L13,32.94l.62-1.6c.19-.5.38-1,.57-1.44s.37-.91.55-1.37h.37Z"/>
        <path class="cls-1" d="M10,38.25H9.49l0-.25v-.38H10c.54,0,1-.37,1.28-1.11l.61-1.5-.52-1.38-.69-1.84c-.41-1.09-.83-2.17-1.25-3.26l0-.13h.65v.08l2.17,5.95.59-1.54.62-1.6c.17-.45.37-1,.58-1.44s.37-.9.54-1.36v-.08h.64L12,36.47a6.88,6.88,0,0,1-.38.77,2.38,2.38,0,0,1-.43.56,1.56,1.56,0,0,1-1.14.46ZM9.82,38H10a1.3,1.3,0,0,0,1-.39,2.69,2.69,0,0,0,.39-.5,5,5,0,0,0,.36-.73l.5-1.23-2.37-6.5H9.77c.4,1,.8,2.07,1.19,3.1l.69,1.84.56,1.48-.65,1.59c-.36.84-.87,1.27-1.51,1.27h-.2v0Zm5-9.33c-.17.43-.33.86-.52,1.29s-.4,1-.57,1.44L13.07,33l-.71,1.85h0l2.53-6.23Z"/>
        <path class="cls-1" d="M22.46,25.63a1.45,1.45,0,0,0-.68-.13c-.91,0-1.37.59-1.37,1.79v1.25h1.76v.3H20.42V35h-.35V28.82H18.86v-.29h1.21v-1.3a2.11,2.11,0,0,1,.48-1.51,1.72,1.72,0,0,1,1.25-.51,2.29,2.29,0,0,1,.37,0,1.56,1.56,0,0,1,.41.15Z"/>
        <path class="cls-1" d="M20.54,35.13h-.6V28.94H18.73V28.4h1.21V27.23a2.21,2.21,0,0,1,.52-1.6,1.83,1.83,0,0,1,1.34-.55,1.34,1.34,0,0,1,.4,0,1.79,1.79,0,0,1,.44.16l.11.06-.23.46-.11-.06a1.32,1.32,0,0,0-.62-.12c-.85,0-1.24.53-1.24,1.67v1.13h1.76V29H20.54Zm-.35-.25h.1V28.71h0V27.29c0-1.27.5-1.92,1.49-1.92a1.64,1.64,0,0,1,.62.09h0l-.27-.08h-.34a1.57,1.57,0,0,0-1.16.48,2,2,0,0,0-.45,1.43v1.42h0Z"/>
        <path class="cls-1" d="M25.76,28.36a1.93,1.93,0,0,1,1.5.6,2.59,2.59,0,0,1,.53,1.78V35h-.34V33.77a1.86,1.86,0,0,1-.21.28,1.79,1.79,0,0,1-.27.28,2.48,2.48,0,0,1-.3.25,2.11,2.11,0,0,1-.31.21,2.88,2.88,0,0,1-1.39.36,2,2,0,0,1-1.43-.5,1.62,1.62,0,0,1-.48-.75,1.37,1.37,0,0,1,0-.75,1.79,1.79,0,0,1,.34-.69,2.61,2.61,0,0,1,.57-.58,2.82,2.82,0,0,1,.72-.4,1.93,1.93,0,0,1,.75-.15,2.85,2.85,0,0,1,1,.18,4.71,4.71,0,0,1,1,.51V30.71c-.06-1.38-.65-2.07-1.75-2.07a3.07,3.07,0,0,0-1.12.19,2.64,2.64,0,0,0-.94.56l-.12-.12-.1-.09a2.62,2.62,0,0,1,1-.63,4.34,4.34,0,0,1,1.34-.19m-1.9,6.08a1.73,1.73,0,0,0,1.19.43,2.66,2.66,0,0,0,1.66-.51,4.56,4.56,0,0,0,.5-.48,1,1,0,0,0,.22-.43v-1.2a3.69,3.69,0,0,0-1-.48,2.92,2.92,0,0,0-.93-.15,2.1,2.1,0,0,0-.74.13,2.69,2.69,0,0,0-.65.34,2.07,2.07,0,0,0-.48.5,1.63,1.63,0,0,0-.27.6,1.2,1.2,0,0,0,0,.65,1.81,1.81,0,0,0,.42.6"/>
        <path class="cls-1" d="M25,35.27a2.07,2.07,0,0,1-1.52-.54,1.72,1.72,0,0,1-.52-.81,1.59,1.59,0,0,1,0-.81,2,2,0,0,1,.36-.74,2.84,2.84,0,0,1,.6-.6,3,3,0,0,1,.75-.41,2.41,2.41,0,0,1,1.79,0,4.48,4.48,0,0,1,.86.4V30.71c-.05-1.31-.59-1.95-1.63-1.95a2.8,2.8,0,0,0-1.07.18,2.67,2.67,0,0,0-.9.54l-.09.08-.2-.2-.09-.08-.12-.09.1-.1a2.67,2.67,0,0,1,1.06-.66,4.31,4.31,0,0,1,1.38-.2,2,2,0,0,1,1.59.65,2.71,2.71,0,0,1,.56,1.86V35.1h-.59v-1h0a1.66,1.66,0,0,1-.26.27,2.55,2.55,0,0,1-.3.26,2.2,2.2,0,0,1-.32.21,2.92,2.92,0,0,1-.71.28A3.06,3.06,0,0,1,25,35.27Zm.46-3.81a1.86,1.86,0,0,0-.7.14,2.64,2.64,0,0,0-.7.38,2.39,2.39,0,0,0-.55.55,1.75,1.75,0,0,0-.32.64,1.34,1.34,0,0,0,0,.69,1.54,1.54,0,0,0,.45.7A1.88,1.88,0,0,0,25,35a2.48,2.48,0,0,0,.61-.07h-.55a1.84,1.84,0,0,1-1.27-.46h0a1.88,1.88,0,0,1-.44-.64,1.26,1.26,0,0,1,0-.72,1.73,1.73,0,0,1,.29-.65,2.33,2.33,0,0,1,.51-.53,2.92,2.92,0,0,1,.68-.35,2.55,2.55,0,0,1,1.37-.08,2.7,2.7,0,0,0-.75,0Zm2.13,3.4h.09V30.74a2.48,2.48,0,0,0-.5-1.7,1.78,1.78,0,0,0-1.41-.56,4.09,4.09,0,0,0-1.3.18,2.47,2.47,0,0,0-.87.51h0a3.16,3.16,0,0,1,.89-.51,3,3,0,0,1,1.16-.2c.82,0,1.8.38,1.88,2.19v2.62h0ZM24,34.35a1.63,1.63,0,0,0,1.1.39,2.52,2.52,0,0,0,1.59-.49,4.16,4.16,0,0,0,.48-.46,1,1,0,0,0,.2-.37v-1.1a3.59,3.59,0,0,0-.88-.43,2.38,2.38,0,0,0-1.58,0,2.8,2.8,0,0,0-.62.32,2.05,2.05,0,0,0-.46.47,1.49,1.49,0,0,0-.25.56,1.14,1.14,0,0,0,0,.58,1.76,1.76,0,0,0,.41.53Z"/>
        <path class="cls-1" d="M31.62,35a1.6,1.6,0,0,1-.37.12,2,2,0,0,1-.35,0q-1.35,0-1.35-1.65V28.82H28.36v-.29h1.21v-2h.34v1.94h1.76v.29H29.9v4.56A2.76,2.76,0,0,0,30,34a1.32,1.32,0,0,0,.19.46.82.82,0,0,0,.34.27,1.52,1.52,0,0,0,1.07,0Z"/>
        <path class="cls-1" d="M30.9,35.22c-.67,0-1.48-.31-1.48-1.77V28.94H28.23V28.4h1.21V26.46H30V28.4h1.76v.54H30v4.43a2.56,2.56,0,0,0,.05.62,1.15,1.15,0,0,0,.17.41.66.66,0,0,0,.29.23,1.43,1.43,0,0,0,1,0l.13-.06.14.46h-.1a1.87,1.87,0,0,1-.4.13A1.21,1.21,0,0,1,30.9,35.22Zm-2.42-6.53h1.19v4.76c0,1,.4,1.52,1.23,1.52H31a1.54,1.54,0,0,1-.56-.1.92.92,0,0,1-.39-.31,1.48,1.48,0,0,1-.21-.5,2.57,2.57,0,0,1-.06-.68V28.69h0v-2h-.09v1.94H28.48Z"/>
        <path class="cls-1" d="M36.86,35V31.1a3,3,0,0,0-.46-1.85,1.8,1.8,0,0,0-1.46-.59,2.76,2.76,0,0,0-2.31,1.71V35H32.3V25.3h.34v4.76a2.91,2.91,0,0,1,2.47-1.71,1.87,1.87,0,0,1,1.56.66,3,3,0,0,1,.53,1.91v4h-.34Z"/>
        <path class="cls-1" d="M37.32,35.09h-.46V35h-.12V31.1a2.94,2.94,0,0,0-.43-1.78A1.66,1.66,0,0,0,35,28.78a2.62,2.62,0,0,0-2.19,1.62v4.71h-.59V25.18h.59v4.47a2.84,2.84,0,0,1,2.34-1.41,2,2,0,0,1,1.66.71,3.1,3.1,0,0,1,.56,2ZM37,34.84h.09v-3.9a2.91,2.91,0,0,0-.5-1.83,1.76,1.76,0,0,0-1.46-.61,3.09,3.09,0,0,0-.43,0H35a1.89,1.89,0,0,1,1.55.63A3.11,3.11,0,0,1,37,31.08Zm-4.56,0h.09V25.43h-.09Z"/>
        <path class="cls-1" d="M38.07,31.64A3.63,3.63,0,0,0,38.74,34a2.28,2.28,0,0,0,1.85.83,3.37,3.37,0,0,0,1-.16,3,3,0,0,0,.93-.49l.07.13.06.09a3.83,3.83,0,0,1-2.24.72,2.54,2.54,0,0,1-2-.88,3.8,3.8,0,0,1-.76-2.54,3.61,3.61,0,0,1,.8-2.38,2.51,2.51,0,0,1,2.07-1,2.12,2.12,0,0,1,1.81.82A3.77,3.77,0,0,1,43,31.53v.13H38Zm4.6-.28a4.45,4.45,0,0,0-.18-1.15,2.73,2.73,0,0,0-.43-.85,1.71,1.71,0,0,0-.66-.53,2,2,0,0,0-.87-.18,2.21,2.21,0,0,0-1.66.68,3.38,3.38,0,0,0-.83,2Z"/>
        <path class="cls-1" d="M40.46,35.28a2.68,2.68,0,0,1-2.09-.92,3.94,3.94,0,0,1-.79-2.63,3.72,3.72,0,0,1,.83-2.46,2.66,2.66,0,0,1,2.17-1,2.26,2.26,0,0,1,1.91.88,3.86,3.86,0,0,1,.67,2.4v.26h-5A3.49,3.49,0,0,0,38.81,34a2.1,2.1,0,0,0,1.76.78,3.37,3.37,0,0,0,1-.15,3,3,0,0,0,.89-.46l.12-.09.07.14.06.11h0a.41.41,0,0,1,0,.09v.09l-.08.05A4,4,0,0,1,40.46,35.28Zm.11-6.77a2.39,2.39,0,0,0-2,.91,3.5,3.5,0,0,0-.77,2.3,3.69,3.69,0,0,0,.73,2.46,2.41,2.41,0,0,0,1.9.84,3.62,3.62,0,0,0,1.45-.3l-.23.08a3.43,3.43,0,0,1-1,.2,2.37,2.37,0,0,1-2-.87,3.64,3.64,0,0,1-.7-2.32h0v-.14H38v-.11H42.9a3.59,3.59,0,0,0-.62-2.25A2,2,0,0,0,40.57,28.51Zm2.27,3H37.91v-.14a3.54,3.54,0,0,1,.86-2.1,2.35,2.35,0,0,1,1.75-.71,2.08,2.08,0,0,1,.92.19,1.8,1.8,0,0,1,.71.57,3,3,0,0,1,.45.89,4.68,4.68,0,0,1,.18,1.18Zm-4.6-.25h4.34a4.27,4.27,0,0,0-.17-1,2.69,2.69,0,0,0-.41-.81,1.62,1.62,0,0,0-.61-.49,1.87,1.87,0,0,0-.81-.17,2.07,2.07,0,0,0-1.57.64,3.15,3.15,0,0,0-.81,1.83Z"/>
        <path class="cls-1" d="M46.74,28.8a1.43,1.43,0,0,0-.27-.09,1.61,1.61,0,0,0-.31,0,2.15,2.15,0,0,0-2,1.43V35h-.32V28.53h.32v1.35c.68-1,1.35-1.51,2-1.49h.28l.27.06Z"/>
        <path class="cls-1" d="M44.3,35.1h-.57V28.4h.57v1.09a2.49,2.49,0,0,1,1.85-1.22h.42l.22.05h.09V29l-.18-.09a.9.9,0,0,0-.23-.08,1.93,1.93,0,0,0-2.16,1.3Zm-.3-.25h0v-6.2h0Zm2.16-6.29h.49V28.5h-.47a1.38,1.38,0,0,0-.45.08,1.79,1.79,0,0,1,.4,0Z"/>
        <path class="cls-1" d="M47.33,34.3a3.38,3.38,0,0,0,.73.38,2.66,2.66,0,0,0,.88.18c1.15,0,1.71-.47,1.71-1.43a1.22,1.22,0,0,0-.09-.46,1.29,1.29,0,0,0-.28-.38,3.27,3.27,0,0,0-.48-.35,5.52,5.52,0,0,0-.69-.34,7.93,7.93,0,0,1-.78-.41,2.6,2.6,0,0,1-.53-.41,1.53,1.53,0,0,1-.35-1A1.49,1.49,0,0,1,48,28.87a2.24,2.24,0,0,1,1.47-.48,3.22,3.22,0,0,1,1.54.43A1.09,1.09,0,0,1,51,29l-.06.13a2.91,2.91,0,0,0-1.49-.41,1.7,1.7,0,0,0-1.15.38,1.24,1.24,0,0,0-.46,1,1.29,1.29,0,0,0,.3.86,2.07,2.07,0,0,0,.44.34,7.24,7.24,0,0,0,.73.38,6.84,6.84,0,0,1,.85.44,2.7,2.7,0,0,1,.54.4,1.31,1.31,0,0,1,.35,1,1.55,1.55,0,0,1-.56,1.22,2.29,2.29,0,0,1-1.57.48A2.88,2.88,0,0,1,48,35a3.12,3.12,0,0,1-.85-.44Z"/>
        <path class="cls-1" d="M48.91,35.27a3,3,0,0,1-.9-.14,3.27,3.27,0,0,1-.89-.46L47,34.61l.26-.49.12.08a3.2,3.2,0,0,0,.71.37,2.67,2.67,0,0,0,.84.17c1.08,0,1.58-.41,1.58-1.3a1,1,0,0,0-.08-.41,1.2,1.2,0,0,0-.25-.34,3,3,0,0,0-.46-.34c-.2-.11-.41-.21-.62-.3H49c-.24-.11-.47-.23-.7-.36l-.1-.05a2.65,2.65,0,0,1-.56-.44,1.63,1.63,0,0,1-.39-1.08,1.65,1.65,0,0,1,.62-1.32,2.35,2.35,0,0,1,1.55-.51,3.34,3.34,0,0,1,1.6.44l.09.05v.1a.89.89,0,0,1-.08.17v.09l0,.13-.13-.05a2.74,2.74,0,0,0-1.42-.39,1.59,1.59,0,0,0-1.07.35,1.11,1.11,0,0,0-.41.89,1.19,1.19,0,0,0,.27.79,2.1,2.1,0,0,0,.41.31,6.1,6.1,0,0,0,.72.37,7.16,7.16,0,0,1,.87.45,2.58,2.58,0,0,1,.57.41,1.44,1.44,0,0,1,.39,1.06,1.65,1.65,0,0,1-.6,1.31A2.45,2.45,0,0,1,48.91,35.27Zm-1.56-.74a3.3,3.3,0,0,0,.73.36,2.62,2.62,0,0,0,.83.13,2.18,2.18,0,0,0,1.49-.45,1.39,1.39,0,0,0,.52-1.12,1.2,1.2,0,0,0-.32-.88,2.77,2.77,0,0,0-.52-.38,6.71,6.71,0,0,0-.84-.44,8.2,8.2,0,0,1-.75-.39A2.47,2.47,0,0,1,48,31a1.43,1.43,0,0,1-.33-.95,1.36,1.36,0,0,1,.5-1.08,1.83,1.83,0,0,1,1.23-.41,3,3,0,0,1,1.43.36h0a3,3,0,0,0-1.38-.36A2.12,2.12,0,0,0,48.1,29a1.46,1.46,0,0,0-.21,2,2.64,2.64,0,0,0,.5.38l.09,0c.22.13.44.24.67.35h.05a5.59,5.59,0,0,1,.65.32,3.59,3.59,0,0,1,.5.37,1.43,1.43,0,0,1,.31.42,1.24,1.24,0,0,1,.1.5c0,1-.62,1.55-1.83,1.55A3,3,0,0,1,48,34.8a3.27,3.27,0,0,1-.65-.32Z"/>
        <path class="cls-1" d="M60,35V31.1a3,3,0,0,0-.46-1.85,1.8,1.8,0,0,0-1.46-.59,2.76,2.76,0,0,0-2.31,1.71V35h-.34V25.3h.34v4.76a2.91,2.91,0,0,1,2.47-1.71A1.87,1.87,0,0,1,59.8,29a3,3,0,0,1,.53,1.91v4H60Z"/>
        <path class="cls-1" d="M60.44,35.09H60V35h-.12V31.1a2.94,2.94,0,0,0-.43-1.78,1.66,1.66,0,0,0-1.36-.54A2.61,2.61,0,0,0,55.9,30.4v4.71h-.59V25.18h.59v4.47a2.84,2.84,0,0,1,2.34-1.41A2,2,0,0,1,59.9,29a3.1,3.1,0,0,1,.56,2Zm-.34-.25h.09v-3.9a2.91,2.91,0,0,0-.5-1.83,1.76,1.76,0,0,0-1.46-.61,3.09,3.09,0,0,0-.43,0h.28a1.89,1.89,0,0,1,1.55.63,3.12,3.12,0,0,1,.48,1.93Zm-4.56,0h.09V25.43h-.09Z"/>
        <path class="cls-1" d="M61.18,31.64A3.68,3.68,0,0,0,61.86,34a2.28,2.28,0,0,0,1.85.83,3.37,3.37,0,0,0,1-.16,3,3,0,0,0,.93-.49l.07.13.06.09a3.83,3.83,0,0,1-2.24.72,2.54,2.54,0,0,1-2-.88,3.8,3.8,0,0,1-.76-2.54,3.61,3.61,0,0,1,.8-2.38,2.51,2.51,0,0,1,2.07-1,2.12,2.12,0,0,1,1.81.82,3.76,3.76,0,0,1,.65,2.32v.13h-5Zm4.6-.28a4.45,4.45,0,0,0-.18-1.15,2.73,2.73,0,0,0-.43-.85,1.71,1.71,0,0,0-.66-.53,2,2,0,0,0-.87-.18,2.21,2.21,0,0,0-1.66.68,3.38,3.38,0,0,0-.83,2Z"/>
        <path class="cls-1" d="M63.58,35.28a2.68,2.68,0,0,1-2.09-.92,3.94,3.94,0,0,1-.79-2.63,3.72,3.72,0,0,1,.83-2.46,2.66,2.66,0,0,1,2.17-1,2.26,2.26,0,0,1,1.91.88,3.86,3.86,0,0,1,.67,2.4v.26h-5A3.45,3.45,0,0,0,62,34a2.1,2.1,0,0,0,1.76.78,3.37,3.37,0,0,0,1-.15,3,3,0,0,0,.89-.46l.12-.09.07.14.06.11h0a.41.41,0,0,1,0,.09v.09l-.08,0A4,4,0,0,1,63.58,35.28Zm.11-6.77a2.39,2.39,0,0,0-2,.91,3.5,3.5,0,0,0-.77,2.3,3.69,3.69,0,0,0,.73,2.46,2.41,2.41,0,0,0,1.9.84,3.62,3.62,0,0,0,1.45-.3l-.23.08a3.59,3.59,0,0,1-1.08.17,2.37,2.37,0,0,1-2-.87A3.73,3.73,0,0,1,61,31.64v-.12h5a3.59,3.59,0,0,0-.62-2.25A2,2,0,0,0,63.69,28.51Zm2.27,3H61v-.14a3.54,3.54,0,0,1,.86-2.1,2.35,2.35,0,0,1,1.75-.71,2.08,2.08,0,0,1,.92.19,1.8,1.8,0,0,1,.71.57,3,3,0,0,1,.45.89,4.68,4.68,0,0,1,.18,1.18Zm-4.6-.25H65.7a4.27,4.27,0,0,0-.17-1,2.69,2.69,0,0,0-.41-.81,1.62,1.62,0,0,0-.61-.49,1.87,1.87,0,0,0-.81-.17,2.07,2.07,0,0,0-1.57.64,3.15,3.15,0,0,0-.81,1.83Z"/>
        <path class="cls-1" d="M69.49,28.36A1.89,1.89,0,0,1,71,29a2.59,2.59,0,0,1,.53,1.78V35h-.34V33.77a1.86,1.86,0,0,1-.21.28,1.79,1.79,0,0,1-.27.28,3.47,3.47,0,0,1-.29.25,2.11,2.11,0,0,1-.31.21,2.88,2.88,0,0,1-1.39.36,2,2,0,0,1-1.43-.5,1.62,1.62,0,0,1-.48-.75,1.37,1.37,0,0,1,0-.75,1.79,1.79,0,0,1,.34-.69,2.66,2.66,0,0,1,.58-.58,3.16,3.16,0,0,1,.72-.4,1.93,1.93,0,0,1,.75-.15,2.85,2.85,0,0,1,1,.18,4.71,4.71,0,0,1,1,.51V30.71c-.06-1.38-.65-2.07-1.75-2.07a3.07,3.07,0,0,0-1.12.19,2.64,2.64,0,0,0-.94.56l-.12-.12-.1-.09a2.62,2.62,0,0,1,1-.63,4.34,4.34,0,0,1,1.34-.19m-1.9,6.08a1.73,1.73,0,0,0,1.19.43,2.66,2.66,0,0,0,1.66-.51,4.56,4.56,0,0,0,.5-.48,1,1,0,0,0,.22-.43v-1.2a3.69,3.69,0,0,0-1-.48,2.92,2.92,0,0,0-.93-.15,2.1,2.1,0,0,0-.74.13,2.69,2.69,0,0,0-.65.34,2.07,2.07,0,0,0-.48.5,1.63,1.63,0,0,0-.27.6,1.2,1.2,0,0,0,0,.65,1.65,1.65,0,0,0,.41.6"/>
        <path class="cls-1" d="M68.73,35.27a2.07,2.07,0,0,1-1.52-.54,1.72,1.72,0,0,1-.52-.81,1.59,1.59,0,0,1,0-.81,2,2,0,0,1,.36-.74,2.84,2.84,0,0,1,.6-.6,3,3,0,0,1,.75-.41,2.51,2.51,0,0,1,1.79,0,4.48,4.48,0,0,1,.86.4V30.71c0-1.31-.59-1.95-1.63-1.95a2.8,2.8,0,0,0-1.07.18,2.67,2.67,0,0,0-.9.54l-.09.08-.2-.2-.09-.08L67,29.2l.1-.1a2.67,2.67,0,0,1,1.06-.66,4.31,4.31,0,0,1,1.38-.2,2,2,0,0,1,1.59.65,2.71,2.71,0,0,1,.56,1.86v4.36H71.1v-1a1.79,1.79,0,0,1-.27.28,1.81,1.81,0,0,1-.3.25,2.2,2.2,0,0,1-.32.21,3.39,3.39,0,0,1-.71.28A2.9,2.9,0,0,1,68.73,35.27Zm.46-3.81a1.86,1.86,0,0,0-.7.14,2.8,2.8,0,0,0-.7.38,2.39,2.39,0,0,0-.55.55,1.72,1.72,0,0,0-.32.65,1.34,1.34,0,0,0,0,.69,1.54,1.54,0,0,0,.45.7,1.84,1.84,0,0,0,1.34.47,2.48,2.48,0,0,0,.61-.07h-.55a1.84,1.84,0,0,1-1.27-.46h0a1.88,1.88,0,0,1-.44-.64,1.36,1.36,0,0,1,0-.72,1.73,1.73,0,0,1,.29-.65,2.33,2.33,0,0,1,.51-.53,2.92,2.92,0,0,1,.68-.35,2.55,2.55,0,0,1,1.37-.08A2.51,2.51,0,0,0,69.19,31.46Zm2.13,3.4h.09V30.74a2.48,2.48,0,0,0-.5-1.7,1.78,1.78,0,0,0-1.41-.56,4.09,4.09,0,0,0-1.3.18,2.47,2.47,0,0,0-.87.51h0a3.16,3.16,0,0,1,.89-.51,3,3,0,0,1,1.16-.2c1.19,0,1.82.74,1.88,2.19v2.61h0Zm-3.63-.51a1.63,1.63,0,0,0,1.1.39,2.52,2.52,0,0,0,1.59-.49,4.16,4.16,0,0,0,.48-.46.93.93,0,0,0,.2-.38v-1.1a3.59,3.59,0,0,0-.88-.43,2.38,2.38,0,0,0-1.58,0,2.8,2.8,0,0,0-.62.32,2.05,2.05,0,0,0-.46.47,1.49,1.49,0,0,0-.25.56,1.14,1.14,0,0,0,0,.58,1.68,1.68,0,0,0,.41.54Z"/>
        <path class="cls-1" d="M75.38,28.8a1.43,1.43,0,0,0-.27-.09,1.61,1.61,0,0,0-.31,0,2.15,2.15,0,0,0-2,1.43V35h-.32V28.53h.32v1.35c.68-1,1.35-1.51,2-1.49h.28l.27.06Z"/>
        <path class="cls-1" d="M72.93,35.1h-.57V28.4h.57v1.09a2.41,2.41,0,0,1,1.91-1.22h.36l.22.05h.09V29l-.18-.09a.9.9,0,0,0-.23-.08h-.32A2,2,0,0,0,73,30.16Zm-.32-.25h.07v-6.2h-.07Zm2.16-6.29h.49V28.5h-.47a1.38,1.38,0,0,0-.45.08,2,2,0,0,1,.42,0Z"/>
        <path class="cls-1" d="M78.86,35a1.6,1.6,0,0,1-.37.12,2,2,0,0,1-.35,0q-1.35,0-1.35-1.65V28.82h-1.2v-.29H76.8v-2h.34v1.94H78.9v.29H77.13v4.56a3.49,3.49,0,0,0,.06.65,1.32,1.32,0,0,0,.19.46.82.82,0,0,0,.34.27,1.48,1.48,0,0,0,.51.09,1.35,1.35,0,0,0,.56-.1Z"/>
        <path class="cls-1" d="M78.14,35.22c-.67,0-1.48-.31-1.48-1.77V28.94h-1.2V28.4h1.21V26.46h.59V28.4H79v.54H77.25v4.43a2.56,2.56,0,0,0,0,.62,1.15,1.15,0,0,0,.17.41.66.66,0,0,0,.29.23,1.21,1.21,0,0,0,.46.08,1.13,1.13,0,0,0,.51-.09l.12-.06L79,35h-.11a1.87,1.87,0,0,1-.4.13A2,2,0,0,1,78.14,35.22Zm-2.43-6.53h1.2v4.76c0,1,.4,1.52,1.23,1.52h.08a1.54,1.54,0,0,1-.56-.1.92.92,0,0,1-.39-.31,1.48,1.48,0,0,1-.21-.5,2.57,2.57,0,0,1-.06-.68V28.69h0v-2h-.09v1.94h-1.2Z"/>
        <polygon class="cls-1" points="44.84 0 42.01 0 39.49 2.77 36.98 0 34.07 0.06 29.84 4.21 29.78 7.98 39.51 17.77 49.23 7.98 49.19 4.2 44.84 0"/>
      </g>
    </g>
  </g>
</svg>
