<?xml version="1.0" encoding="utf-8"?>
<!-- Generator: Adobe Illustrator 23.0.1, SVG Export Plug-In . SVG Version: 6.00 Build 0)  -->
<svg version="1.1" id="Layer_1" xmlns="http://www.w3.org/2000/svg" xmlns:xlink="http://www.w3.org/1999/xlink" x="0px" y="0px"
	 viewBox="0 0 210 125.7" style="enable-background:new 0 0 210 125.7;" xml:space="preserve">
<style type="text/css">
	.st0{fill:#F3EFE9;}
</style>
<title>coniston</title>
<path class="st0" d="M131.6,6.2v6.3c-9-4.8-17.8-7.2-26.4-7.2c-8.7-0.2-17,3.2-23.1,9.4c-6.2,6.3-9.3,14.1-9.3,23.4
	c0,9.5,3.1,17.3,9.3,23.4s14.2,9.2,23.8,9.2c8.1,0,16.8-2.5,26.4-7.6V69c-8,4.5-17.1,6.9-26.3,7c-11.3,0-20.7-3.6-28.2-10.9
	c-7.5-7.2-11.3-16.2-11.3-27c-0.2-10.3,4-20.2,11.5-27.2C85.4,3.8,95.3-0.1,105.5,0C113.9,0,122.5,2.1,131.6,6.2L131.6,6.2z"/>
<path class="st0" d="M105.8,36.7c3.6,2.3,6.3,5.9,7.4,10.1c3.4,0,5.3-1.1,5.3-4.3s-4-5.1-5.8-6.3s-8.4-3.7-8.4-9.9s6.4-9,10.6-9
	s4.5,1.4,4.5,2.1c0.1,1.4-1,2.6-2.4,2.7c0,0-0.1,0-0.1,0c-2,0-0.9-0.7-2.9-0.7c-3.9,0-6.1,2.8-6.1,4.9s1.2,3.9,7,7
	c6.4,3.5,9.4,7,9.4,12.6s-5.3,14.2-18.7,14.2S84,51.7,84,38.8c-0.2-7.3,3.8-14,10.3-17.4C92.7,30.3,99.8,32.9,105.8,36.7z
	 M121.2,23.3c2.5,0,2-0.5,2-0.5c-1,0-3.3-1.6-3.3-1.6c-0.3,0.5-0.7,1-1.2,1.4C119.5,23.1,120.3,23.4,121.2,23.3L121.2,23.3z
	 M116.9,18.9c-0.6,0-1,0.4-1,1s0.4,1,1,1s1-0.4,1-1S117.5,18.9,116.9,18.9z"/>
<path class="st0" d="M12.8,109.8v-2.3c-1.4-1-3.1-1.6-4.9-1.6c-2.1,0-4.1,0.7-5.6,2.2c-3.1,3.1-3.1,8.1,0,11.2
	c0.3,0.3,0.7,0.6,1,0.9c1.3,0.9,2.8,1.4,4.4,1.4c1.8,0,3.5-0.6,5-1.6v-2.4c-1.2,1.5-3,2.4-4.9,2.4c-2,0-3.9-1-5-2.7
	c-0.7-1-1-2.3-1-3.5c0-1.6,0.6-3.2,1.7-4.4c1.1-1.1,2.7-1.8,4.3-1.8C9.8,107.5,11.6,108.3,12.8,109.8L12.8,109.8z M14.9,116.5
	c0,1.3,0.5,2.6,1.5,3.6c1,1,2.3,1.5,3.6,1.5c1.3,0,2.6-0.5,3.6-1.5c2-2,2-5.1,0-7.1c-0.9-1-2.2-1.5-3.6-1.5c-1.4,0-2.7,0.5-3.6,1.5
	C15.4,113.9,14.9,115.2,14.9,116.5L14.9,116.5z M16.6,116.5c0.1-1.9,1.7-3.3,3.5-3.2s3.3,1.7,3.2,3.5c-0.1,1.8-1.5,3.2-3.3,3.2
	C18.1,120,16.6,118.5,16.6,116.5C16.6,116.6,16.6,116.6,16.6,116.5L16.6,116.5z M29,111.8h-1.6v5.4c0,2.8,1.5,4.3,4.2,4.3
	s4.3-1.5,4.3-4.3v-5.4h-1.6v4.6c0,2.5-0.5,3.6-2.6,3.6s-2.6-1.2-2.6-3.6C29,116.4,29,111.9,29,111.8z M38.9,121.2h1.6v-4.8
	c-0.1-0.9,0.1-1.7,0.5-2.5c0.6-0.7,1.4-1,2.3-1c1.7,0,2.4,0.9,2.4,2.8v5.5h1.6v-6.3c0-2.1-1.3-3.3-3.5-3.3c-1.4-0.1-2.7,0.6-3.4,1.8
	v-1.4h-1.6L38.9,121.2L38.9,121.2z M50.8,113.2v8h1.6v-8h1.7v-1.3h-1.7v-3.8h-1.6v3.8h-1.7v1.3H50.8z M55.9,121.2h1.6v-4.6
	c0-2.4,0.8-3.7,2.5-3.7c0.3,0,0.7,0.1,1,0.2l0.5-1.4c-0.3-0.1-0.7-0.2-1.1-0.2c-1.4,0-2.3,0.7-3.1,2.3v-1.9H56L55.9,121.2
	L55.9,121.2z M62.9,125.7h1.8l6.3-13.9h-1.7l-2.9,6.7l-2.7-6.7h-1.8l3.6,8.4L62.9,125.7L62.9,125.7z M78.6,121.2h7.9v-1.7h-6.1v-5.7
	h6.1v-1.7h-6.1v-4.3h6.1v-1.6h-7.9L78.6,121.2L78.6,121.2z M88.3,119.6c0.7,1.3,2.2,2.1,3.7,2c2.1,0,3.4-1.2,3.4-3
	c0-1.5-0.9-2.2-2.7-2.8c-1.5-0.5-2.4-0.6-2.4-1.6c0-0.8,0.7-1.4,1.5-1.4c0,0,0.1,0,0.1,0c0.9,0,1.7,0.5,2.1,1.3l1.3-0.8
	c-0.6-1.2-1.9-2-3.3-1.9c-2,0-3.3,1.2-3.3,2.8c0,1.8,1.4,2.2,3.7,3c1,0.3,1.5,0.7,1.5,1.4s-0.7,1.4-1.8,1.4c-1,0-2-0.5-2.4-1.5
	L88.3,119.6L88.3,119.6z M98.1,113.2v8h1.6v-8h1.7v-1.3h-1.7v-3.8h-1.6v3.8h-1.7v1.3H98.1z M111.9,111.9h-1.6v1.8
	c-0.6-1.3-2-2.1-3.4-2.1c-2.6,0-4.4,1.9-4.4,5s1.8,5,4.5,5c1.4,0,2.7-0.8,3.4-2.1v1.7h1.5L111.9,111.9L111.9,111.9z M110.3,116.6
	c0,2.2-1.2,3.4-3,3.4s-3.1-1.3-3.1-3.5s1.1-3.4,3-3.4S110.3,114.4,110.3,116.6L110.3,116.6z M115.3,113.2v8h1.7v-8h1.7v-1.3H117
	v-3.8h-1.6v3.8h-1.7v1.3H115.3z M128.8,116.8v-0.3c0-3.1-1.8-4.9-4.5-4.9s-4.7,2-4.7,5s1.9,5.1,4.8,5.1c1.8,0.1,3.5-0.9,4.3-2.5
	l-1.2-0.8c-0.5,1.2-1.7,2-3,2c-1.7,0-3.1-1.3-3.1-3c0-0.1,0-0.2,0-0.3v-0.2L128.8,116.8z M127.1,115.5h-5.7c0.1-1.5,1.4-2.6,2.8-2.6
	c1.4-0.2,2.7,0.9,2.8,2.3C127.1,115.3,127.1,115.4,127.1,115.5L127.1,115.5z M145.9,111.9h-1.6v1.8c-0.6-1.3-2-2.1-3.4-2.1
	c-2.6,0-4.4,1.9-4.4,5s1.8,5,4.5,5c1.4,0,2.7-0.8,3.4-2.1v1.7h1.5L145.9,111.9L145.9,111.9z M144.4,116.6c0,2.2-1.2,3.4-3,3.4
	s-3.1-1.3-3.1-3.5s1.1-3.4,3-3.4S144.4,114.4,144.4,116.6L144.4,116.6z M149.1,121.2h1.6v-4.8c-0.1-0.9,0.1-1.7,0.5-2.5
	c0.6-0.7,1.4-1,2.3-1c1.7,0,2.4,0.9,2.4,2.8v5.5h1.6v-6.3c0-2.1-1.3-3.3-3.5-3.3c-1.4-0.1-2.7,0.6-3.4,1.8v-1.4h-1.6L149.1,121.2
	L149.1,121.2z M169.4,105.4h-1.6v8.2c-0.6-1.3-1.9-2.1-3.4-2.1c-2.6,0-4.4,1.9-4.4,5s1.8,5,4.5,5c1.4,0,2.7-0.8,3.4-2.1v1.7h1.5
	L169.4,105.4L169.4,105.4z M167.9,116.6c0,2.2-1.2,3.5-3.1,3.5s-3-1.3-3-3.7c0-2.1,1.1-3.3,3-3.3S167.9,114.5,167.9,116.6
	L167.9,116.6z M184.3,112.9l-2.1-0.9c-1.4-0.6-2-1.3-2-2.4c0-1.2,0.9-2.1,2.1-2.2c0.1,0,0.1,0,0.2,0c1.1,0,2.1,0.7,2.5,1.7l1.5-0.9
	c-0.7-1.5-2.2-2.4-3.9-2.3c-2.5,0-4.2,1.6-4.2,3.7c0,1.8,1,3.1,2.9,3.9l1.8,0.8c1.5,0.7,2.3,1.7,2.3,3c0,1.5-1.2,2.8-2.7,2.8
	c-0.1,0-0.2,0-0.3,0c-1.5,0-2.5-0.9-3-2.8l-1.6,0.8c0.7,2.6,3.3,4.1,5.8,3.4c2.1-0.5,3.6-2.4,3.6-4.5
	C187.2,115.1,186,113.5,184.3,112.9L184.3,112.9z M189.4,125.7h1.6v-6.2c0.6,1.3,1.9,2.1,3.4,2.1c2.6,0,4.4-1.9,4.4-5s-1.8-5-4.5-5
	c-1.4,0-2.8,0.8-3.4,2.1v-1.8h-1.5L189.4,125.7L189.4,125.7z M191,116.6c0-2.2,1.2-3.5,3.1-3.5s3,1.3,3,3.7c0,2.1-1.1,3.3-3,3.3
	S190.9,118.7,191,116.6L191,116.6z M210,111.8h-1.6v1.8c-0.6-1.3-2-2.1-3.4-2.1c-2.6,0-4.4,1.9-4.4,5s1.8,5,4.5,5
	c1.4,0,2.7-0.8,3.4-2.1v1.7h1.5V111.8L210,111.8z M208.5,116.6c0,2.2-1.2,3.4-3,3.4s-3.1-1.3-3.1-3.5s1.1-3.4,3-3.4
	S208.5,114.4,208.5,116.6L208.5,116.6z"/>
<path class="st0" d="M22.5,101h1.8V87.8h4.2v-1.7H18.2v1.7h4.2V101z M30.3,101h1.6v-4.8c-0.1-0.9,0.1-1.7,0.5-2.5
	c0.6-0.7,1.4-1,2.3-1c1.7,0,2.4,0.9,2.4,2.8v5.5h1.6v-6.4c0-2.1-1.3-3.3-3.5-3.3c-1.4-0.1-2.7,0.6-3.4,1.8v-7.9h-1.6V101z
	 M50.2,96.6v-0.3c0-3.1-1.8-4.9-4.5-4.9s-4.7,2-4.7,5s1.9,5.1,4.8,5.1c1.8,0.1,3.5-0.9,4.3-2.5L48.9,98c-0.5,1.2-1.7,2-3,2
	c-1.7,0-3.1-1.3-3.1-3c0-0.1,0-0.2,0-0.3v-0.2L50.2,96.6z M48.5,95.3h-5.7c0.1-1.5,1.4-2.6,2.8-2.6c1.4-0.2,2.7,0.9,2.8,2.3
	C48.5,95.1,48.5,95.2,48.5,95.3L48.5,95.3z M71,89.6v-2.3c-1.4-1-3.1-1.6-4.9-1.6c-2.1,0-4.1,0.7-5.5,2.2c-3.1,3.1-3.1,8.1,0,11.2
	c0.3,0.3,0.7,0.6,1,0.9c1.3,0.9,2.8,1.4,4.4,1.4c1.8,0,3.5-0.6,5-1.6v-2.3c-1.2,1.5-3,2.4-4.9,2.4c-2,0-3.9-1-5-2.7
	c-0.7-1-1-2.3-1-3.5c0-1.6,0.6-3.2,1.7-4.4c1.1-1.1,2.6-1.8,4.2-1.8C67.9,87.3,69.8,88.2,71,89.6L71,89.6z M73.1,96.4
	c0,1.3,0.5,2.6,1.5,3.5c0.9,1,2.2,1.5,3.6,1.5c1.3,0,2.6-0.5,3.6-1.5c2-2,2-5.1,0-7.1c-0.9-1-2.2-1.5-3.6-1.5
	c-1.3,0-2.6,0.5-3.6,1.5C73.6,93.7,73.1,95,73.1,96.4L73.1,96.4z M74.8,96.4c0.1-1.9,1.7-3.3,3.5-3.2s3.3,1.7,3.2,3.5
	c-0.1,1.8-1.6,3.2-3.4,3.2C76.3,99.9,74.8,98.3,74.8,96.4C74.8,96.4,74.8,96.4,74.8,96.4z M85.7,101h1.6v-4.8
	c-0.1-0.9,0.1-1.7,0.5-2.5c0.6-0.7,1.4-1,2.3-1c1.7,0,2.4,0.9,2.4,2.8v5.5h1.6v-6.4c0-2.1-1.3-3.3-3.5-3.3c-1.4-0.1-2.7,0.6-3.4,1.8
	v-1.4h-1.6V101z M97.4,101H99v-9.3h-1.6C97.4,91.7,97.4,101,97.4,101z M97.1,87.2c0,0.6,0.5,1.2,1.2,1.2c0.6,0,1.2-0.5,1.2-1.2
	c0-0.7-0.5-1.2-1.2-1.2c0,0,0,0,0,0C97.6,86,97.1,86.5,97.1,87.2L97.1,87.2z M101.4,99.4c0.7,1.3,2.2,2.1,3.7,2c2.1,0,3.4-1.2,3.4-3
	c0-1.5-0.9-2.2-2.7-2.8c-1.5-0.5-2.4-0.6-2.4-1.6c0-0.8,0.7-1.4,1.5-1.4c0,0,0.1,0,0.1,0c0.9,0,1.8,0.5,2.1,1.3l1.3-0.8
	c-0.6-1.3-1.9-2-3.3-1.9c-2,0-3.3,1.2-3.3,2.8c0,1.8,1.4,2.2,3.7,3c1,0.3,1.5,0.7,1.5,1.4s-0.7,1.4-1.8,1.4c-1,0-2-0.5-2.4-1.5
	L101.4,99.4L101.4,99.4z M111.1,93v8h1.6v-8h1.7v-1.3h-1.7v-3.8h-1.6v3.8h-1.7V93H111.1z M115.5,96.4c0,1.3,0.5,2.6,1.5,3.5
	c0.9,1,2.2,1.5,3.6,1.5c1.3,0,2.6-0.5,3.6-1.5c2-2,2-5.1,0-7.1c-0.9-1-2.2-1.5-3.6-1.5c-1.3,0-2.6,0.5-3.6,1.5
	C116,93.7,115.5,95,115.5,96.4L115.5,96.4z M117.2,96.4c0.1-1.9,1.7-3.3,3.5-3.2s3.3,1.7,3.2,3.5c-0.1,1.8-1.6,3.2-3.4,3.2
	C118.7,99.9,117.2,98.3,117.2,96.4C117.2,96.4,117.2,96.4,117.2,96.4z M128.2,101h1.6v-4.8c-0.1-0.9,0.1-1.7,0.5-2.5
	c0.6-0.7,1.4-1,2.3-1c1.7,0,2.4,0.9,2.4,2.8v5.5h1.6v-6.4c0-2.1-1.3-3.3-3.5-3.3c-1.4-0.1-2.7,0.6-3.4,1.8v-1.4h-1.6L128.2,101
	L128.2,101z M146.1,101h1.8v-7.5h7.9v7.5h1.8V86.1h-1.8v5.7h-7.9v-5.7h-1.8V101z M160.2,96.4c0,1.3,0.5,2.6,1.5,3.6
	c0.9,1,2.2,1.5,3.6,1.5c1.3,0,2.6-0.5,3.6-1.5c2-2,2-5.1,0-7.1c-0.9-1-2.2-1.5-3.6-1.5c-1.3,0-2.6,0.5-3.6,1.5
	C160.8,93.7,160.2,95,160.2,96.4L160.2,96.4z M161.9,96.4c0.1-1.9,1.7-3.3,3.5-3.2s3.3,1.7,3.2,3.5c-0.1,1.8-1.6,3.2-3.4,3.2
	C163.4,99.9,161.9,98.3,161.9,96.4C161.9,96.4,161.9,96.4,161.9,96.4z M173.1,93v8h1.6v-8h1.7v-1.3h-1.7v-3.8h-1.6v3.8h-1.7V93
	H173.1z M186.6,96.6v-0.3c0-3.1-1.8-4.9-4.5-4.9s-4.6,2-4.6,5s1.9,5.1,4.8,5.1c1.8,0.1,3.5-0.9,4.3-2.5l-1.2-0.9c-0.5,1.2-1.7,2-3,2
	c-1.7,0-3.1-1.3-3.1-3c0-0.1,0-0.2,0-0.3v-0.2L186.6,96.6z M184.9,95.3h-5.7c0.1-1.5,1.3-2.6,2.8-2.6c1.4-0.2,2.7,0.9,2.8,2.3
	C184.8,95.1,184.8,95.2,184.9,95.3L184.9,95.3z M189.1,101h1.6V85.2h-1.6V101L189.1,101z"/>
</svg>
