<svg xmlns="http://www.w3.org/2000/svg" viewBox="0 0 113.16 15.08">
  <defs>
    <style>
      .cls-1 {
        fill: #f3efe9;
      }
    </style>
  </defs>
  <title>h-and-j-arise</title>
  <g id="Layer_2" data-name="Layer 2">
    <g id="Layer_1-2" data-name="Layer 1">
      <g id="Layer_1-2-2" data-name="Layer 1-2">
        <path class="cls-1" d="M95,13.08v-.89c0-.13,0-.21-.18-.24h1.5v.46a.33.33,0,0,0,0-.14c0-.1-.11-.14-.3-.15h-.57v1.14H96c.11,0,.16,0,.21-.07s0,0,.05,0h0v.5a.2.2,0,0,0,0-.11c0-.06-.07-.12-.21-.14h-.59v1.07c0,.09,0,.26.14.3a1,1,0,0,0,.34,0,1.15,1.15,0,0,0,.37,0c.13,0,.18-.13.21-.31s0-.06,0-.06v.06a1.18,1.18,0,0,1,0,.4c0,.09-.06.11-.22.11H94.82c.09,0,.14-.08.15-.39s0-.37,0-.74Z"/>
        <path class="cls-1" d="M97.32,15c-.06,0-.06,0-.06-.16v-.51h0a.38.38,0,0,0,0,.15.62.62,0,0,0,1.2-.09v0c0-.29-.12-.45-.47-.74l-.19-.15c-.44-.36-.54-.62-.54-.9a.75.75,0,0,1,.77-.74h.62v.49a.8.8,0,0,0-.05-.21.6.6,0,0,0-.52-.22.47.47,0,0,0-.51.43v.05c0,.24.11.38.5.69l.12.09c.49.38.6.64.6,1a.84.84,0,0,1-.35.69,1,1,0,0,1-.62.17,1.15,1.15,0,0,1-.55-.11"/>
        <path class="cls-1" d="M100.82,13.81v.9c0,.18,0,.21.16.23h-.74c.08,0,.1-.11.12-.23s0-.5,0-.9V12h-.61c-.26,0-.35,0-.42.13a.83.83,0,0,0-.07.13h0s.08-.4.09-.43a.2.2,0,0,0,0-.08h2.47v.44h0s-.11-.22-.51-.23h-.52Z"/>
        <path class="cls-1" d="M102,14.81a.22.22,0,0,1,.22-.22h0a.24.24,0,0,1,0,.47.22.22,0,0,1-.26-.16.17.17,0,0,1,0-.1"/>
        <path class="cls-1" d="M104.9,12.39c0-.08,0-.13-.06-.13a2.67,2.67,0,0,0-.4.13h0l.69-.45h.1v2.93c0,.22,0,.2.17.21h-.75c.15,0,.19-.08.2-.24s0-.53,0-.94Z"/>
        <path class="cls-1" d="M108.06,14.15a.94.94,0,0,1-1,.92h0a.85.85,0,0,1-.94-.75v-.06a1.06,1.06,0,0,1,.73-.9.92.92,0,0,1-.57-.78.8.8,0,0,1,.85-.74h0a.69.69,0,0,1,.76.62v0a.88.88,0,0,1-.59.76,1.12,1.12,0,0,1,.72.91m-1.6.06a.65.65,0,0,0,.63.69h0a.62.62,0,0,0,.63-.61v-.05c0-.45-.36-.64-.74-.83a.87.87,0,0,0-.55.8m1.18-1.68a.54.54,0,0,0-.49-.57h0a.52.52,0,0,0-.54.5v0c0,.35.28.51.62.69a.67.67,0,0,0,.44-.65"/>
        <path class="cls-1" d="M108.62,13.89a2.22,2.22,0,0,1,1.61-2h.12a.49.49,0,0,1-.11.08A2.1,2.1,0,0,0,109,13.85c0,.57.24,1.06.7,1.06s.58-.27.58-.73a.78.78,0,0,0-.65-.86.8.8,0,0,0-.34.07h0v-.05a.87.87,0,0,1,.52-.16.81.81,0,0,1,.81.81v0a1,1,0,0,1-1,1c-.65,0-1-.49-1-1.17"/>
        <path class="cls-1" d="M113.11,14.15a.94.94,0,0,1-1,.92h0a.85.85,0,0,1-.94-.75v-.06a1.06,1.06,0,0,1,.73-.9.92.92,0,0,1-.57-.78.8.8,0,0,1,.85-.74h0a.69.69,0,0,1,.76.62v0a.88.88,0,0,1-.59.76,1.12,1.12,0,0,1,.72.91m-1.6.06a.65.65,0,0,0,.63.69h0a.62.62,0,0,0,.63-.61v-.05c0-.45-.36-.64-.74-.83a.87.87,0,0,0-.55.8m1.18-1.68a.54.54,0,0,0-.49-.57h0a.52.52,0,0,0-.54.5v0c0,.35.28.51.62.69a.67.67,0,0,0,.44-.65"/>
        <path class="cls-1" d="M7,3.85V1C7,.63,6.89.46,6.51.38a2.67,2.67,0,0,0-.4,0S6,.32,6,.28s.06-.09.18-.09H8.62c.13,0,.19,0,.19.09s0,.07-.09.07H8.43C8.14.44,8.05.63,8,1s0,.69,0,2.5v2c0,1.11,0,2,.06,2.51,0,.34.1.59.45.64H9c.07,0,.09,0,.09.07s-.06.09-.18.09H6.38c-.13,0-.19,0-.19-.09s0-.07.09-.07h.35c.23,0,.29-.3.34-.64S7,6.69,7,5.58V4.36a.09.09,0,0,0,0-.07H2.05s-.06,0,0,.07H2V5.58c0,1.11,0,2,.06,2.51,0,.34.1.59.45.64H3c.07,0,.09,0,.09.07s-.06.09-.18.09H.37c-.13,0-.18,0-.18-.09s0-.07.09-.07H.63c.23,0,.29-.3.34-.64s0-1.4,0-2.51V1A.55.55,0,0,0,.49.38,2.54,2.54,0,0,0,.1.38S0,.32,0,.28.06.18.19.18H2.64c.13,0,.19,0,.19.09s0,.07-.09.07H2.45C2.12.44,2,.63,2,1V3.76a.05.05,0,0,0,0,.07h0Z"/>
        <path class="cls-1" d="M10.73,4.55A4.48,4.48,0,0,1,15.16,0h.13A4.22,4.22,0,0,1,19.83,3.9c0,.15,0,.31,0,.46A4.55,4.55,0,0,1,15.48,9.1h-.26a4.33,4.33,0,0,1-4.5-4.17,2.41,2.41,0,0,1,0-.38m8,.14C18.73,1.91,17,.41,15.21.41s-3.38,1.27-3.38,3.81c0,2.7,1.62,4.44,3.71,4.44,1,0,3.2-.6,3.2-4"/>
        <path class="cls-1" d="M22.59,3.54V1c0-.37-.11-.58-.49-.66a2.54,2.54,0,0,0-.39,0c-.08,0-.13,0-.13-.07s.06-.09.18-.09h2.87c1.15,0,3.27-.1,4.65,1.32A4.12,4.12,0,0,1,30.4,4.48a4.71,4.71,0,0,1-1.25,3.27A4.6,4.6,0,0,1,25.65,9H24L23,9H21.87c-.13,0-.19,0-.19-.09s0-.07.12-.07h.32c.23,0,.29-.3.34-.64.06-.49.06-1.4.06-2.51Zm1,1.25V7.3a2.61,2.61,0,0,0,.13.88c.15.22.6.46,2,.46a3.87,3.87,0,0,0,2.76-1.08,4,4,0,0,0,.93-2.77A4.11,4.11,0,0,0,28.3,1.87,4.77,4.77,0,0,0,24.46.58a3.82,3.82,0,0,0-.75.08.21.21,0,0,0-.14.23V3.36Z"/>
        <path class="cls-1" d="M34.08,4.28c.36-.35,1.93-2,2.64-2.73s.74-.83.74-1a.25.25,0,0,0-.15-.22.09.09,0,0,1-.1-.1s.07-.07.17-.07H39.3c.16,0,.2,0,.2.08s0,.07-.13.08a2.41,2.41,0,0,0-.59.14,3.57,3.57,0,0,0-1.21.93c-1,1-2.34,2.29-2.64,2.63.73.8,2.84,2.94,3.38,3.45.95.89,1.36,1.15,1.91,1.25a1,1,0,0,0,.34,0c.09,0,.16,0,.16.08s0,.08-.17.08H39.7a2.25,2.25,0,0,1-1.82-.56,43.51,43.51,0,0,1-3.8-4V5.58c0,1.11,0,2,.06,2.51,0,.34.1.59.45.64h.46c.1,0,.14,0,.14.08s0,.08-.17.08H32.51c-.13,0-.19,0-.19-.08s0-.08.13-.08h.3c.23,0,.3-.31.35-.65.06-.49.06-1.4.06-2.51V1.07c0-.37-.16-.62-.43-.68a2.94,2.94,0,0,0-.42,0c-.09,0-.13,0-.13-.07s.06-.09.19-.09h2.35c.13,0,.19,0,.19.08s0,.07-.13.08h-.26c-.31,0-.4.27-.43.67s0,.7,0,2.5Z"/>
        <path class="cls-1" d="M42.22,3.54V1c0-.37-.14-.59-.4-.65a2.16,2.16,0,0,0-.36,0s-.09,0-.09-.07.06-.09.18-.09h2.31c.13,0,.19,0,.19.09s0,.07-.09.07h-.29c-.31.06-.4.25-.43.66s0,.7,0,2.5v2c0,1.11,0,2,.06,2.51,0,.34.1.59.45.64h.48c.1,0,.14,0,.14.07s0,.09-.17.09H41.63c-.13,0-.19,0-.19-.09s0-.07.13-.07a1.5,1.5,0,0,0,.3,0c.23,0,.3-.31.35-.65.06-.49.06-1.4.06-2.51Z"/>
        <path class="cls-1" d="M47.05,5.52V.6c0-.45,0-.58.13-.58s.29.26.4.37l3.68,4C52.41,5.62,53.67,7,54,7.39l-.13-5.88c0-.75-.09-1-.45-1.1A3.62,3.62,0,0,0,53,.35c-.13,0-.16,0-.16-.08s.09-.08.23-.08h2.2c.13,0,.21,0,.21.08s0,.07-.13.08h-.3c-.32.07-.41.24-.41,1V8.11c0,.76,0,.82-.1.82s-.23-.13-.85-.74c-.13-.12-1.79-1.82-3-3.14S48,2.23,47.6,1.82l.15,5.55c0,1,.14,1.25.45,1.34a2.25,2.25,0,0,0,.58.07c.06,0,.09,0,.09.07s-.07.09-.21.09H46.32c-.12,0-.19,0-.19-.09s0-.07.09-.07a1.59,1.59,0,0,0,.48-.07c.29-.08.35-.42.35-1.47Z"/>
        <path class="cls-1" d="M60.92,6.54a3.23,3.23,0,0,1,1.75-2.79,2.5,2.5,0,0,1-.54-1.6A2.4,2.4,0,0,1,64.61,0a3.4,3.4,0,0,1,1.3.23c.24.12.26.18.26.35a10.36,10.36,0,0,1-.07,1.25c0,.21-.07.28-.13.28s-.07,0-.07-.22a1.36,1.36,0,0,0-.36-1,1.55,1.55,0,0,0-1.16-.5,1.41,1.41,0,0,0-1.47,1.35,1,1,0,0,0,0,.17c0,.9.63,1.66,1.83,3,.39.43,1.82,1.76,2.19,2.07a3.54,3.54,0,0,0,.59-2,.78.78,0,0,0-.22-.57.9.9,0,0,0-.47-.17c-.13,0-.23,0-.23-.09s.09-.08.18-.08a13,13,0,0,1,1.39.08c.17,0,.21.12.21.23a5,5,0,0,1-1.15,2.73,9.54,9.54,0,0,0,1.6,1.15,3,3,0,0,0,1.35.45c.1,0,.18,0,.18.08s-.06.08-.16.08H68.69a3.51,3.51,0,0,1-2.1-1A3.81,3.81,0,0,1,63.72,9.1a2.65,2.65,0,0,1-2.81-2.46v-.1m5.4,1.13c-.65-.54-1.78-1.67-2.09-2A18.26,18.26,0,0,1,62.84,4a2.18,2.18,0,0,0-1,2A2.31,2.31,0,0,0,64,8.44h.14a2.9,2.9,0,0,0,2.17-.79"/>
        <path class="cls-1" d="M76.88,6.32a8.42,8.42,0,0,1-.35,3.42,4.3,4.3,0,0,1-1.69,1.77,2.66,2.66,0,0,1-.45.29h-.08a.08.08,0,0,1-.08-.07c0-.07.06-.11.16-.17a2.15,2.15,0,0,0,.41-.32c.75-.76,1.11-1.38,1.11-4.37V1a.57.57,0,0,0-.5-.66,2.16,2.16,0,0,0-.36,0c-.08,0-.13,0-.13-.08s0-.08.17-.08h2.46c.13,0,.19,0,.19.09s-.06.07-.13.07h-.28c-.31,0-.38.27-.41.67s0,.7,0,2.5Z"/>
        <path class="cls-1" d="M79.38,4.55A4.48,4.48,0,0,1,83.81,0h.13a4.22,4.22,0,0,1,4.55,3.87,3.69,3.69,0,0,1,0,.47A4.55,4.55,0,0,1,84.14,9.1h-.26a4.32,4.32,0,0,1-4.49-4.18,2.28,2.28,0,0,1,0-.37m8,.14c0-2.78-1.69-4.27-3.52-4.27s-3.38,1.27-3.38,3.81c0,2.7,1.62,4.44,3.71,4.44,1,0,3.2-.6,3.2-4"/>
        <path class="cls-1" d="M90.92,5.52V.6c0-.45,0-.58.13-.58s.29.26.4.37l3.68,4c1.15,1.23,2.41,2.64,2.78,3L97.8,1.5c0-.75-.09-1-.45-1.1a4,4,0,0,0-.5-.06c-.13,0-.16,0-.16-.08s.09-.08.23-.08h2.2c.13,0,.21,0,.21.08s0,.07-.13.08h-.3c-.32.07-.41.24-.41,1V8.1c0,.76,0,.82-.1.82s-.23-.13-.85-.74c-.13-.12-1.8-1.82-3-3.14s-2.65-2.91-3-3.32l.15,5.55c0,1,.14,1.25.45,1.34a2.25,2.25,0,0,0,.58.07c.06,0,.09,0,.09.07s-.07.09-.21.09H90.26c-.12,0-.18,0-.18-.09s0-.07.09-.07a1.49,1.49,0,0,0,.47-.07c.29-.08.35-.42.35-1.47Z"/>
        <path class="cls-1" d="M102.38,3.54V1a.57.57,0,0,0-.5-.66h-.33c-.08,0-.15,0-.15-.07s.06-.09.19-.09h4a1.88,1.88,0,0,0,.53-.07h.13v.1a5.07,5.07,0,0,0-.09.54v.7c0,.12,0,.2-.09.2s-.09-.06-.09-.15a1.26,1.26,0,0,0-.06-.38c-.08-.27-.32-.38-.83-.43h-1.59c-.13,0-.07,0-.07.12v3.2c0,.08,0,.12.07.12h1.84a.72.72,0,0,0,.58-.2c.12-.14.09-.12.14-.12s.06,0,.06.09-.06.27-.09.65a6.64,6.64,0,0,0,0,.79c0,.16,0,.17-.08.17s-.08-.09-.08-.18a.86.86,0,0,0,0-.32c0-.17-.18-.34-.6-.38s-1.46-.06-1.66-.06a.08.08,0,0,0-.08.06v3c0,.47.09.73.38.85a2.59,2.59,0,0,0,1,.1,3.74,3.74,0,0,0,1-.1c.37-.12.5-.36.59-.86,0-.13,0-.17.11-.17s.07.09.07.17a11,11,0,0,1-.15,1.12c-.06.24-.17.3-.63.3h-4c-.13,0-.19,0-.19-.09s.06-.06.13-.07h.27c.24-.06.39-.22.42-1.09V5.78Z"/>
        <path class="cls-1" d="M108.83,8.79c-.16-.08-.17-.13-.17-.44a6.29,6.29,0,0,1,.06-1.23c.06-.23,0-.18.09-.18s.08,0,.08.13a3.08,3.08,0,0,0,0,.43,1.58,1.58,0,0,0,1.71,1.18,1.55,1.55,0,0,0,1.66-1.43V7.14c0-.8-.34-1.26-1.33-2.09l-.52-.43c-1.23-1-1.51-1.73-1.51-2.51A2.12,2.12,0,0,1,111,0l.3,0a4.9,4.9,0,0,1,1.08.12,1.34,1.34,0,0,0,.4.06c.09,0,.12,0,.12.08V1.51c0,.18,0,.27-.08.27s-.08-.06-.09-.15a2,2,0,0,0-.15-.58c-.07-.13-.38-.61-1.45-.61a1.33,1.33,0,0,0-1.42,1.22v.12c0,.66.3,1.08,1.41,2l.32.26c1.37,1.08,1.69,1.79,1.69,2.72a2.38,2.38,0,0,1-1,1.92,3,3,0,0,1-1.75.49,3.47,3.47,0,0,1-1.55-.31"/>
      </g>
    </g>
  </g>
</svg>
